SplineFontDB: 3.2
FontName: FloranteatLaura
FullName: Florante at Laura
FamilyName: Florante at Laura
Weight: Book
Copyright: Florante at Laura Font (c) Edgar Tadeo.
Version: Macromedia Fontographer 4.1 10/4/2005
ItalicAngle: 0
UnderlinePosition: -143
UnderlineWidth: 20
Ascent: 800
Descent: 200
InvalidEm: 0
sfntRevision: 0x00010000
LayerCount: 2
Layer: 0 1 "Back" 1
Layer: 1 1 "Fore" 0
XUID: [1021 576 803247454 10387]
StyleMap: 0x0040
FSType: 2
OS2Version: 1
OS2_WeightWidthSlopeOnly: 0
OS2_UseTypoMetrics: 0
CreationTime: 1128438538
ModificationTime: 1737493421
PfmFamily: 81
TTFWeight: 400
TTFWidth: 5
LineGap: 0
VLineGap: 0
Panose: 0 0 4 0 0 0 0 0 0 0
OS2TypoAscent: 884
OS2TypoAOffset: 0
OS2TypoDescent: -207
OS2TypoDOffset: 0
OS2TypoLinegap: 0
OS2WinAscent: 884
OS2WinAOffset: 0
OS2WinDescent: 207
OS2WinDOffset: 0
HheadAscent: 884
HheadAOffset: 0
HheadDescent: -207
HheadDOffset: 0
OS2SubXSize: 700
OS2SubYSize: 650
OS2SubXOff: 0
OS2SubYOff: 143
OS2SupXSize: 700
OS2SupYSize: 650
OS2SupXOff: 0
OS2SupYOff: 453
OS2StrikeYSize: 50
OS2StrikeYPos: 259
OS2Vendor: 'MACR'
OS2CodePages: 00000001.00000000
OS2UnicodeRanges: 00000003.00000000.00000000.00000000
DEI: 91125
TtTable: prep
NPUSHB
 13
 9
 9
 8
 8
 3
 3
 2
 2
 1
 1
 0
 0
 1
SCANTYPE
PUSHW_1
 511
SCANCTRL
RCVT
ROUND[Grey]
WCVTP
RCVT
ROUND[Grey]
WCVTP
RCVT
ROUND[Grey]
WCVTP
RCVT
ROUND[Grey]
WCVTP
RCVT
ROUND[Grey]
WCVTP
RCVT
ROUND[Grey]
WCVTP
PUSHB_4
 5
 4
 70
 0
CALL
PUSHB_4
 7
 6
 70
 0
CALL
PUSHB_2
 4
 4
RCVT
ROUND[Grey]
WCVTP
PUSHB_2
 6
 6
RCVT
ROUND[Grey]
WCVTP
EndTTInstrs
TtTable: fpgm
NPUSHB
 1
 0
FDEF
SROUND
RCVT
DUP
PUSHB_1
 3
CINDEX
RCVT
SWAP
SUB
ROUND[Grey]
RTG
SWAP
ROUND[Grey]
ADD
WCVTP
ENDF
EndTTInstrs
ShortTable: cvt  13
  -198
  -15
  580
  829
  139
  164
  176
  189
  158
  49
  23133
  1
  3
EndShort
ShortTable: maxp 16
  1
  0
  103
  135
  5
  0
  0
  2
  8
  64
  10
  0
  72
  151
  1
  1
EndShort

StartChar: .notdef
Encoding: 65536 -1 0
Width: 500
GlyphClass: 1
Flags: W
LayerCount: 2
Fore
SplineSet
63 0 m 1,0,-1
 63 800 l 1,1,-1
 438 800 l 1,2,-1
 438 0 l 1,3,-1
 63 0 l 1,0,-1
125 63 m 1,4,-1
 375 63 l 1,5,-1
 375 738 l 1,6,-1
 125 738 l 1,7,-1
 125 63 l 1,4,-1
EndSplineSet
EndChar

StartChar: exclam
Encoding: 33 33 4
Width: 471
GlyphClass: 1
Flags: W
LayerCount: 2
Fore
SplineSet
352 302 m 1,0,1
 347 283 347 283 296 224 c 0,2,3
 238 157 238 157 210 157 c 1,4,5
 211 157 211 157 166 184 c 1,6,-1
 166 315 l 2,7,8
 166 319 166 319 169 323 c 128,-1,9
 172 327 172 327 172 331 c 2,10,-1
 172 609 l 2,11,12
 172 615 172 615 162 626 c 128,-1,13
 152 637 152 637 147 637 c 0,14,15
 144 637 144 637 127.5 627.5 c 128,-1,16
 111 618 111 618 103 617 c 1,17,18
 96 624 96 624 96 625 c 0,19,20
 96 652 96 652 173 726 c 128,-1,21
 250 800 250 800 274 800 c 0,22,23
 280 800 280 800 300 776.5 c 128,-1,24
 320 753 320 753 320 749 c 2,25,-1
 320 458 l 2,26,27
 320 455 320 455 317 451 c 128,-1,28
 314 447 314 447 314 444 c 2,29,-1
 314 331 l 1,30,31
 327 321 327 321 352 302 c 1,0,1
378 130 m 0,32,33
 378 95 378 95 305 21.5 c 128,-1,34
 232 -52 232 -52 199 -52 c 0,35,36
 190 -52 190 -52 161 -31.5 c 128,-1,37
 132 -11 132 -11 120 -11 c 1,38,39
 125 -11 125 -11 80 -23 c 1,40,41
 73 -16 73 -16 73 -14 c 0,42,43
 73 27 73 27 151 84 c 0,44,45
 222 137 222 137 250 137 c 0,46,47
 269 137 269 137 293 122.5 c 128,-1,48
 317 108 317 108 316 108 c 1,49,50
 320 108 320 108 336 121 c 0,51,52
 357 137 357 137 362 140 c 2,53,-1
 375 140 l 1,54,55
 378 136 378 136 378 130 c 0,32,33
EndSplineSet
EndChar

StartChar: quotedbl
Encoding: 34 34 5
Width: 683
GlyphClass: 1
Flags: W
LayerCount: 2
Fore
SplineSet
604 713 m 0,0,1
 604 668 604 668 545 598 c 0,2,3
 491 534 491 534 441 507 c 1,4,-1
 426 510 l 1,5,6
 428 521 428 521 443 545 c 0,7,8
 456 566 456 566 456 584 c 0,9,10
 456 609 456 609 445 631 c 0,11,12
 439 643 439 643 409 686 c 1,13,14
 376 661 376 661 372 661 c 2,15,-1
 357 661 l 1,16,-1
 357 679 l 2,17,18
 356 701 356 701 433.5 772 c 128,-1,19
 511 843 511 843 530 843 c 0,20,21
 554 843 554 843 581 780 c 0,22,23
 604 727 604 727 604 713 c 0,0,1
308 707 m 0,24,25
 308 649 308 649 241 567 c 128,-1,26
 174 485 174 485 113 473 c 1,27,28
 131 509 131 509 156 544 c 0,29,30
 163 553 163 553 163 595 c 0,31,32
 163 610 163 610 127 646 c 1,33,34
 123 644 123 644 107 632.5 c 128,-1,35
 91 621 91 621 87 621 c 2,36,-1
 72 621 l 1,37,38
 74 641 74 641 134 717 c 0,39,40
 202 803 202 803 240 803 c 0,41,42
 269 803 269 803 290 764 c 0,43,44
 308 732 308 732 308 707 c 0,24,25
EndSplineSet
EndChar

StartChar: numbersign
Encoding: 35 35 6
Width: 933
GlyphClass: 1
Flags: W
LayerCount: 2
Fore
SplineSet
883 345 m 1,0,1
 872 289 872 289 739 190 c 1,2,3
 752 158 752 158 808 117 c 1,4,5
 816 101 816 101 760 40.5 c 128,-1,6
 704 -20 704 -20 680 -20 c 0,7,8
 670 -20 670 -20 628 26 c 128,-1,9
 586 72 586 72 586 76 c 2,10,-1
 586 224 l 1,11,-1
 451 224 l 2,12,13
 424 224 424 224 366 209 c 1,14,-1
 366 167 l 1,15,16
 382 158 382 158 460 111 c 1,17,18
 457 93 457 93 408 36 c 0,19,20
 355 -25 355 -25 330 -25 c 0,21,22
 324 -25 324 -25 275 8 c 128,-1,23
 226 41 226 41 227 43 c 2,24,-1
 227 182 l 1,25,26
 191 180 191 180 150 153 c 0,27,28
 90 114 90 114 72 106 c 1,29,30
 68 109 68 109 68 115 c 0,31,32
 68 142 68 142 139 205 c 0,33,34
 190 249 190 249 232 277 c 1,35,-1
 232 432 l 1,36,37
 224 442 224 442 187.5 460.5 c 128,-1,38
 151 479 151 479 147 479 c 0,39,40
 145 479 145 479 123 461 c 0,41,42
 95 440 95 440 80 431 c 1,43,-1
 67 434 l 1,44,45
 65 457 65 457 127 522 c 0,46,47
 180 576 180 576 226 612 c 1,48,49
 210 622 210 622 193 632 c 0,50,51
 172 645 172 645 158 643 c 0,52,53
 154 646 154 646 154 652 c 0,54,55
 154 679 154 679 211 729 c 128,-1,56
 268 779 268 779 288 779 c 0,57,58
 298 779 298 779 332 763 c 128,-1,59
 366 747 366 747 366 738 c 2,60,-1
 366 572 l 1,61,62
 432 554 432 554 469 554 c 256,63,64
 506 554 506 554 570 572 c 1,65,-1
 570 606 l 1,66,67
 549 622 549 622 528 638 c 0,68,69
 492 668 492 668 492 679 c 0,70,71
 492 698 492 698 546.5 752 c 128,-1,72
 601 806 601 806 622 806 c 1,73,74
 644 792 644 792 661 779 c 0,75,76
 701 748 701 748 709 727 c 1,77,-1
 711 617 l 1,78,79
 740 624 740 624 791 666 c 0,80,81
 847 713 847 713 863 720 c 1,82,-1
 878 720 l 1,83,84
 875 702 875 702 860 681 c 0,85,86
 847 665 847 665 834 648 c 0,87,88
 804 619 804 619 773 590 c 0,89,90
 717 534 717 534 717 523 c 2,91,-1
 720 375 l 1,92,93
 716 365 716 365 731 360 c 128,-1,94
 746 355 746 355 758.5 351.5 c 128,-1,95
 771 348 771 348 801 333 c 0,96,97
 826 321 826 321 830 321 c 0,98,99
 832 321 832 321 849 333 c 128,-1,100
 866 345 866 345 869 345 c 2,101,-1
 883 345 l 1,0,1
580 361 m 1,102,103
 579 395 579 395 576 432 c 0,104,105
 575 459 575 459 575 468 c 1,106,107
 457 428 457 428 372 417 c 1,108,109
 372 409 372 409 369 392 c 128,-1,110
 366 375 366 375 366 373 c 2,111,-1
 366 324 l 1,112,113
 510 355 510 355 580 361 c 1,102,103
EndSplineSet
EndChar

StartChar: dollar
Encoding: 36 36 7
Width: 733
GlyphClass: 1
Flags: W
LayerCount: 2
Fore
SplineSet
659 328 m 0,0,1
 659 304 659 304 658 301 c 0,2,3
 654 288 654 288 585 209 c 0,4,5
 508 121 508 121 483 121 c 1,6,7
 483 121 483 121 458 139.5 c 128,-1,8
 433 158 433 158 418 163 c 1,9,10
 407 116 407 116 369.5 68 c 128,-1,11
 332 20 332 20 285 -7 c 1,12,-1
 274 -7 l 1,13,-1
 274 3 l 1,14,15
 304 87 304 87 304 126 c 0,16,17
 304 168 304 168 301 187 c 1,18,19
 233 189 233 189 202 185 c 0,20,21
 147 178 147 178 111 149 c 1,22,-1
 98 149 l 1,23,24
 144 248 144 248 219 281 c 0,25,26
 271 305 271 305 373 305 c 0,27,28
 421 305 421 305 432 304 c 0,29,30
 460 301 460 301 527 285 c 1,31,32
 519 313 519 313 470 341 c 0,33,34
 427 367 427 367 404 367 c 2,35,-1
 292 367 l 2,36,37
 259 367 259 367 226 386 c 0,38,39
 185 410 185 410 185 449 c 0,40,41
 185 471 185 471 205 508 c 128,-1,42
 225 545 225 545 273 592 c 0,43,44
 313 630 313 630 313 643 c 256,45,46
 313 656 313 656 311 659 c 0,47,48
 300 667 300 667 289 676 c 1,49,50
 276 668 276 668 250 655 c 1,51,52
 247 659 247 659 247 663 c 0,53,54
 247 683 247 683 309 741.5 c 128,-1,55
 371 800 371 800 389 800 c 0,56,57
 435 800 435 800 435 697 c 0,58,59
 435 668 435 668 426 656 c 1,60,61
 430 648 430 648 466 637 c 128,-1,62
 502 626 502 626 532 626 c 0,63,64
 568 626 568 626 635 671 c 1,65,-1
 649 668 l 1,66,67
 627 612 627 612 555.5 560.5 c 128,-1,68
 484 509 484 509 427 509 c 0,69,70
 398 509 398 509 364 520 c 0,71,72
 316 535 316 535 306 537 c 1,73,74
 329 483 329 483 404 483 c 2,75,-1
 514 483 l 2,76,77
 524 483 524 483 560 469 c 0,78,79
 616 446 616 446 640 405 c 0,80,81
 659 372 659 372 659 328 c 0,0,1
EndSplineSet
EndChar

StartChar: percent
Encoding: 37 37 8
Width: 935
GlyphClass: 1
Flags: W
LayerCount: 2
Fore
SplineSet
499 707 m 0,0,1
 499 648 499 648 417 573 c 0,2,3
 393 550 393 550 270 456 c 0,4,5
 261 450 261 450 228 450 c 0,6,7
 149 450 149 450 149 520 c 0,8,9
 149 574 149 574 207 643 c 0,10,11
 257 702 257 702 326 750 c 0,12,13
 392 796 392 796 420 796 c 0,14,15
 457 796 457 796 480 766 c 0,16,17
 499 740 499 740 499 707 c 0,0,1
905 311 m 0,18,19
 905 248 905 248 794.5 143.5 c 128,-1,20
 684 39 684 39 626 39 c 0,21,22
 555 39 555 39 555 133 c 0,23,24
 555 168 555 168 558 178 c 0,25,26
 572 220 572 220 640 290 c 0,27,28
 701 353 701 353 745 381 c 0,29,30
 760 390 760 390 814 390 c 0,31,32
 905 390 905 390 905 311 c 0,18,19
905 758 m 1,33,34
 903 723 903 723 823.5 654 c 128,-1,35
 744 585 744 585 702 585 c 0,36,37
 699 585 699 585 685.5 589 c 128,-1,38
 672 593 672 593 669 593 c 0,39,40
 543 433 543 433 458 316 c 0,41,42
 424 271 424 271 387.5 199 c 128,-1,43
 351 127 351 127 328 97 c 0,44,45
 288 43 288 43 222 -3 c 1,46,-1
 210 -3 l 1,47,48
 210 -2 210 -2 208 6 c 0,49,50
 208 10 208 10 204 10 c 0,51,52
 201 10 201 10 200.5 8.5 c 128,-1,53
 200 7 200 7 196 7 c 2,54,55
 196 7 196 7 179 15 c 128,-1,56
 162 23 162 23 134 23 c 0,57,58
 95 23 95 23 92 15 c 0,59,60
 87 1 87 1 50 -8 c 0,61,62
 46 -5 46 -5 46 1 c 0,63,64
 46 13 46 13 63 33 c 0,65,66
 93 70 93 70 135 107 c 0,67,68
 192 158 192 158 222 158 c 2,69,-1
 292 158 l 1,70,71
 330 225 330 225 368 281 c 1,72,73
 431 360 431 360 541 502 c 1,74,75
 585 570 585 570 630 638 c 0,76,77
 696 730 696 730 759 753 c 1,78,79
 796 719 796 719 822 719 c 0,80,81
 829 719 829 719 857 736 c 0,82,83
 889 757 889 757 893 758 c 2,84,-1
 905 758 l 1,33,34
365 585 m 1,85,-1
 365 600 l 2,86,87
 365 618 365 618 343.5 639.5 c 128,-1,88
 322 661 322 661 302 661 c 0,89,90
 289 661 289 661 283 655 c 1,91,92
 283 623 283 623 284 619 c 128,-1,93
 285 615 285 615 304 600 c 128,-1,94
 323 585 323 585 330 585 c 2,95,-1
 365 585 l 1,85,-1
771 182 m 1,96,97
 773 194 773 194 761 223 c 0,98,99
 746 255 746 255 730 255 c 2,100,-1
 689 255 l 1,101,-1
 689 225 l 2,102,103
 689 208 689 208 707.5 191 c 128,-1,104
 726 174 726 174 746 174 c 0,105,106
 763 174 763 174 771 182 c 1,96,97
EndSplineSet
EndChar

StartChar: ampersand
Encoding: 38 38 9
Width: 967
GlyphClass: 1
Flags: W
LayerCount: 2
Fore
SplineSet
968 548 m 1,0,1
 960 508 960 508 894 452.5 c 128,-1,2
 828 397 828 397 788 397 c 0,3,4
 768 397 768 397 758 404 c 128,-1,5
 748 411 748 411 743 412 c 1,6,-1
 594 219 l 1,7,8
 624 170 624 170 730 170 c 0,9,10
 766 170 766 170 798 190 c 0,11,12
 815 200 815 200 842 226 c 0,13,14
 862 246 862 246 870 246 c 2,15,-1
 884 246 l 1,16,17
 861 180 861 180 770 109.5 c 128,-1,18
 679 39 679 39 616 39 c 0,19,20
 581 39 581 39 536 51 c 0,21,22
 474 68 474 68 469 95 c 1,23,24
 343 -6 343 -6 261 -6 c 0,25,26
 214 -6 214 -6 147 36 c 0,27,28
 68 86 68 86 68 143 c 0,29,30
 68 188 68 188 106 252 c 0,31,32
 139 309 139 309 191 363 c 1,33,34
 68 397 68 397 68 504 c 0,35,36
 68 591 68 591 147 691 c 0,37,38
 233 800 233 800 331 800 c 0,39,40
 391 800 391 800 435 757 c 128,-1,41
 479 714 479 714 479 656 c 0,42,43
 479 609 479 609 426 547 c 1,44,45
 433 547 433 547 450.5 550 c 128,-1,46
 468 553 468 553 470 553 c 0,47,48
 534 553 534 553 587 487 c 0,49,50
 635 426 635 426 641 357 c 1,51,52
 689 413 689 413 737 469 c 0,53,54
 804 540 804 540 860 556 c 1,55,56
 866 551 866 551 861 542 c 1,57,58
 886 528 886 528 887 528 c 1,59,60
 886 528 886 528 902 528 c 0,61,62
 913 528 913 528 920 530 c 0,63,64
 944 540 944 540 968 548 c 1,0,1
350 540 m 0,65,66
 350 579 350 579 317 622 c 0,67,68
 281 669 281 669 240 669 c 2,69,-1
 197 669 l 1,70,71
 197 652 197 652 197 641 c 0,72,73
 196 629 196 629 196 620 c 0,74,75
 196 574 196 574 233 533.5 c 128,-1,76
 270 493 270 493 316 493 c 0,77,78
 330 493 330 493 340 510 c 128,-1,79
 350 527 350 527 350 540 c 0,65,66
511 233 m 0,80,81
 511 290 511 290 470 351 c 0,82,83
 423 422 423 422 356 422 c 0,84,85
 300 422 300 422 248 367 c 128,-1,86
 196 312 196 312 196 257 c 0,87,88
 196 210 196 210 273 164 c 0,89,90
 339 125 339 125 377 125 c 0,91,92
 421 125 421 125 461 150 c 0,93,94
 511 181 511 181 511 233 c 0,80,81
EndSplineSet
EndChar

StartChar: quotesingle
Encoding: 39 39 10
Width: 415
GlyphClass: 1
Flags: W
LayerCount: 2
Fore
SplineSet
307 707 m 0,0,1
 307 649 307 649 240 567 c 128,-1,2
 173 485 173 485 112 473 c 1,3,4
 130 509 130 509 155 544 c 0,5,6
 162 553 162 553 162 595 c 0,7,8
 162 610 162 610 126 646 c 1,9,10
 122 644 122 644 106 632.5 c 128,-1,11
 90 621 90 621 86 621 c 2,12,-1
 71 621 l 1,13,14
 73 641 73 641 133 717 c 0,15,16
 201 803 201 803 239 803 c 0,17,18
 268 803 268 803 289 764 c 0,19,20
 307 732 307 732 307 707 c 0,0,1
EndSplineSet
EndChar

StartChar: parenleft
Encoding: 40 40 11
Width: 504
GlyphClass: 1
Flags: W
LayerCount: 2
Fore
SplineSet
469 761 m 2,0,1
 470 758 470 758 442 722 c 128,-1,2
 414 686 414 686 379 660 c 0,3,4
 339 630 339 630 311 630 c 0,5,6
 299 630 299 630 259 643 c 1,7,8
 227 600 227 600 206.5 534 c 128,-1,9
 186 468 186 468 186 415 c 0,10,11
 186 344 186 344 224.5 266 c 128,-1,12
 263 188 263 188 313 163 c 0,13,14
 330 152 330 152 346 142 c 0,15,16
 375 127 375 127 390 127 c 0,17,18
 392 127 392 127 406 134.5 c 128,-1,19
 420 142 420 142 432 145 c 1,20,-1
 432 133 l 2,21,22
 433 102 433 102 364.5 45.5 c 128,-1,23
 296 -11 296 -11 272 -11 c 0,24,25
 256 -11 256 -11 222 7 c 0,26,27
 203 17 203 17 184 28 c 0,28,29
 121 57 121 57 82 150 c 0,30,31
 51 226 51 226 51 294 c 0,32,33
 51 359 51 359 100 480 c 0,34,35
 151 607 151 607 218 694 c 0,36,37
 296 797 296 797 361 797 c 1,38,39
 392 768 392 768 431 768 c 0,40,41
 444 768 444 768 469 776 c 1,42,-1
 469 761 l 2,0,1
EndSplineSet
EndChar

StartChar: parenright
Encoding: 41 41 12
Width: 612
GlyphClass: 1
Flags: W
LayerCount: 2
Fore
SplineSet
550 475 m 0,0,1
 550 361 550 361 494 247.5 c 128,-1,2
 438 134 438 134 343 52 c 0,3,4
 324 35 324 35 305 18 c 0,5,6
 275 -6 275 -6 260 -6 c 0,7,8
 257 -6 257 -6 220.5 17 c 128,-1,9
 184 40 184 40 149 40 c 0,10,11
 135 40 135 40 115 31 c 128,-1,12
 95 22 95 22 96 22 c 1,13,-1
 83 22 l 1,14,15
 94 65 94 65 156.5 118.5 c 128,-1,16
 219 172 219 172 261 172 c 0,17,18
 286 172 286 172 315.5 161 c 128,-1,19
 345 150 345 150 360 136 c 1,20,21
 417 201 417 201 417 357 c 0,22,23
 417 443 417 443 387 517 c 0,24,25
 343 622 343 622 247 665 c 1,26,27
 226 649 226 649 196 637 c 1,28,29
 187 643 187 643 187 648 c 0,30,31
 187 677 187 677 258.5 738.5 c 128,-1,32
 330 800 330 800 355 800 c 0,33,34
 358 800 358 800 414 765 c 0,35,36
 487 719 487 719 522 628 c 0,37,38
 550 556 550 556 550 475 c 0,0,1
EndSplineSet
EndChar

StartChar: asterisk
Encoding: 42 42 13
Width: 828
GlyphClass: 1
Flags: W
LayerCount: 2
Fore
SplineSet
781 503 m 1,0,1
 755 435 755 435 679 385 c 0,2,3
 608 337 608 337 547 337 c 0,4,5
 495 337 495 337 475 346 c 1,6,7
 452 279 452 279 429 212 c 1,8,9
 389 124 389 124 310 86 c 1,10,11
 366 239 366 239 366 311 c 0,12,13
 366 313 366 313 358 394 c 1,14,15
 329 378 329 378 267.5 308.5 c 128,-1,16
 206 239 206 239 172 222 c 1,17,-1
 159 222 l 1,18,19
 159 223 159 223 160.5 226 c 128,-1,20
 162 229 162 229 162 234 c 0,21,22
 162 256 162 256 116 254 c 0,23,24
 92 254 92 254 72 240 c 1,25,-1
 58 240 l 1,26,27
 124 364 124 364 212 364 c 0,28,29
 251 364 251 364 261 352 c 1,30,-1
 322 413 l 1,31,32
 283 447 283 447 178 530 c 0,33,34
 176 529 176 529 150 510 c 0,35,36
 130 494 130 494 115 493 c 1,37,38
 118 525 118 525 185 587 c 128,-1,39
 252 649 252 649 276 649 c 1,40,41
 325 600 325 600 358 571 c 1,42,43
 359 599 359 599 366 653 c 1,44,45
 331 680 331 680 331 693 c 256,46,47
 331 706 331 706 374.5 751.5 c 128,-1,48
 418 797 418 797 433 797 c 0,49,50
 437 797 437 797 451 782 c 0,51,52
 470 761 470 761 475 757 c 1,53,54
 475 743 475 743 470 715 c 1,55,-1
 472 542 l 1,56,57
 475 544 475 544 565 632 c 0,58,59
 625 689 625 689 667 714 c 1,60,-1
 680 714 l 1,61,62
 680 713 680 713 678.5 707.5 c 128,-1,63
 677 702 677 702 677 698 c 0,64,65
 694 690 694 690 710 690 c 0,66,67
 724 690 724 690 756 711 c 1,68,-1
 769 711 l 1,69,70
 755 672 755 672 704 626 c 128,-1,71
 653 580 653 580 617 580 c 0,72,73
 613 580 613 580 597 583 c 128,-1,74
 581 586 581 586 578 586 c 0,75,76
 571 586 571 586 473 496 c 1,77,78
 541 463 541 463 573 454 c 0,79,80
 601 447 601 447 648 447 c 0,81,82
 699 447 699 447 719 465 c 0,83,84
 750 492 750 492 781 503 c 1,0,1
EndSplineSet
EndChar

StartChar: plus
Encoding: 43 43 14
Width: 708
GlyphClass: 1
Flags: W
LayerCount: 2
Fore
SplineSet
619 407 m 0,0,1
 619 386 619 386 565 334 c 0,2,3
 526 297 526 297 506 284 c 0,4,5
 475 262 475 262 435 240 c 1,6,7
 443 180 443 180 383 104 c 0,8,9
 328 33 328 33 262 1 c 1,10,11
 256 7 256 7 256 9 c 0,12,13
 256 16 256 16 280 50 c 128,-1,14
 304 84 304 84 304 102 c 2,15,-1
 304 214 l 1,16,17
 249 218 249 218 200 224 c 0,18,19
 194 225 194 225 178 236 c 128,-1,20
 162 247 162 247 160 247 c 0,21,22
 156 247 156 247 137.5 234 c 128,-1,23
 119 221 119 221 116 221 c 2,24,-1
 105 221 l 1,25,26
 102 225 102 225 102 230 c 0,27,28
 102 260 102 260 179 323 c 0,29,30
 252 383 252 383 272 383 c 0,31,32
 282 383 282 383 293 370 c 1,33,34
 294 371 294 371 294 434 c 1,35,36
 289 437 289 437 263 455 c 0,37,38
 244 467 244 467 240 467 c 0,39,40
 237 467 237 467 231.5 463 c 128,-1,41
 226 459 226 459 223 460 c 2,42,-1
 210 460 l 1,43,-1
 210 471 l 2,44,45
 210 486 210 486 273.5 546 c 128,-1,46
 337 606 337 606 363 608 c 1,47,48
 367 595 367 595 391 581 c 0,49,50
 419 565 419 565 425 558 c 1,51,-1
 425 453 l 1,52,-1
 435 351 l 2,53,54
 438 349 438 349 454 349 c 0,55,56
 503 349 503 349 548 377 c 0,57,58
 602 410 602 410 616 413 c 0,59,60
 619 413 619 413 619 407 c 0,0,1
EndSplineSet
EndChar

StartChar: comma
Encoding: 44 44 15
Width: 440
GlyphClass: 1
Flags: W
LayerCount: 2
Fore
SplineSet
298 79 m 0,0,1
 298 16 298 16 257.5 -44 c 128,-1,2
 217 -104 217 -104 146 -143 c 1,3,-1
 144 -135 l 1,4,5
 157 -112 157 -112 171 -90 c 0,6,7
 187 -59 187 -59 187 -21 c 0,8,9
 187 2 187 2 182 11 c 0,10,11
 180 15 180 15 166 24 c 1,12,13
 145 10 145 10 133 10 c 0,14,15
 132 12 132 12 132 15 c 0,16,17
 132 36 132 36 186.5 86.5 c 128,-1,18
 241 137 241 137 263 137 c 0,19,20
 298 137 298 137 298 79 c 0,0,1
EndSplineSet
EndChar

StartChar: hyphen
Encoding: 45 45 16
AltUni2: 002010.ffffffff.0 002010.ffffffff.0
Width: 559
GlyphClass: 1
Flags: W
LayerCount: 2
Fore
SplineSet
502 452 m 1,0,1
 481 390 481 390 404 334.5 c 128,-1,2
 327 279 327 279 263 279 c 1,3,-1
 124 319 l 1,4,5
 77 292 77 292 77 292 c 1,6,-1
 63 292 l 1,7,-1
 63 303 l 2,8,9
 63 325 63 325 132.5 390 c 128,-1,10
 202 455 202 455 223 455 c 0,11,12
 226 455 226 455 302.5 433 c 128,-1,13
 379 411 379 411 382 411 c 0,14,15
 422 411 422 411 456 431.5 c 128,-1,16
 490 452 490 452 489 452 c 1,17,-1
 502 452 l 1,0,1
EndSplineSet
EndChar

StartChar: period
Encoding: 46 46 17
Width: 402
GlyphClass: 1
Flags: W
LayerCount: 2
Fore
SplineSet
298 95 m 1,0,1
 299 80 299 80 254 33 c 128,-1,2
 209 -14 209 -14 190 -14 c 0,3,4
 182 -14 182 -14 167.5 3 c 128,-1,5
 153 20 153 20 146 20 c 1,6,7
 147 20 147 20 122 10 c 1,8,9
 116 14 116 14 116 17 c 0,10,11
 116 38 116 38 160.5 74.5 c 128,-1,12
 205 111 205 111 225 111 c 0,13,14
 230 111 230 111 263 78 c 1,15,16
 274 87 274 87 288 95 c 1,17,-1
 298 95 l 1,0,1
EndSplineSet
EndChar

StartChar: slash
Encoding: 47 47 18
Width: 708
GlyphClass: 1
Flags: W
LayerCount: 2
Fore
SplineSet
660 784 m 2,0,1
 661 781 661 781 626 715 c 0,2,3
 587 643 587 643 566 612 c 0,4,5
 565 610 565 610 397 350 c 0,6,7
 285 178 285 178 205 76 c 0,8,9
 191 58 191 58 162 32 c 0,10,11
 126 0 126 0 104 -9 c 1,12,-1
 91 -9 l 1,13,-1
 91 3 l 2,14,15
 91 10 91 10 218 197 c 0,16,17
 357 403 357 403 382 447 c 0,18,19
 429 519 429 519 486 621 c 1,20,21
 497 651 497 651 552 714 c 0,22,23
 612 782 612 782 648 797 c 1,24,-1
 660 797 l 1,25,-1
 660 784 l 2,0,1
EndSplineSet
EndChar

StartChar: zero
Encoding: 48 48 19
Width: 734
GlyphClass: 1
Flags: W
LayerCount: 2
Fore
SplineSet
631 421 m 0,0,1
 631 356 631 356 628 333 c 0,2,3
 625 305 625 305 624 295 c 0,4,5
 623 232 623 232 496 112 c 0,6,7
 366 -10 366 -10 293 -10 c 0,8,9
 271 -10 271 -10 262 -7 c 0,10,11
 249 -3 249 -3 239 -2 c 0,12,13
 212 11 212 11 175 51 c 0,14,15
 133 99 133 99 111 152 c 0,16,17
 87 209 87 209 87 223 c 2,18,-1
 87 459 l 2,19,20
 87 507 87 507 167 595 c 0,21,22
 236 670 236 670 325 736 c 128,-1,23
 414 802 414 802 440 798 c 1,24,25
 565 714 565 714 605 610 c 0,26,27
 631 544 631 544 631 421 c 0,0,1
462 269 m 0,28,29
 462 331 462 331 454 360 c 1,30,31
 455 376 455 376 453 397 c 1,32,33
 445 412 445 412 435 446 c 0,34,35
 427 474 427 474 406 506 c 0,36,37
 388 535 388 535 348 574 c 0,38,39
 299 621 299 621 276 621 c 0,40,41
 271 621 271 621 263.5 612 c 128,-1,42
 256 603 256 603 256 599 c 2,43,-1
 256 392 l 2,44,45
 256 346 256 346 318 255 c 0,46,47
 385 159 385 159 435 159 c 2,48,-1
 453 159 l 1,49,50
 454 172 454 172 458 215 c 0,51,52
 462 255 462 255 462 269 c 0,28,29
EndSplineSet
EndChar

StartChar: one
Encoding: 49 49 20
Width: 458
GlyphClass: 1
Flags: W
LayerCount: 2
Fore
SplineSet
398 168 m 1,0,1
 373 114 373 114 312 56 c 0,2,3
 245 -9 245 -9 204 -4 c 1,4,5
 196 10 196 10 172 26 c 0,6,7
 139 48 139 48 137 49 c 2,8,-1
 137 175 l 2,9,10
 135 184 135 184 132 193 c 0,11,12
 127 210 127 210 129 222 c 2,13,-1
 127 564 l 1,14,15
 112 552 112 552 97 540 c 0,16,17
 66 517 66 517 59 517 c 2,18,-1
 47 517 l 1,19,-1
 47 535 l 2,20,21
 47 560 47 560 152.5 676.5 c 128,-1,22
 258 793 258 793 295 800 c 1,23,-1
 307 800 l 1,24,-1
 307 367 l 2,25,26
 307 364 307 364 311.5 359.5 c 128,-1,27
 316 355 316 355 316 351 c 2,28,-1
 316 226 l 1,29,30
 371 185 371 185 398 168 c 1,0,1
EndSplineSet
EndChar

StartChar: two
Encoding: 50 50 21
Width: 772
GlyphClass: 1
Flags: W
LayerCount: 2
Fore
SplineSet
804 231 m 2,0,1
 804 197 804 197 714 126 c 0,2,3
 642 69 642 69 615 57 c 0,4,5
 567 36 567 36 545 34 c 0,6,7
 543 33 543 33 463 33 c 0,8,9
 401 33 401 33 361 37 c 128,-1,10
 321 41 321 41 320 41 c 0,11,12
 317 41 317 41 283 36 c 128,-1,13
 249 31 249 31 247 31 c 0,14,15
 244 31 244 31 224.5 32 c 128,-1,16
 205 33 205 33 201 33 c 0,17,18
 161 33 161 33 112 18 c 0,19,20
 79 5 79 5 45 -7 c 1,21,-1
 26 -3 l 1,22,23
 61 120 61 120 335 344 c 1,24,25
 356 368 356 368 400 410 c 1,26,27
 440 442 440 442 452 456 c 0,28,29
 470 478 470 478 470 504 c 0,30,31
 470 552 470 552 425 590 c 0,32,33
 383 625 383 625 341 625 c 2,34,-1
 270 625 l 1,35,36
 267 585 267 585 204 520 c 0,37,38
 145 459 145 459 96 438 c 1,39,40
 91 448 91 448 73 469 c 1,41,-1
 73 539 l 2,42,43
 73 578 73 578 203.5 688.5 c 128,-1,44
 334 799 334 799 379 799 c 0,45,46
 389 799 389 799 418 799 c 0,47,48
 447 800 447 800 449 800 c 0,49,50
 539 800 539 800 585 775 c 0,51,52
 645 743 645 743 645 664 c 0,53,54
 645 593 645 593 571 499 c 0,55,56
 516 429 516 429 409 334 c 0,57,58
 327 264 327 264 246 194 c 1,59,60
 247 193 247 193 254 193 c 0,61,62
 257 193 257 193 283 201 c 128,-1,63
 309 209 309 209 312 209 c 2,64,-1
 417 209 l 2,65,66
 419 209 419 209 435.5 213 c 128,-1,67
 452 217 452 217 480 217 c 0,68,69
 484 217 484 217 552 213 c 128,-1,70
 620 209 620 209 623 209 c 0,71,72
 694 209 694 209 709 212.5 c 128,-1,73
 724 216 724 216 757 232 c 0,74,75
 787 246 787 246 790 246 c 2,76,-1
 804 246 l 1,77,-1
 804 231 l 2,0,1
EndSplineSet
EndChar

StartChar: three
Encoding: 51 51 22
Width: 850
GlyphClass: 1
Flags: W
LayerCount: 2
Fore
SplineSet
774 401 m 0,0,1
 774 393 774 393 775 382 c 128,-1,2
 776 371 776 371 776 365 c 0,3,4
 776 340 776 340 755 289 c 0,5,6
 719 206 719 206 614 101 c 0,7,8
 494 -19 494 -19 412 -19 c 1,9,10
 413 -19 413 -19 301.5 12 c 128,-1,11
 190 43 190 43 144 43 c 0,12,13
 121 43 121 43 107 38 c 0,14,15
 81 26 81 26 57 20 c 1,16,-1
 42 24 l 1,17,18
 149 211 149 211 300 211 c 0,19,20
 328 211 328 211 447.5 182.5 c 128,-1,21
 567 154 567 154 566 154 c 1,22,23
 606 154 606 154 606 249 c 0,24,25
 606 303 606 303 555 349 c 0,26,27
 507 392 507 392 458 392 c 0,28,29
 441 392 441 392 370.5 376 c 128,-1,30
 300 360 300 360 290 355 c 0,31,32
 266 341 266 341 218 314 c 1,33,-1
 205 318 l 1,34,35
 220 372 220 372 281 432 c 0,36,37
 430 581 430 581 454 607 c 1,38,-1
 230 609 l 1,39,40
 205 616 205 616 201 616 c 256,41,42
 197 616 197 616 161 589 c 128,-1,43
 125 562 125 562 122 562 c 2,44,-1
 106 562 l 1,45,46
 103 566 103 566 103 571 c 0,47,48
 103 601 103 601 194.5 700.5 c 128,-1,49
 286 800 286 800 318 800 c 0,50,51
 321 800 321 800 345 792 c 0,52,53
 376 782 376 782 396 777 c 1,54,-1
 672 773 l 1,55,56
 656 720 656 720 569 645 c 0,57,58
 472 562 472 562 453 528 c 1,59,60
 478 537 478 537 530 548 c 0,61,62
 587 560 587 560 611 560 c 0,63,64
 650 560 650 560 700 531 c 0,65,66
 757 498 757 498 773 453 c 0,67,68
 774 450 774 450 774 401 c 0,0,1
EndSplineSet
EndChar

StartChar: four
Encoding: 52 52 23
Width: 743
GlyphClass: 1
Flags: W
LayerCount: 2
Fore
SplineSet
727 350 m 2,0,1
 727 333 727 333 673 278 c 0,2,3
 644 251 644 251 616 223 c 0,4,5
 613 216 613 216 613 199 c 0,6,7
 613 179 613 179 614 178 c 0,8,9
 619 171 619 171 637 157 c 0,10,11
 650 148 650 148 650 134 c 0,12,13
 650 97 650 97 574 33 c 0,14,15
 504 -26 504 -26 485 -26 c 1,16,17
 482 -22 482 -22 457 2 c 0,18,19
 437 20 437 20 437 24 c 0,20,21
 437 27 437 27 440.5 34.5 c 128,-1,22
 444 42 444 42 444 45 c 0,23,24
 449 74 449 74 453 123 c 1,25,-1
 453 189 l 1,26,-1
 312 189 l 2,27,28
 309 189 309 189 295 185 c 128,-1,29
 281 181 281 181 278 181 c 2,30,-1
 175 181 l 1,31,32
 177 181 177 181 76 158 c 1,33,-1
 51 162 l 1,34,35
 88 324 88 324 329 617 c 1,36,37
 309 631 309 631 289 631 c 0,38,39
 253 631 253 631 183 588 c 0,40,41
 105 538 105 538 90 534 c 1,42,43
 117 616 117 616 244 709 c 0,44,45
 368 800 368 800 443 800 c 0,46,47
 469 800 469 800 486 790 c 0,48,49
 514 775 514 775 520 773 c 1,50,-1
 520 757 l 1,51,52
 520 757 520 757 405 621 c 0,53,54
 286 482 286 482 272 436 c 1,55,56
 255 400 255 400 231 332 c 1,57,58
 243 334 243 334 273 342 c 0,59,60
 300 349 300 349 302 349 c 2,61,-1
 407 349 l 1,62,63
 406 349 406 349 459 357 c 0,64,65
 460 359 460 359 460 367 c 0,66,67
 460 382 460 382 455 415 c 128,-1,68
 450 448 450 448 450 448 c 1,69,70
 450 488 450 488 511.5 553 c 128,-1,71
 573 618 573 618 618 629 c 1,72,73
 623 606 623 606 629 555 c 0,74,75
 632 502 632 502 632 462 c 0,76,77
 632 461 632 461 627 422 c 128,-1,78
 622 383 622 383 621 357 c 1,79,-1
 687 357 l 2,80,81
 689 357 689 357 694 361 c 128,-1,82
 699 365 699 365 703 365 c 2,83,-1
 727 365 l 1,84,-1
 727 350 l 2,0,1
EndSplineSet
EndChar

StartChar: five
Encoding: 53 53 24
Width: 792
GlyphClass: 1
Flags: W
LayerCount: 2
Fore
SplineSet
849 822 m 0,0,1
 849 792 849 792 774 715 c 0,2,3
 704 642 704 642 677.5 630 c 128,-1,4
 651 618 651 618 626 606 c 0,5,6
 576 585 576 585 551 585 c 1,7,8
 565 585 565 585 471 587 c 0,9,10
 426 588 426 588 416 603 c 1,11,12
 406 589 406 589 395 576 c 0,13,14
 383 558 383 558 382 545 c 1,15,16
 402 553 402 553 457 553 c 0,17,18
 548 553 548 553 611 492 c 128,-1,19
 674 431 674 431 674 345 c 0,20,21
 674 273 674 273 602 185 c 0,22,23
 543 112 543 112 456 51 c 0,24,25
 378 -6 378 -6 344 -8.5 c 128,-1,26
 310 -11 310 -11 256 -11 c 0,27,28
 248 -11 248 -11 186.5 14 c 128,-1,29
 125 39 125 39 126 39 c 1,30,31
 123 39 123 39 103 34 c 128,-1,32
 83 29 83 29 80 29 c 256,33,34
 77 29 77 29 71.5 30.5 c 128,-1,35
 66 32 66 32 63 32 c 0,36,37
 59 32 59 32 43 26 c 0,38,39
 24 18 24 18 13 16 c 1,40,41
 10 20 10 20 10 26 c 0,42,43
 10 56 10 56 76 120 c 0,44,45
 131 174 131 174 151 184 c 0,46,47
 167 192 167 192 193 203 c 1,48,49
 275 214 275 214 286 214 c 1,50,51
 283 214 283 214 346 189 c 128,-1,52
 409 164 409 164 450 164 c 0,53,54
 488 164 488 164 502 171 c 1,55,56
 508 259 508 259 442 322 c 0,57,58
 381 381 381 381 302 381 c 0,59,60
 248 381 248 381 196 357 c 1,61,-1
 178 361 l 1,62,63
 176 371 176 371 229 447 c 0,64,65
 289 533 289 533 302 573 c 0,66,67
 330 652 330 652 396 723 c 0,68,69
 468 799 468 799 528 799 c 1,70,71
 521 799 521 799 571 779 c 128,-1,72
 621 759 621 759 677 759 c 0,73,74
 735 759 735 759 759 777 c 0,75,76
 812 817 812 817 842 831 c 1,77,78
 849 824 849 824 849 822 c 0,0,1
EndSplineSet
EndChar

StartChar: six
Encoding: 54 54 25
Width: 813
GlyphClass: 1
Flags: W
LayerCount: 2
Fore
SplineSet
737 403 m 0,0,1
 737 359 737 359 706 313 c 0,2,3
 685 281 685 281 623 214 c 1,4,5
 612 193 612 193 580 151 c 1,6,7
 501 69 501 69 451 33 c 0,8,9
 376 -21 376 -21 312 -21 c 0,10,11
 267 -21 267 -21 227 -2 c 0,12,13
 203 12 203 12 179 25 c 0,14,15
 127 51 127 51 105 82 c 0,16,17
 90 103 90 103 76 151 c 0,18,19
 75 154 75 154 75 228 c 0,20,21
 75 303 75 303 82 327 c 0,22,23
 95 367 95 367 108 407 c 0,24,25
 131 493 131 493 243 621 c 0,26,27
 358 754 358 754 440 780 c 0,28,29
 442 781 442 781 455 789.5 c 128,-1,30
 468 798 468 798 476 798 c 1,31,32
 473 798 473 798 502 782.5 c 128,-1,33
 531 767 531 767 557 767 c 0,34,35
 591 767 591 767 609 775 c 0,36,37
 643 791 643 791 670 798 c 0,38,39
 673 795 673 795 673 788 c 0,40,41
 673 744 673 744 585 675 c 0,42,43
 508 614 508 614 483 610 c 1,44,45
 472 604 472 604 448 596 c 1,46,47
 426 593 426 593 376 593 c 0,48,49
 360 593 360 593 343 606 c 128,-1,50
 326 619 326 619 324 619 c 0,51,52
 291 619 291 619 247 439 c 1,53,-1
 248 358 l 1,54,55
 313 448 313 448 403 504 c 0,56,57
 488 556 488 556 561 556 c 0,58,59
 617 556 617 556 673 515 c 0,60,61
 737 468 737 468 737 403 c 0,0,1
565 249 m 0,62,63
 565 304 565 304 500 346 c 0,64,65
 445 382 445 382 401 382 c 0,66,67
 360 382 360 382 331 360 c 0,68,69
 296 327 296 327 260 295 c 1,70,71
 269 242 269 242 347 194 c 0,72,73
 418 150 418 150 468 150 c 0,74,75
 493 150 493 150 507 156 c 0,76,77
 517 161 517 161 541 199 c 128,-1,78
 565 237 565 237 565 249 c 0,62,63
EndSplineSet
EndChar

StartChar: seven
Encoding: 55 55 26
Width: 765
GlyphClass: 1
Flags: W
LayerCount: 2
Fore
SplineSet
820 808 m 1,0,1
 822 785 822 785 762 725 c 0,2,3
 757 720 757 720 673 642 c 0,4,5
 627 599 627 599 482 417 c 1,6,7
 502 409 502 409 522.5 401 c 128,-1,8
 543 393 543 393 574 393 c 0,9,10
 609 393 609 393 622 404 c 0,11,12
 647 424 647 424 669 434 c 1,13,-1
 688 430 l 1,14,15
 663 358 663 358 573 286.5 c 128,-1,16
 483 215 483 215 413 215 c 0,17,18
 376 215 376 215 328 229 c 1,19,20
 296 160 296 160 241 94 c 0,21,22
 177 16 177 16 122 -7 c 1,23,-1
 103 -2 l 1,24,25
 125 89 125 89 268 250 c 1,26,27
 254 268 254 268 224 272 c 0,28,29
 219 273 219 273 181 273 c 0,30,31
 141 273 141 273 137 272 c 0,32,33
 120 268 120 268 70 240 c 1,34,-1
 53 244 l 1,35,36
 68 299 68 299 146 369 c 128,-1,37
 224 439 224 439 278 450 c 0,38,39
 283 451 283 451 342 451 c 0,40,41
 404 451 404 451 423 442 c 1,42,-1
 548 583 l 1,43,44
 496 564 496 564 444 546 c 0,45,46
 436 544 436 544 360 544 c 0,47,48
 292 544 292 544 241 558 c 0,49,50
 207 568 207 568 178 584 c 0,51,52
 154 599 154 599 152 599 c 0,53,54
 124 572 124 572 105 555 c 0,55,56
 52 508 52 508 21 495 c 1,57,-1
 4 498 l 1,58,59
 1 526 1 526 127 657 c 128,-1,60
 253 788 253 788 291 788 c 0,61,62
 293 788 293 788 328 771 c 0,63,64
 371 750 371 750 410 739 c 0,65,66
 467 722 467 722 523 722 c 0,67,68
 621 722 621 722 795 812 c 1,69,-1
 820 808 l 1,0,1
EndSplineSet
EndChar

StartChar: eight
Encoding: 56 56 27
Width: 756
GlyphClass: 1
Flags: W
LayerCount: 2
Fore
SplineSet
670 392 m 0,0,1
 670 346 670 346 606 247 c 128,-1,2
 542 148 542 148 464 75 c 0,3,4
 374 -9 374 -9 314 -9 c 0,5,6
 234 -9 234 -9 164 38 c 0,7,8
 88 90 88 90 88 165 c 0,9,10
 88 200 88 200 100 220 c 0,11,12
 127 255 127 255 154 289 c 1,13,14
 143 290 143 290 120 299 c 0,15,16
 68 328 68 328 50 364 c 0,17,18
 37 390 37 390 37 437 c 0,19,20
 37 552 37 552 152 678 c 0,21,22
 263 800 263 800 353 800 c 0,23,24
 394 800 394 800 450 763 c 0,25,26
 503 728 503 728 512 701 c 0,27,28
 520 684 520 684 528 667 c 0,29,30
 531 660 531 660 531 621 c 0,31,32
 531 579 531 579 521 562 c 1,33,34
 552 543 552 543 582 524 c 0,35,36
 627 491 627 491 654 441 c 0,37,38
 670 413 670 413 670 392 c 0,0,1
372 459 m 1,39,40
 377 470 377 470 377 483 c 0,41,42
 377 534 377 534 320.5 587.5 c 128,-1,43
 264 641 264 641 216 641 c 0,44,45
 195 641 195 641 195 580 c 0,46,47
 195 532 195 532 230 492 c 0,48,49
 268 449 268 449 323 449 c 0,50,51
 342 449 342 449 372 459 c 1,39,40
509 248 m 0,52,53
 509 269 509 269 460 329 c 0,54,55
 409 393 409 393 381 393 c 0,56,57
 379 393 379 393 329 356 c 0,58,59
 274 314 274 314 246 300 c 1,60,61
 261 237 261 237 327 191 c 0,62,63
 390 147 390 147 445 154 c 1,64,65
 454 167 454 167 489 206 c 0,66,67
 509 230 509 230 509 248 c 0,52,53
EndSplineSet
EndChar

StartChar: nine
Encoding: 57 57 28
Width: 722
GlyphClass: 1
Flags: W
LayerCount: 2
Fore
SplineSet
653 763 m 0,0,1
 653 762 653 762 625.5 720 c 128,-1,2
 598 678 598 678 598 678 c 2,3,4
 598 675 598 675 601.5 652.5 c 128,-1,5
 605 630 605 630 605 628 c 2,6,-1
 605 553 l 2,7,8
 605 550 605 550 608 544 c 128,-1,9
 611 538 611 538 611 535 c 2,10,-1
 611 333 l 2,11,12
 611 332 611 332 614.5 320 c 128,-1,13
 618 308 618 308 618 276 c 0,14,15
 618 232 618 232 610 221 c 0,16,17
 582 181 582 181 498 95 c 0,18,19
 400 -7 400 -7 374 -7 c 0,20,21
 371 -7 371 -7 341 11 c 0,22,23
 304 33 304 33 272 45 c 0,24,25
 225 63 225 63 181 63 c 0,26,27
 179 63 179 63 149.5 58 c 128,-1,28
 120 53 120 53 117 53 c 0,29,30
 115 53 115 53 111 54.5 c 128,-1,31
 107 56 107 56 105 56 c 0,32,33
 102 56 102 56 90.5 49 c 128,-1,34
 79 42 79 42 76 42 c 2,35,-1
 60 42 l 2,36,37
 59 42 59 42 58 43 c 128,-1,38
 57 44 57 44 57 49 c 0,39,40
 57 80 57 80 135 146 c 0,41,42
 209 209 209 209 232 208 c 0,43,44
 242 207 242 207 280 210 c 128,-1,45
 318 213 318 213 318 213 c 1,46,47
 393 213 393 213 462 176 c 1,48,49
 461 175 461 175 461 189 c 2,50,-1
 459 376 l 1,51,52
 447 355 447 355 392 311 c 0,53,54
 333 262 333 262 310 262 c 0,55,56
 228 262 228 262 177.5 312 c 128,-1,57
 127 362 127 362 127 436 c 0,58,59
 127 532 127 532 199.5 627.5 c 128,-1,60
 272 723 272 723 400 798 c 1,61,62
 404 767 404 767 458 752 c 0,63,64
 495 742 495 742 542 742 c 0,65,66
 566 742 566 742 602 756 c 128,-1,67
 638 770 638 770 638 770 c 1,68,-1
 650 770 l 2,69,70
 651 770 651 770 652 769 c 128,-1,71
 653 768 653 768 653 763 c 0,0,1
454 423 m 1,72,73
 454 440 454 440 450 474 c 0,74,75
 448 492 448 492 447 509 c 2,76,-1
 447 591 l 1,77,78
 436 591 436 591 418 591 c 0,79,80
 398 592 398 592 399 592 c 1,81,82
 338 592 338 592 278 612 c 1,83,-1
 278 535 l 2,84,85
 277 507 277 507 331.5 461 c 128,-1,86
 386 415 386 415 425 415 c 0,87,88
 445 415 445 415 454 423 c 1,72,73
EndSplineSet
EndChar

StartChar: colon
Encoding: 58 58 29
Width: 356
GlyphClass: 1
Flags: W
LayerCount: 2
Fore
SplineSet
263 265 m 1,0,1
 265 249 265 249 220 202 c 128,-1,2
 175 155 175 155 155 155 c 0,3,4
 148 155 148 155 133 172 c 128,-1,5
 118 189 118 189 112 189 c 2,6,7
 112 189 112 189 87 179 c 1,8,9
 82 184 82 184 82 187 c 0,10,11
 82 208 82 208 126.5 244 c 128,-1,12
 171 280 171 280 191 280 c 0,13,14
 196 280 196 280 228 248 c 1,15,16
 239 256 239 256 254 265 c 1,17,-1
 263 265 l 1,0,1
264 562 m 1,18,19
 266 546 266 546 221 499 c 128,-1,20
 176 452 176 452 157 452 c 0,21,22
 149 452 149 452 134 469.5 c 128,-1,23
 119 487 119 487 113 487 c 2,24,25
 113 487 113 487 89 476 c 1,26,27
 83 481 83 481 83 484 c 0,28,29
 83 505 83 505 127.5 541.5 c 128,-1,30
 172 578 172 578 192 578 c 0,31,32
 197 578 197 578 230 545 c 1,33,34
 240 553 240 553 255 562 c 1,35,-1
 264 562 l 1,18,19
EndSplineSet
EndChar

StartChar: semicolon
Encoding: 59 59 30
Width: 377
GlyphClass: 1
Flags: W
LayerCount: 2
Fore
SplineSet
274 79 m 0,0,1
 274 16 274 16 234 -44 c 128,-1,2
 194 -104 194 -104 123 -143 c 1,3,-1
 120 -135 l 1,4,5
 133 -112 133 -112 147 -90 c 0,6,7
 163 -59 163 -59 163 -21 c 0,8,9
 163 2 163 2 158 11 c 0,10,11
 156 15 156 15 143 24 c 1,12,13
 122 10 122 10 110 10 c 0,14,15
 108 12 108 12 108 15 c 0,16,17
 108 36 108 36 162.5 86.5 c 128,-1,18
 217 137 217 137 239 137 c 0,19,20
 274 137 274 137 274 79 c 0,0,1
273 431 m 1,21,22
 274 416 274 416 229 368.5 c 128,-1,23
 184 321 184 321 165 321 c 0,24,25
 157 321 157 321 142.5 338.5 c 128,-1,26
 128 356 128 356 121 356 c 1,27,28
 122 356 122 356 97 346 c 1,29,30
 91 350 91 350 91 353 c 0,31,32
 91 374 91 374 135.5 410.5 c 128,-1,33
 180 447 180 447 200 447 c 0,34,35
 205 447 205 447 238 414 c 1,36,37
 249 423 249 423 263 431 c 1,38,-1
 273 431 l 1,21,22
EndSplineSet
EndChar

StartChar: less
Encoding: 60 60 31
Width: 703
GlyphClass: 1
Flags: W
LayerCount: 2
Fore
SplineSet
647 157 m 1,0,1
 626 99 626 99 561.5 47 c 128,-1,2
 497 -5 497 -5 443 -5 c 0,3,4
 351 -5 351 -5 238 106 c 1,5,6
 148 201 148 201 57 296 c 1,7,8
 53 330 53 330 178 474 c 0,9,10
 204 505 204 505 260 585 c 128,-1,11
 316 665 316 665 350 704 c 0,12,13
 404 766 404 766 458 797 c 1,14,-1
 472 793 l 1,15,16
 469 772 469 772 461 762 c 0,17,18
 262 517 262 517 203 427 c 1,19,20
 293 333 293 333 382 240 c 1,21,22
 491 138 491 138 571 138 c 0,23,24
 598 138 598 138 631 157 c 1,25,-1
 647 157 l 1,0,1
EndSplineSet
EndChar

StartChar: equal
Encoding: 61 61 32
Width: 646
GlyphClass: 1
Flags: W
LayerCount: 2
Fore
SplineSet
551 567 m 1,0,1
 524 500 524 500 453 459 c 0,2,3
 392 423 392 423 331 423 c 0,4,5
 288 423 288 423 259 432.5 c 128,-1,6
 230 442 230 442 217 442 c 0,7,8
 208 442 208 442 196 433 c 0,9,10
 175 418 175 418 164 412 c 1,11,-1
 153 412 l 1,12,-1
 153 422 l 2,13,14
 153 438 153 438 212 494 c 0,15,16
 263 542 263 542 279 553 c 0,17,18
 292 561 292 561 310 561 c 0,19,20
 334 561 334 561 361.5 551.5 c 128,-1,21
 389 542 389 542 436 542 c 0,22,23
 467 542 467 542 472 543 c 0,24,25
 485 546 485 546 538 567 c 1,26,-1
 551 567 l 1,0,1
558 367 m 2,27,28
 558 338 558 338 477 283 c 0,29,30
 403 232 403 232 385 232 c 0,31,32
 372 231 372 231 342 228.5 c 128,-1,33
 312 226 312 226 310 226 c 0,34,35
 261 226 261 226 211.5 242.5 c 128,-1,36
 162 259 162 259 163 259 c 0,37,38
 166 259 166 259 131 238 c 1,39,-1
 120 241 l 1,40,41
 122 259 122 259 174 316 c 0,42,43
 230 377 230 377 262 377 c 0,44,45
 266 377 266 377 315 361 c 128,-1,46
 364 345 364 345 418 345 c 0,47,48
 459 345 459 345 488 351 c 0,49,50
 499 353 499 353 521.5 366.5 c 128,-1,51
 544 380 544 380 546 380 c 2,52,-1
 558 380 l 1,53,-1
 558 367 l 2,27,28
EndSplineSet
EndChar

StartChar: greater
Encoding: 62 62 33
Width: 754
GlyphClass: 1
Flags: W
LayerCount: 2
Fore
SplineSet
699 508 m 1,0,1
 697 480 697 480 642 425 c 0,2,3
 599 383 599 383 555 341 c 1,4,5
 475 253 475 253 387 142 c 0,6,7
 312 49 312 49 290 28 c 0,8,9
 253 -9 253 -9 219 -8 c 1,10,11
 216 14 216 14 333 150 c 0,12,13
 500 344 500 344 520 371 c 1,14,15
 441 419 441 419 372 497 c 0,16,17
 282 598 282 598 275 604 c 0,18,19
 223 650 223 650 153 650 c 0,20,21
 142 650 142 650 131.5 650 c 128,-1,22
 121 650 121 650 93 650 c 1,23,24
 127 717 127 717 178 758.5 c 128,-1,25
 229 800 229 800 281 800 c 0,26,27
 365 800 365 800 427 742 c 1,28,29
 481 681 481 681 534 619 c 0,30,31
 607 541 607 541 699 508 c 1,0,1
EndSplineSet
EndChar

StartChar: question
Encoding: 63 63 34
Width: 591
GlyphClass: 1
Flags: W
LayerCount: 2
Fore
SplineSet
530 619 m 0,0,1
 530 552 530 552 486 490 c 0,2,3
 458 449 458 449 361 351 c 1,4,5
 380 343 380 343 412 324 c 1,6,7
 409 308 409 308 362 253 c 0,8,9
 309 191 309 191 281 191 c 0,10,11
 279 191 279 191 264 200 c 128,-1,12
 249 209 249 209 239 212 c 2,13,14
 239 212 239 212 213 214 c 0,15,16
 195 215 195 215 181 227 c 1,17,18
 231 309 231 309 290 361 c 0,19,20
 328 391 328 391 366 422 c 0,21,22
 394 449 394 449 394 497 c 0,23,24
 394 566 394 566 358 599 c 0,25,26
 328 628 328 628 234 658 c 1,27,28
 226 653 226 653 226 637 c 0,29,30
 226 630 226 630 229 607 c 128,-1,31
 232 584 232 584 232 569 c 0,32,33
 232 553 232 553 229 538 c 0,34,35
 225 515 225 515 177 469 c 128,-1,36
 129 423 129 423 99 411 c 1,37,38
 88 470 88 470 88 509 c 256,39,40
 88 548 88 548 91 555 c 0,41,42
 101 577 101 577 194 682 c 0,43,44
 297 800 297 800 327 800 c 0,45,46
 408 800 408 800 469 747.5 c 128,-1,47
 530 695 530 695 530 619 c 0,0,1
423 131 m 0,48,49
 423 97 423 97 349 36 c 0,50,51
 279 -23 279 -23 252 -23 c 0,52,53
 239 -23 239 -23 209.5 -7 c 128,-1,54
 180 9 180 9 176 9 c 0,55,56
 175 9 175 9 159 2 c 128,-1,57
 143 -5 143 -5 134 -4 c 1,58,59
 125 16 125 16 194 81 c 128,-1,60
 263 146 263 146 293 146 c 0,61,62
 312 146 312 146 339 130 c 128,-1,63
 366 114 366 114 371 114 c 0,64,65
 372 114 372 114 392.5 126.5 c 128,-1,66
 413 139 413 139 419 140 c 0,67,68
 423 137 423 137 423 131 c 0,48,49
EndSplineSet
EndChar

StartChar: at
Encoding: 64 64 35
Width: 979
GlyphClass: 1
Flags: W
LayerCount: 2
Fore
SplineSet
925 259 m 2,0,1
 925 231 925 231 854 183 c 0,2,3
 791 140 791 140 778 140 c 0,4,5
 751 140 751 140 730 159 c 1,6,7
 677 99 677 99 609 51 c 0,8,9
 528 -6 528 -6 479 -6 c 0,10,11
 475 -6 475 -6 418 3 c 0,12,13
 358 13 358 13 348 14 c 0,14,15
 216 24 216 24 141 117 c 0,16,17
 74 201 74 201 74 321 c 0,18,19
 74 516 74 516 208 659 c 0,20,21
 339 798 339 798 509 798 c 1,22,23
 508 798 508 798 555.5 792.5 c 128,-1,24
 603 787 603 787 623 787 c 0,25,26
 700 787 700 787 761 693 c 0,27,28
 813 612 813 612 813 543 c 256,29,30
 813 474 813 474 713 354 c 0,31,32
 621 243 621 243 544 201 c 1,33,34
 540 205 540 205 546 217 c 1,35,36
 521 235 521 235 471 277 c 1,37,38
 394 198 394 198 336 198 c 0,39,40
 292 198 292 198 267 246 c 0,41,42
 247 284 247 284 247 321 c 0,43,44
 247 397 247 397 306 471 c 128,-1,45
 365 545 365 545 456 583 c 1,46,47
 464 573 464 573 484 562.5 c 128,-1,48
 504 552 504 552 519 552 c 0,49,50
 525 552 525 552 539.5 555.5 c 128,-1,51
 554 559 554 559 562 559 c 0,52,53
 569 559 569 559 574 558 c 1,54,55
 565 546 565 546 556 527 c 1,56,-1
 556 376 l 1,57,58
 582 356 582 356 633 316 c 1,59,60
 713 398 713 398 713 457 c 0,61,62
 713 591 713 591 612 654 c 0,63,64
 536 701 536 701 422 701 c 0,65,66
 378 701 378 701 330 683 c 0,67,68
 288 666 288 666 246 648 c 0,69,70
 211 633 211 633 190 537 c 0,71,72
 174 464 174 464 174 406 c 0,73,74
 174 286 174 286 235 210 c 0,75,76
 303 127 303 127 437 111 c 0,77,78
 468 105 468 105 498 100 c 0,79,80
 556 91 556 91 565 91 c 0,81,82
 607 91 607 91 655 131 c 0,83,84
 673 146 673 146 737 213 c 0,85,86
 785 263 785 263 815 277 c 1,87,88
 816 265 816 265 813 260 c 1,89,90
 848 237 848 237 861 237 c 0,91,92
 868 237 868 237 913 271 c 1,93,-1
 925 271 l 1,94,-1
 925 259 l 2,0,1
456 309 m 1,95,-1
 456 457 l 1,96,97
 444 455 444 455 433 455 c 0,98,99
 399 455 399 455 363 481 c 1,100,101
 346 464 346 464 346 405 c 0,102,103
 346 370 346 370 363 337 c 0,104,105
 384 295 384 295 422 295 c 0,106,107
 446 295 446 295 456 309 c 1,95,-1
EndSplineSet
EndChar

StartChar: A
Encoding: 65 65 36
Width: 818
GlyphClass: 1
Flags: W
LayerCount: 2
Fore
SplineSet
819 207 m 0,0,1
 819 175 819 175 725.5 81.5 c 128,-1,2
 632 -12 632 -12 601 -12 c 0,3,4
 588 -12 588 -12 549 51 c 0,5,6
 525 90 525 90 502 128 c 1,7,8
 356 -18 356 -18 264 -18 c 0,9,10
 65 -18 65 -18 65 197 c 0,11,12
 65 332 65 332 157 470 c 0,13,14
 242 597 242 597 395 713 c 0,15,16
 421 737 421 737 447 761 c 0,17,18
 490 800 490 800 510 800 c 1,19,20
 623 709 623 709 674 645 c 1,21,22
 677 634 677 634 672 616 c 0,23,24
 668 595 668 595 668 592 c 2,25,-1
 668 315 l 2,26,27
 668 312 668 312 749 179 c 1,28,29
 782 210 782 210 816 218 c 1,30,31
 819 213 819 213 819 207 c 0,0,1
500 468 m 0,32,33
 500 486 500 486 459 520 c 0,34,35
 394 574 394 574 366 603 c 1,36,37
 323 575 323 575 322 574 c 0,38,39
 296 556 296 556 291 547 c 0,40,41
 256 472 256 472 246 432 c 0,42,43
 238 401 238 401 238 354 c 0,44,45
 238 263 238 263 287.5 209 c 128,-1,46
 337 155 337 155 425 155 c 0,47,48
 447 155 447 155 463.5 168 c 128,-1,49
 480 181 480 181 495 195 c 1,50,-1
 495 448 l 2,51,52
 495 452 495 452 497.5 458.5 c 128,-1,53
 500 465 500 465 500 468 c 0,32,33
EndSplineSet
EndChar

StartChar: B
Encoding: 66 66 37
Width: 784
GlyphClass: 1
Flags: W
LayerCount: 2
Fore
SplineSet
772 395 m 0,0,1
 772 272 772 272 686 156 c 0,2,3
 613 56 613 56 518 9 c 0,4,5
 508 3 508 3 499 -4 c 0,6,7
 485 -13 485 -13 475 -13 c 0,8,9
 467 -13 467 -13 444 4 c 0,10,11
 418 24 418 24 416 24 c 0,12,13
 407 24 407 24 391 26 c 0,14,15
 372 33 372 33 335 33 c 0,16,17
 333 33 333 33 323 35 c 128,-1,18
 313 37 313 37 303 37 c 0,19,20
 267 37 267 37 203 9 c 1,21,22
 169 -29 169 -29 99 -88 c 0,23,24
 92 -92 92 -92 69 -104 c 1,25,-1
 56 -100 l 1,26,27
 53 -87 53 -87 96 -29 c 0,28,29
 133 19 133 19 176 65 c 1,30,-1
 176 546 l 1,31,32
 167 550 167 550 151 567 c 0,33,34
 132 589 132 589 114 603 c 1,35,36
 104 596 104 596 92 587.5 c 128,-1,37
 80 579 80 579 65 578 c 1,38,39
 62 583 62 583 62 589 c 0,40,41
 62 619 62 619 145.5 699.5 c 128,-1,42
 229 780 229 780 258 780 c 0,43,44
 274 780 274 780 334 712 c 1,45,46
 372 750 372 750 410 789 c 0,47,48
 457 833 457 833 488 833 c 0,49,50
 509 833 509 833 555 814 c 0,51,52
 594 798 594 798 602 791 c 0,53,54
 643 756 643 756 643 673 c 0,55,56
 643 643 643 643 641 637 c 0,57,58
 638 625 638 625 618 589 c 1,59,60
 669 555 669 555 720 521 c 0,61,62
 754 498 754 498 763 476 c 128,-1,63
 772 454 772 454 772 395 c 0,0,1
479 524 m 0,64,65
 479 642 479 642 340 666 c 1,66,-1
 340 486 l 2,67,68
 340 483 340 483 336.5 472 c 128,-1,69
 333 461 333 461 333 458 c 2,70,-1
 333 333 l 1,71,72
 373 378 373 378 413 422 c 0,73,74
 479 498 479 498 479 524 c 0,64,65
608 243 m 0,75,76
 608 310 608 310 587 334 c 0,77,78
 574 349 574 349 477 414 c 1,79,80
 389 307 389 307 340 267 c 1,81,-1
 340 201 l 2,82,83
 340 198 340 198 321 169 c 1,84,85
 408 192 408 192 429 195 c 0,86,87
 441 197 441 197 484 197 c 0,88,89
 528 197 528 197 540 195 c 0,90,91
 570 191 570 191 599 174 c 1,92,93
 608 204 608 204 608 243 c 0,75,76
EndSplineSet
EndChar

StartChar: C
Encoding: 67 67 38
Width: 749
GlyphClass: 1
Flags: W
LayerCount: 2
Fore
SplineSet
749 764 m 1,0,1
 697 665 697 665 620.5 607.5 c 128,-1,2
 544 550 544 550 469 550 c 0,3,4
 421 550 421 550 391 563 c 0,5,6
 349 582 349 582 306 638 c 1,7,8
 294 630 294 630 277 613 c 1,9,10
 263 583 263 583 251 510 c 0,11,12
 242 452 242 452 242 429 c 0,13,14
 242 313 242 313 333 240 c 0,15,16
 415 172 415 172 528 172 c 0,17,18
 566 172 566 172 611 190 c 0,19,20
 701 225 701 225 709 228 c 1,21,22
 658 118 658 118 553 50 c 0,23,24
 456 -12 456 -12 360 -12 c 0,25,26
 234 -12 234 -12 150 57 c 0,27,28
 58 133 58 133 58 260 c 0,29,30
 58 457 58 457 200 617 c 0,31,32
 292 721 292 721 477 836 c 1,33,34
 542 734 542 734 636 734 c 0,35,36
 673 734 673 734 688 743 c 0,37,38
 726 766 726 766 732 768 c 2,39,-1
 749 764 l 1,0,1
EndSplineSet
EndChar

StartChar: D
Encoding: 68 68 39
Width: 784
GlyphClass: 1
Flags: W
LayerCount: 2
Fore
SplineSet
763 495 m 0,0,1
 763 324 763 324 442 77 c 0,2,3
 411 49 411 49 380 21 c 0,4,5
 345 -8 345 -8 306 -8 c 0,6,7
 302 -8 302 -8 255 27.5 c 128,-1,8
 208 63 208 63 179 89 c 0,9,10
 177 91 177 91 180 100 c 0,11,12
 184 114 184 114 184 118 c 0,13,14
 187 145 187 145 187 166 c 0,15,16
 187 194 187 194 182.5 215.5 c 128,-1,17
 178 237 178 237 178 237 c 1,18,-1
 178 428 l 2,19,20
 178 485 178 485 159 510 c 0,21,22
 156 515 156 515 82 587 c 1,23,24
 67 577 67 577 52 566 c 0,25,26
 34 555 34 555 19 557 c 1,27,28
 13 586 13 586 103.5 679 c 128,-1,29
 194 772 194 772 222 772 c 0,30,31
 225 772 225 772 257 741 c 0,32,33
 297 701 297 701 314 686 c 1,34,35
 367 731 367 731 421 777 c 0,36,37
 483 826 483 826 526 826 c 0,38,39
 566 826 566 826 648 755 c 0,40,41
 699 710 699 710 721 666 c 0,42,43
 732 644 732 644 748 586 c 0,44,45
 755 563 755 563 763 539 c 1,46,47
 763 539 763 539 763 495 c 0,0,1
597 343 m 0,48,49
 597 376 597 376 598 375 c 1,50,51
 596 387 596 387 583 426 c 1,52,53
 578 456 578 456 566 497 c 1,54,55
 552 518 552 518 539 540 c 0,56,57
 526 556 526 556 483 592 c 0,58,59
 462 610 462 610 440 628 c 0,60,61
 402 658 402 658 379 658 c 0,62,63
 364 658 364 658 336 632 c 1,64,65
 336 625 336 625 339.5 609 c 128,-1,66
 343 593 343 593 343 590 c 2,67,-1
 343 408 l 2,68,69
 343 405 343 405 347 393.5 c 128,-1,70
 351 382 351 382 351 379 c 2,71,-1
 351 250 l 2,72,73
 351 249 351 249 456 165 c 1,74,75
 510 208 510 208 565 251 c 1,76,77
 597 284 597 284 597 343 c 0,48,49
EndSplineSet
EndChar

StartChar: E
Encoding: 69 69 40
Width: 750
GlyphClass: 1
Flags: W
LayerCount: 2
Fore
SplineSet
752 782 m 1,0,1
 698 666 698 666 607 622 c 0,2,3
 542 590 542 590 436 590 c 0,4,5
 362 590 362 590 318 646 c 1,6,7
 305 641 305 641 283 622 c 1,8,9
 267 600 267 600 253 544 c 0,10,11
 237 485 237 485 237 440 c 0,12,13
 237 365 237 365 260 317 c 1,14,15
 314 371 314 371 369 424 c 0,16,17
 452 503 452 503 479 503 c 1,18,19
 574 468 574 468 589 468 c 0,20,21
 612 468 612 468 626 480 c 0,22,23
 650 499 650 499 670 508 c 1,24,-1
 688 505 l 1,25,26
 693 471 693 471 594.5 382 c 128,-1,27
 496 293 496 293 454 293 c 0,28,29
 391 293 391 293 339 317 c 1,30,31
 326 306 326 306 295 281 c 1,32,33
 312 236 312 236 398 200 c 0,34,35
 476 166 476 166 539 166 c 0,36,37
 567 166 567 166 632 205 c 0,38,39
 677 234 677 234 723 262 c 1,40,-1
 736 258 l 1,41,42
 721 188 721 188 589 91 c 128,-1,43
 457 -6 457 -6 381 -6 c 0,44,45
 249 -6 249 -6 161 66 c 0,46,47
 65 145 65 145 65 282 c 0,48,49
 65 426 65 426 151 559 c 0,50,51
 244 703 244 703 415 795 c 0,52,53
 473 826 473 826 472 826 c 1,54,-1
 488 826 l 1,55,56
 488 804 488 804 529 782 c 0,57,58
 565 762 565 762 587 762 c 0,59,60
 632 762 632 762 752 782 c 1,0,1
EndSplineSet
EndChar

StartChar: F
Encoding: 70 70 41
Width: 759
GlyphClass: 1
Flags: W
LayerCount: 2
Fore
SplineSet
799 810 m 0,0,1
 799 800 799 800 754 741 c 0,2,3
 706 677 706 677 633 637 c 0,4,5
 565 599 565 599 509 599 c 0,6,7
 456 599 456 599 401 661 c 1,8,9
 387 652 387 652 384 640 c 2,10,-1
 386 357 l 1,11,12
 418 387 418 387 450 417 c 0,13,14
 505 466 505 466 527 466 c 1,15,16
 523 466 523 466 565.5 443.5 c 128,-1,17
 608 421 608 421 646 421 c 0,18,19
 649 421 649 421 689 447 c 128,-1,20
 729 473 729 473 737 474 c 1,21,22
 743 468 743 468 743 465 c 0,23,24
 743 416 743 416 634 329 c 0,25,26
 529 245 529 245 487 245 c 0,27,28
 481 245 481 245 425 254 c 1,29,30
 412 263 412 263 386 280 c 1,31,32
 384 269 384 269 380 244.5 c 128,-1,33
 376 220 376 220 376 217 c 0,34,35
 376 194 376 194 398.5 170.5 c 128,-1,36
 421 147 421 147 421 141 c 0,37,38
 421 111 421 111 351.5 43.5 c 128,-1,39
 282 -24 282 -24 256 -24 c 0,40,41
 209 -24 209 -24 209 64 c 0,42,43
 209 74 209 74 210 87 c 128,-1,44
 211 100 211 100 211 100 c 1,45,-1
 211 557 l 1,46,-1
 105 631 l 1,47,48
 70 605 70 605 49 597 c 1,49,-1
 28 600 l 1,50,51
 22 641 22 641 128 727 c 0,52,53
 229 810 229 810 261 810 c 0,54,55
 268 810 268 810 319.5 774.5 c 128,-1,56
 371 739 371 739 385 725 c 1,57,58
 429 768 429 768 475.5 812 c 128,-1,59
 522 856 522 856 551 858 c 1,60,61
 592 813 592 813 604 802 c 0,62,63
 637 775 637 775 667 775 c 0,64,65
 699 775 699 775 737 793 c 0,66,67
 784 816 784 816 793 818 c 1,68,69
 799 811 799 811 799 810 c 0,0,1
EndSplineSet
EndChar

StartChar: G
Encoding: 71 71 42
Width: 878
GlyphClass: 1
Flags: W
LayerCount: 2
Fore
SplineSet
881 561 m 2,0,1
 881 553 881 553 844.5 510 c 128,-1,2
 808 467 808 467 808 465 c 0,3,4
 809 442 809 442 806 397 c 0,5,6
 806 379 806 379 798 346 c 1,7,8
 716 194 716 194 584 94 c 0,9,10
 447 -10 447 -10 316 -10 c 0,11,12
 275 -10 275 -10 272 -10 c 0,13,14
 249 -5 249 -5 226 0 c 0,15,16
 199 6 199 6 184 16 c 0,17,18
 146 40 146 40 103 113 c 0,19,20
 62 182 62 182 62 211 c 2,21,-1
 65 350 l 1,22,23
 87 484 87 484 170 608 c 0,24,25
 270 758 270 758 419 817 c 0,26,27
 420 818 420 818 446 836 c 0,28,29
 467 851 467 851 478 851 c 0,30,31
 479 851 479 851 500 833 c 0,32,33
 526 812 526 812 549 800 c 0,34,35
 583 783 583 783 617 783 c 0,36,37
 669 783 669 783 687 796 c 0,38,39
 723 822 723 822 753 834 c 1,40,41
 757 830 757 830 757 824 c 0,42,43
 757 780 757 780 649 688 c 0,44,45
 546 599 546 599 509 599 c 0,46,47
 463 599 463 599 435 598 c 128,-1,48
 407 597 407 597 412 597 c 1,49,50
 391 597 391 597 306 664 c 1,51,52
 267 598 267 598 256 545 c 0,53,54
 248 509 248 509 248 434 c 0,55,56
 248 326 248 326 312 251 c 0,57,58
 378 173 378 173 485 173 c 0,59,60
 536 173 536 173 573 187 c 0,61,62
 624 206 624 206 624 245 c 2,63,-1
 624 352 l 1,64,65
 626 351 626 351 590 351 c 0,66,67
 586 351 586 351 563.5 362.5 c 128,-1,68
 541 374 541 374 538 374 c 1,69,70
 539 374 539 374 495.5 341.5 c 128,-1,71
 452 309 452 309 432 309 c 0,72,73
 418 309 418 309 418 321 c 0,74,75
 418 359 418 359 541 467 c 0,76,77
 661 571 661 571 690 571 c 0,78,79
 694 571 694 571 721.5 554 c 128,-1,80
 749 537 749 537 765 537 c 0,81,82
 768 537 768 537 781.5 541.5 c 128,-1,83
 795 546 795 546 799 546 c 0,84,85
 802 546 802 546 803.5 543 c 128,-1,86
 805 540 805 540 809 540 c 0,87,88
 812 540 812 540 837 558.5 c 128,-1,89
 862 577 862 577 866 577 c 2,90,-1
 881 577 l 1,91,-1
 881 561 l 2,0,1
EndSplineSet
EndChar

StartChar: H
Encoding: 72 72 43
Width: 939
GlyphClass: 1
Flags: W
LayerCount: 2
Fore
SplineSet
930 168 m 1,0,1
 927 140 927 140 865 68 c 0,2,3
 799 -10 799 -10 762 -10 c 0,4,5
 753 -10 753 -10 732.5 10.5 c 128,-1,6
 712 31 712 31 709 32 c 0,7,8
 676 43 676 43 601 69 c 1,9,10
 600 92 600 92 604 98 c 0,11,12
 643 150 643 150 682 203 c 0,13,14
 689 218 689 218 689 281 c 0,15,16
 689 359 689 359 638.5 408.5 c 128,-1,17
 588 458 588 458 507 458 c 0,18,19
 464 458 464 458 438 438 c 0,20,21
 363 381 363 381 362 380 c 0,22,23
 370 364 370 364 370 359 c 2,24,-1
 370 205 l 1,25,26
 386 184 386 184 435 144 c 1,27,28
 432 116 432 116 370 43 c 0,29,30
 304 -34 304 -34 268 -34 c 0,31,32
 258 -34 258 -34 227 -4 c 0,33,34
 211 14 211 14 195 31 c 1,35,-1
 195 175 l 2,36,37
 195 178 195 178 189.5 200 c 128,-1,38
 184 222 184 222 184 225 c 2,39,-1
 187 478 l 1,40,41
 195 551 195 551 195 539 c 1,42,43
 195 581 195 581 181 593 c 0,44,45
 145 619 145 619 109 644 c 1,46,47
 92 633 92 633 74 621 c 0,48,49
 51 606 51 606 34 608 c 1,50,51
 29 637 29 637 129 736.5 c 128,-1,52
 229 836 229 836 260 836 c 0,53,54
 265 836 265 836 312.5 799.5 c 128,-1,55
 360 763 360 763 370 752 c 1,56,-1
 370 651 l 1,57,58
 370 653 370 653 362 621 c 1,59,-1
 364 447 l 1,60,61
 459 542 459 542 510 578 c 0,62,63
 590 634 590 634 668 634 c 0,64,65
 759 634 759 634 812 583.5 c 128,-1,66
 865 533 865 533 865 437 c 0,67,68
 865 380 865 380 858 347 c 0,69,70
 844 284 844 284 800 235 c 1,71,72
 856 219 856 219 886 205 c 1,73,74
 892 195 892 195 905 180 c 1,75,76
 914 176 914 176 930 168 c 1,0,1
EndSplineSet
EndChar

StartChar: I
Encoding: 73 73 44
Width: 528
GlyphClass: 1
Flags: W
LayerCount: 2
Fore
SplineSet
501 208 m 1,0,1
 509 182 509 182 419 91.5 c 128,-1,2
 329 1 329 1 302 1 c 2,3,-1
 224 1 l 2,4,5
 214 1 214 1 182.5 21.5 c 128,-1,6
 151 42 151 42 151 42 c 1,7,8
 152 42 152 42 117 16 c 128,-1,9
 82 -10 82 -10 58 -11 c 1,10,11
 58 15 58 15 108 72 c 1,12,13
 152 116 152 116 195 161 c 1,14,-1
 195 558 l 1,15,16
 172 572 172 572 123 606 c 1,17,18
 96 588 96 588 44 557 c 1,19,-1
 25 561 l 1,20,21
 25 584 25 584 68 636 c 0,22,23
 91 663 91 663 171 729 c 0,24,25
 257 800 257 800 274 800 c 1,26,27
 271 800 271 800 323 763 c 128,-1,28
 375 726 375 726 401 726 c 0,29,30
 406 726 406 726 443 749.5 c 128,-1,31
 480 773 480 773 492 775 c 0,32,33
 495 772 495 772 495 766 c 0,34,35
 495 745 495 745 443 686 c 0,36,37
 397 633 397 633 372 615 c 1,38,-1
 372 215 l 2,39,40
 372 207 372 207 361 196 c 1,41,42
 390 180 390 180 400 178 c 1,43,44
 399 178 399 178 417 178 c 0,45,46
 436 178 436 178 448 186 c 0,47,48
 468 198 468 198 501 208 c 1,0,1
EndSplineSet
EndChar

StartChar: J
Encoding: 74 74 45
Width: 750
GlyphClass: 1
Flags: W
LayerCount: 2
Fore
SplineSet
712 388 m 0,0,1
 712 343 712 343 708 326.5 c 128,-1,2
 704 310 704 310 704 309 c 2,3,-1
 704 156 l 2,4,5
 704 91 704 91 579 -22 c 1,6,7
 490 -95 490 -95 400 -168 c 0,8,9
 386 -180 386 -180 347 -188 c 0,10,11
 315 -195 315 -195 289 -195 c 0,12,13
 183 -195 183 -195 109 -129 c 0,14,15
 30 -60 30 -60 30 49 c 0,16,17
 30 127 30 127 78.5 192.5 c 128,-1,18
 127 258 127 258 233 326 c 1,19,-1
 249 322 l 1,20,21
 235 288 235 288 210 254 c 0,22,23
 198 237 198 237 198 200 c 0,24,25
 198 110 198 110 276 41 c 0,26,27
 350 -27 350 -27 441 -27 c 0,28,29
 473 -27 473 -27 495 -8 c 0,30,31
 502 -2 502 -2 535 37 c 1,32,-1
 535 169 l 1,33,34
 543 233 543 233 543 233 c 1,35,36
 543 276 543 276 540 293 c 1,37,38
 522 308 522 308 504 323 c 0,39,40
 473 349 473 349 459 349 c 0,41,42
 452 349 452 349 424.5 330 c 128,-1,43
 397 311 397 311 381 314 c 1,44,45
 383 344 383 344 438 402 c 0,46,47
 485 453 485 453 535 489 c 1,48,-1
 535 568 l 1,49,50
 516 588 516 588 472 640 c 1,51,52
 426 606 426 606 417 606 c 2,53,-1
 401 606 l 1,54,-1
 401 620 l 2,55,56
 401 645 401 645 494.5 733 c 128,-1,57
 588 821 588 821 612 821 c 0,58,59
 621 821 621 821 662.5 780 c 128,-1,60
 704 739 704 739 704 734 c 2,61,-1
 704 477 l 1,62,63
 704 483 704 483 708 459 c 128,-1,64
 712 435 712 435 712 388 c 0,0,1
EndSplineSet
EndChar

StartChar: K
Encoding: 75 75 46
Width: 888
GlyphClass: 1
Flags: W
LayerCount: 2
Fore
SplineSet
849 148 m 2,0,1
 849 124 849 124 778 55.5 c 128,-1,2
 707 -13 707 -13 683 -13 c 1,3,4
 685 -13 685 -13 634 13.5 c 128,-1,5
 583 40 583 40 568 38 c 1,6,-1
 568 159 l 2,7,8
 568 230 568 230 518 312 c 0,9,10
 463 402 463 402 399 402 c 0,11,12
 333 402 333 402 333 300 c 2,13,-1
 333 207 l 1,14,15
 358 182 358 182 413 133 c 1,16,17
 403 105 403 105 348 40 c 0,18,19
 284 -37 284 -37 247 -37 c 0,20,21
 234 -37 234 -37 161 36 c 1,22,-1
 161 156 l 2,23,24
 161 158 161 158 165 175.5 c 128,-1,25
 169 193 169 193 169 196 c 2,26,-1
 169 539 l 1,27,28
 154 554 154 554 101 602 c 1,29,30
 39 554 39 554 29 554 c 2,31,-1
 12 554 l 2,32,33
 9 557 9 557 9 562 c 0,34,35
 9 591 9 591 103.5 694.5 c 128,-1,36
 198 798 198 798 234 798 c 0,37,38
 241 798 241 798 291 756 c 128,-1,39
 341 714 341 714 341 704 c 2,40,-1
 343 445 l 1,41,42
 440 566 440 566 537 686 c 0,43,44
 668 841 668 841 713 838 c 0,45,46
 716 836 716 836 716 830 c 0,47,48
 716 810 716 810 625 701 c 0,49,50
 570 636 570 636 514 572 c 1,51,52
 520 572 520 572 535.5 573.5 c 128,-1,53
 551 575 551 575 554 575 c 0,54,55
 639 575 639 575 692 481 c 0,56,57
 726 419 726 419 740 334 c 1,58,-1
 742 213 l 1,59,60
 745 216 745 216 748 216 c 0,61,62
 759 216 759 216 801 190 c 0,63,64
 825 175 825 175 849 160 c 1,65,-1
 849 148 l 2,0,1
EndSplineSet
EndChar

StartChar: L
Encoding: 76 76 47
Width: 760
GlyphClass: 1
Flags: W
LayerCount: 2
Fore
SplineSet
749 237 m 1,0,1
 724 176 724 176 657 96 c 0,2,3
 581 4 581 4 527 -9 c 1,4,5
 455 52 455 52 344 52 c 0,6,7
 281 52 281 52 250 43 c 1,8,9
 231 44 231 44 197 34 c 1,10,11
 167 8 167 8 138 -18 c 0,12,13
 92 -58 92 -58 66 -59 c 1,14,15
 67 -38 67 -38 111.5 20 c 128,-1,16
 156 78 156 78 156 82 c 2,17,-1
 156 155 l 2,18,19
 156 158 156 158 160 167 c 128,-1,20
 164 176 164 176 164 179 c 2,21,-1
 164 563 l 1,22,23
 146 579 146 579 128 595 c 0,24,25
 97 621 97 621 91 621 c 0,26,27
 88 621 88 621 69 608 c 0,28,29
 44 591 44 591 38 588 c 1,30,-1
 20 592 l 1,31,32
 14 620 14 620 110.5 710 c 128,-1,33
 207 800 207 800 237 800 c 0,34,35
 243 800 243 800 281 769 c 0,36,37
 316 741 316 741 330 727 c 1,38,-1
 332 332 l 2,39,40
 332 329 332 329 327 308 c 128,-1,41
 322 287 322 287 322 283 c 2,42,-1
 322 216 l 2,43,44
 322 214 322 214 318.5 208 c 128,-1,45
 315 202 315 202 314 197 c 1,46,47
 419 215 419 215 431 216.5 c 128,-1,48
 443 218 443 218 491 218 c 0,49,50
 561 218 561 218 612.5 202.5 c 128,-1,51
 664 187 664 187 655 187 c 1,52,53
 658 187 658 187 686 208 c 0,54,55
 719 233 719 233 731 241 c 1,56,-1
 749 237 l 1,0,1
EndSplineSet
EndChar

StartChar: M
Encoding: 77 77 48
Width: 1033
GlyphClass: 1
Flags: W
LayerCount: 2
Fore
SplineSet
1002 394 m 0,0,1
 1002 343 1002 343 983 282 c 0,2,3
 960 207 960 207 920 170 c 1,4,5
 926 163 926 163 952 153 c 0,6,7
 989 138 989 138 992 136 c 2,8,-1
 992 123 l 2,9,10
 992 99 992 99 925 37.5 c 128,-1,11
 858 -24 858 -24 834 -24 c 0,12,13
 831 -24 831 -24 800.5 -9.5 c 128,-1,14
 770 5 770 5 760 5 c 0,15,16
 758 5 758 5 750 0.5 c 128,-1,17
 742 -4 742 -4 724 -9 c 1,18,19
 721 -4 721 -4 721 2 c 0,20,21
 721 21 721 21 761 65 c 0,22,23
 811 120 811 120 815 127 c 128,-1,24
 819 134 819 134 821.5 153.5 c 128,-1,25
 824 173 824 173 829 181 c 0,26,27
 840 204 840 204 840 249 c 0,28,29
 840 276 840 276 838 284 c 0,30,31
 829 319 829 319 819 354 c 0,32,33
 818 371 818 371 815 401 c 1,34,35
 802 453 802 453 723 532 c 0,36,37
 674 579 674 579 625 626 c 1,38,39
 613 618 613 618 600 604 c 1,40,-1
 600 423 l 2,41,42
 600 420 600 420 603.5 412.5 c 128,-1,43
 607 405 607 405 607 402 c 2,44,-1
 607 213 l 1,45,46
 619 209 619 209 636 193 c 0,47,48
 661 168 661 168 667 164 c 1,49,50
 659 138 659 138 608 78 c 0,51,52
 547 5 547 5 509 5 c 0,53,54
 502 5 502 5 490 20 c 0,55,56
 474 39 474 39 466 44 c 1,57,58
 459 43 459 43 446 54 c 1,59,-1
 446 237 l 2,60,61
 446 240 446 240 442 251 c 128,-1,62
 438 262 438 262 438 265 c 2,63,-1
 438 495 l 1,64,65
 400 535 400 535 315 619 c 1,66,67
 298 610 298 610 281 601 c 0,68,69
 259 590 259 590 250 577 c 0,70,71
 238 561 238 561 228 526 c 0,72,73
 220 497 220 497 220 489 c 2,74,-1
 220 416 l 2,75,76
 220 413 220 413 217.5 404.5 c 128,-1,77
 215 396 215 396 215 393 c 0,78,79
 215 341 215 341 243 291 c 0,80,81
 275 233 275 233 336 192 c 1,82,83
 354 187 354 187 373 182 c 0,84,85
 406 171 406 171 406 159 c 0,86,87
 406 133 406 133 339 69 c 128,-1,88
 272 5 272 5 251 5 c 0,89,90
 248 5 248 5 238.5 11.5 c 128,-1,91
 229 18 229 18 223 19 c 0,92,93
 208 20 208 20 181 29 c 1,94,95
 158 42 158 42 127 78 c 1,96,97
 117 83 117 83 94 105 c 0,98,99
 78 125 78 125 64 173 c 0,100,101
 51 217 51 217 51 244 c 0,102,103
 51 246 51 246 54.5 265 c 128,-1,104
 58 284 58 284 58 288 c 2,105,-1
 58 354 l 2,106,107
 58 356 58 356 65 369.5 c 128,-1,108
 72 383 72 383 72 389 c 0,109,110
 79 473 79 473 192 591 c 0,111,112
 292 696 292 696 384 743 c 0,113,114
 391 747 391 747 423 771 c 0,115,116
 450 792 450 792 457 792 c 2,117,-1
 470 792 l 1,118,119
 526 724 526 724 586 668 c 1,120,121
 735 800 735 800 765 800 c 0,122,123
 771 800 771 800 802 770 c 0,124,125
 830 743 830 743 841 730 c 0,126,127
 870 705 870 705 921 653 c 1,128,129
 962 603 962 603 972 565 c 0,130,131
 977 534 977 534 983.5 504.5 c 128,-1,132
 990 475 990 475 1001 446 c 0,133,134
 1002 444 1002 444 1002 394 c 0,0,1
EndSplineSet
EndChar

StartChar: N
Encoding: 78 78 49
Width: 990
GlyphClass: 1
Flags: W
LayerCount: 2
Fore
SplineSet
971 460 m 0,0,1
 971 398 971 398 913 298 c 0,2,3
 869 230 869 230 825 162 c 1,4,5
 853 156 853 156 880 151 c 0,6,7
 917 144 917 144 936 127 c 1,8,-1
 936 115 l 2,9,10
 936 87 936 87 862.5 19.5 c 128,-1,11
 789 -48 789 -48 765 -48 c 0,12,13
 762 -48 762 -48 744.5 -37.5 c 128,-1,14
 727 -27 727 -27 719 -25 c 0,15,16
 690 -18 690 -18 635 -12 c 1,17,18
 643 9 643 9 725 140 c 0,19,20
 796 253 796 253 796 300 c 0,21,22
 796 424 796 424 689.5 524 c 128,-1,23
 583 624 583 624 460 624 c 0,24,25
 446 624 446 624 400 599 c 0,26,27
 348 570 348 570 348 549 c 0,28,29
 348 545 348 545 356 483 c 128,-1,30
 364 421 364 421 364 418 c 2,31,-1
 364 347 l 1,32,33
 372 241 372 241 372 233 c 0,34,35
 372 147 372 147 349 113.5 c 128,-1,36
 326 80 326 80 209 -7 c 1,37,-1
 197 -7 l 1,38,-1
 197 126 l 2,39,40
 197 129 197 129 192.5 145 c 128,-1,41
 188 161 188 161 188 164 c 2,42,-1
 188 242 l 2,43,44
 188 290 188 290 177 350 c 0,45,46
 172 371 172 371 172 393 c 0,47,48
 172 410 172 410 177 449 c 0,49,50
 181 482 181 482 179 504 c 1,51,52
 105 581 105 581 90 581 c 0,53,54
 89 581 89 581 66.5 567.5 c 128,-1,55
 44 554 44 554 28 555 c 1,56,57
 24 582 24 582 119.5 680 c 128,-1,58
 215 778 215 778 247 775 c 1,59,60
 252 769 252 769 320 710 c 0,61,62
 362 674 362 674 358 638 c 1,63,64
 405 691 405 691 480 741 c 0,65,66
 568 800 568 800 622 800 c 0,67,68
 679 800 679 800 749 774 c 0,69,70
 806 752 806 752 822 736 c 0,71,72
 884 676 884 676 912 637 c 0,73,74
 953 580 953 580 965 515 c 0,75,76
 971 481 971 481 971 460 c 0,0,1
EndSplineSet
EndChar

StartChar: O
Encoding: 79 79 50
Width: 854
GlyphClass: 1
Flags: W
LayerCount: 2
Fore
SplineSet
836 394 m 2,0,1
 836 391 836 391 828 373.5 c 128,-1,2
 820 356 820 356 818 349 c 0,3,4
 797 258 797 258 687 142 c 128,-1,5
 577 26 577 26 480 -9 c 0,6,7
 434 -26 434 -26 357 -26 c 0,8,9
 209 -26 209 -26 129 69 c 0,10,11
 56 156 56 156 56 295 c 0,12,13
 56 356 56 356 58 368 c 0,14,15
 59 372 59 372 84 468 c 0,16,17
 98 524 98 524 230 658 c 0,18,19
 370 800 370 800 438 800 c 0,20,21
 595 800 595 800 708 719 c 0,22,23
 829 632 829 632 833 490 c 2,24,-1
 836 394 l 2,0,1
657 238 m 2,25,-1
 657 314 l 2,26,27
 657 422 657 422 568 515 c 0,28,29
 476 613 476 613 363 608 c 0,30,31
 347 608 347 608 315 616 c 128,-1,32
 283 624 283 624 284 624 c 1,33,34
 258 624 258 624 243 547 c 0,35,36
 232 494 232 494 232 460 c 0,37,38
 232 399 232 399 246 358 c 0,39,40
 269 293 269 293 274 270 c 1,41,42
 382 150 382 150 519 150 c 0,43,44
 575 150 575 150 621 167 c 0,45,46
 627 169 627 169 642 200.5 c 128,-1,47
 657 232 657 232 657 238 c 2,25,-1
EndSplineSet
EndChar

StartChar: P
Encoding: 80 80 51
Width: 736
GlyphClass: 1
Flags: W
LayerCount: 2
Fore
SplineSet
731 747 m 0,0,1
 731 631 731 631 614 500 c 0,2,3
 569 450 569 450 356 262 c 1,4,-1
 356 212 l 1,5,6
 381 191 381 191 428 157 c 1,7,8
 427 138 427 138 363 63 c 0,9,10
 295 -16 295 -16 261 -16 c 0,11,12
 258 -16 258 -16 230 5 c 0,13,14
 191 35 191 35 183 40 c 1,15,-1
 183 496 l 1,16,17
 179 513 179 513 174 549 c 1,18,19
 82 610 82 610 83 610 c 1,20,21
 79 610 79 610 58 596 c 0,22,23
 31 580 31 580 22 575 c 1,24,-1
 1 579 l 1,25,26
 -8 615 -8 615 97 703 c 0,27,28
 199 788 199 788 239 788 c 0,29,30
 252 788 252 788 292 759 c 128,-1,31
 332 730 332 730 333 730 c 0,32,33
 493 884 493 884 564 884 c 0,34,35
 587 884 587 884 631 867 c 0,36,37
 691 843 691 843 722 804 c 0,38,39
 731 792 731 792 731 747 c 0,0,1
558 598 m 0,40,41
 558 638 558 638 496 677 c 0,42,43
 442 711 442 711 406 711 c 0,44,45
 403 711 403 711 356 681 c 1,46,-1
 356 338 l 1,47,48
 414 397 414 397 480 448 c 0,49,50
 531 486 531 486 542 504 c 0,51,52
 558 532 558 532 558 598 c 0,40,41
EndSplineSet
EndChar

StartChar: Q
Encoding: 81 81 52
Width: 968
GlyphClass: 1
Flags: W
LayerCount: 2
Fore
SplineSet
960 175 m 1,0,1
 940 113 940 113 862.5 48.5 c 128,-1,2
 785 -16 785 -16 732 -16 c 0,3,4
 599 -16 599 -16 522 95 c 1,5,6
 400 -8 400 -8 317 -8 c 0,7,8
 309 -8 309 -8 259 -1 c 0,9,10
 243 0 243 0 213 9 c 1,11,12
 147 50 147 50 113 87 c 0,13,14
 83 121 83 121 63 170 c 0,15,16
 60 178 60 178 48 221.5 c 128,-1,17
 36 265 36 265 36 269 c 0,18,19
 36 328 36 328 47 384 c 0,20,21
 52 411 52 411 66 466 c 0,22,23
 91 545 91 545 132 588 c 0,24,25
 177 635 177 635 265 714 c 0,26,27
 383 820 383 820 409 820 c 0,28,29
 555 820 555 820 658 726 c 0,30,31
 763 629 763 629 763 484 c 0,32,33
 763 463 763 463 757 441 c 0,34,35
 741 385 741 385 712 326 c 0,36,37
 687 275 687 275 687 277 c 1,38,39
 687 271 687 271 700 257 c 0,40,41
 707 249 707 249 715 241 c 0,42,43
 742 199 742 199 800 175 c 0,44,45
 847 156 847 156 887 156 c 0,46,47
 904 156 904 156 944 179 c 1,48,-1
 960 175 l 1,0,1
590 326 m 0,49,50
 590 361 590 361 578 412 c 128,-1,51
 566 463 566 463 551 487 c 0,52,53
 518 543 518 543 442 590 c 0,54,55
 359 641 359 641 282 641 c 0,56,57
 247 641 247 641 225 551 c 0,58,59
 210 487 210 487 210 446 c 0,60,61
 210 350 210 350 283 261 c 0,62,63
 363 164 363 164 472 164 c 0,64,65
 512 164 512 164 546 193 c 0,66,67
 556 201 556 201 573 260 c 0,68,69
 590 315 590 315 590 326 c 0,49,50
EndSplineSet
EndChar

StartChar: R
Encoding: 82 82 53
Width: 932
GlyphClass: 1
Flags: W
LayerCount: 2
Fore
SplineSet
959 209 m 1,0,1
 958 169 958 169 876.5 95 c 128,-1,2
 795 21 795 21 741 11 c 0,3,4
 738 11 738 11 727 4 c 128,-1,5
 716 -3 716 -3 712 -3 c 2,6,-1
 593 -3 l 2,7,8
 578 -3 578 -3 535 32 c 0,9,10
 498 63 498 63 484 80 c 0,11,12
 441 134 441 134 366 236 c 1,13,14
 343 226 343 226 335 208 c 0,15,16
 330 195 330 195 332 167 c 1,17,18
 343 160 343 160 370 133 c 0,19,20
 402 100 402 100 402 90 c 0,21,22
 402 56 402 56 325 -10 c 0,23,24
 253 -71 253 -71 234 -71 c 1,25,26
 161 -4 161 -4 161 30 c 0,27,28
 161 38 161 38 166 56.5 c 128,-1,29
 171 75 171 75 171 89 c 2,30,-1
 171 512 l 2,31,32
 171 552 171 552 154 568 c 0,33,34
 120 598 120 598 86 628 c 1,35,36
 64 613 64 613 34 597 c 1,37,-1
 16 601 l 1,38,39
 33 658 33 658 110.5 729 c 128,-1,40
 188 800 188 800 242 800 c 0,41,42
 246 800 246 800 282 771 c 128,-1,43
 318 742 318 742 333 725 c 1,44,45
 361 759 361 759 398 795 c 0,46,47
 456 852 456 852 480 852 c 0,48,49
 527 852 527 852 597 818 c 0,50,51
 672 782 672 782 689 743 c 128,-1,52
 706 704 706 704 706 661 c 0,53,54
 706 596 706 596 658 524 c 0,55,56
 623 472 623 472 542 390 c 1,57,58
 645 249 645 249 661 233 c 0,59,60
 726 166 726 166 805 166 c 0,61,62
 850 166 850 166 864 171 c 0,63,64
 904 192 904 192 944 212 c 1,65,-1
 959 209 l 1,0,1
537 506 m 0,66,67
 537 569 537 569 477.5 622 c 128,-1,68
 418 675 418 675 353 675 c 2,69,-1
 340 675 l 1,70,-1
 340 301 l 1,71,72
 365 326 365 326 425 368 c 0,73,74
 482 409 482 409 503 431 c 0,75,76
 537 467 537 467 537 506 c 0,66,67
EndSplineSet
EndChar

StartChar: S
Encoding: 83 83 54
Width: 800
GlyphClass: 1
Flags: W
LayerCount: 2
Fore
SplineSet
788 309 m 0,0,1
 788 234 788 234 681 113 c 0,2,3
 570 -12 570 -12 489 -12 c 0,4,5
 439 -12 439 -12 333.5 26 c 128,-1,6
 228 64 228 64 139 64 c 0,7,8
 92 64 92 64 74 51 c 0,9,10
 50 33 50 33 32 29 c 1,11,12
 26 35 26 35 26 37 c 0,13,14
 26 73 26 73 102 145 c 0,15,16
 173 213 173 213 197 215 c 0,17,18
 203 215 203 215 225 221.5 c 128,-1,19
 247 228 247 228 294 228 c 0,20,21
 378 228 378 228 427 213 c 0,22,23
 561 168 561 168 622 153 c 0,24,25
 623 154 623 154 623 163 c 0,26,27
 623 213 623 213 570.5 263.5 c 128,-1,28
 518 314 518 314 465 314 c 2,29,-1
 387 314 l 2,30,31
 384 314 384 314 378 318 c 128,-1,32
 372 322 372 322 369 322 c 2,33,-1
 296 322 l 2,34,35
 281 322 281 322 212 349 c 0,36,37
 156 371 156 371 141 379 c 0,38,39
 122 388 122 388 101 434 c 0,40,41
 82 477 82 477 82 497 c 0,42,43
 82 560 82 560 132 632 c 0,44,45
 180 699 180 699 257 755 c 0,46,47
 277 773 277 773 298 791 c 0,48,49
 333 821 333 821 349 821 c 0,50,51
 354 821 354 821 357 818 c 0,52,53
 366 809 366 809 416.5 784.5 c 128,-1,54
 467 760 467 760 478 760 c 0,55,56
 481 760 481 760 483 761 c 128,-1,57
 485 762 485 762 488 762 c 0,58,59
 490 762 490 762 505.5 754 c 128,-1,60
 521 746 521 746 528 745 c 0,61,62
 622 729 622 729 664 729 c 0,63,64
 693 729 693 729 696.5 730.5 c 128,-1,65
 700 732 700 732 741 752 c 1,66,-1
 756 748 l 1,67,68
 720 670 720 670 649.5 617.5 c 128,-1,69
 579 565 579 565 514 565 c 0,70,71
 427 565 427 565 360 584 c 0,72,73
 263 612 263 612 256 614 c 1,74,75
 264 595 264 595 272 577 c 0,76,77
 284 553 284 553 299 545 c 0,78,79
 410 487 410 487 487 487 c 0,80,81
 489 487 489 487 499.5 488 c 128,-1,82
 510 489 510 489 513 489 c 256,83,84
 516 489 516 489 536 484 c 128,-1,85
 556 479 556 479 559 479 c 2,86,-1
 632 479 l 2,87,88
 671 479 671 479 722.5 436 c 128,-1,89
 774 393 774 393 779 359 c 0,90,91
 781 348 781 348 784.5 340.5 c 128,-1,92
 788 333 788 333 788 309 c 0,0,1
EndSplineSet
EndChar

StartChar: T
Encoding: 84 84 55
Width: 877
GlyphClass: 1
Flags: W
LayerCount: 2
Fore
SplineSet
903 843 m 2,0,1
 904 822 904 822 811 733 c 0,2,3
 723 648 723 648 700 637 c 1,4,5
 719 576 719 576 721 557 c 0,6,7
 722 554 722 554 722 503 c 0,8,9
 722 429 722 429 707 383 c 0,10,11
 679 293 679 293 529 142 c 0,12,13
 377 -13 377 -13 306 -13 c 0,14,15
 250 -13 250 -13 199 24 c 0,16,17
 139 67 139 67 139 131 c 0,18,19
 139 174 139 174 211 245 c 0,20,21
 279 311 279 311 310 313 c 1,22,23
 311 293 311 293 321 253 c 1,24,25
 332 230 332 230 368.5 199.5 c 128,-1,26
 405 169 405 169 421 169 c 0,27,28
 424 169 424 169 425 170 c 128,-1,29
 426 171 426 171 429 171 c 256,30,31
 432 171 432 171 444 166 c 128,-1,32
 456 161 456 161 460 161 c 0,33,34
 479 161 479 161 509 202 c 0,35,36
 529 231 529 231 536 248 c 0,37,38
 548 275 548 275 548 344 c 0,39,40
 548 400 548 400 546 406 c 0,41,42
 533 442 533 442 523 485 c 0,43,44
 519 502 519 502 507 525 c 0,45,46
 485 567 485 567 436 612 c 0,47,48
 430 617 430 617 402.5 622.5 c 128,-1,49
 375 628 375 628 370 637 c 1,50,-1
 136 637 l 1,51,52
 120 620 120 620 85 590 c 0,53,54
 37 548 37 548 25 548 c 2,55,-1
 11 548 l 1,56,-1
 11 565 l 2,57,58
 11 588 11 588 113 699 c 128,-1,59
 215 810 215 810 245 809 c 2,60,-1
 675 809 l 1,61,62
 718 802 718 802 746 802 c 0,63,64
 790 802 790 802 821 817 c 0,65,66
 837 824 837 824 859 844 c 0,67,68
 876 858 876 858 887 858 c 2,69,-1
 903 858 l 1,70,-1
 903 843 l 2,0,1
EndSplineSet
EndChar

StartChar: U
Encoding: 85 85 56
Width: 1019
GlyphClass: 1
Flags: W
LayerCount: 2
Fore
SplineSet
1006 222 m 0,0,1
 1006 189 1006 189 905 86 c 0,2,3
 802 -21 802 -21 761 -18 c 1,4,5
 730 23 730 23 698 64 c 0,6,7
 662 115 662 115 664 168 c 1,8,9
 542 57 542 57 499 34 c 0,10,11
 446 7 446 7 343 7 c 0,12,13
 261 7 261 7 232 13 c 0,14,15
 171 27 171 27 108 82 c 1,16,17
 95 113 95 113 83 144 c 0,18,19
 62 196 62 196 62 218 c 0,20,21
 62 267 62 267 65 298 c 0,22,23
 67 324 67 324 103 434 c 0,24,25
 125 501 125 501 140 530 c 0,26,27
 154 555 154 555 190 598 c 0,28,29
 189 599 189 599 103 599 c 1,30,31
 87 607 87 607 57 619 c 1,32,33
 55 648 55 648 128.5 722.5 c 128,-1,34
 202 797 202 797 235 797 c 0,35,36
 237 797 237 797 255 788.5 c 128,-1,37
 273 780 273 780 281 780 c 2,38,-1
 436 776 l 1,39,40
 426 739 426 739 359.5 676.5 c 128,-1,41
 293 614 293 614 291 609 c 0,42,43
 246 486 246 486 246 412 c 0,44,45
 246 188 246 188 510 188 c 0,46,47
 571 188 571 188 600 196 c 0,48,49
 666 215 666 215 666 274 c 0,50,51
 666 277 666 277 662 302.5 c 128,-1,52
 658 328 658 328 658 331 c 2,53,-1
 658 483 l 1,54,55
 658 483 658 483 653.5 516 c 128,-1,56
 649 549 649 549 648 575 c 1,57,58
 629 591 629 591 609 607 c 0,59,60
 574 637 574 637 574 649 c 0,61,62
 574 676 574 676 647 749 c 128,-1,63
 720 822 720 822 748 822 c 1,64,65
 821 770 821 770 829 754 c 1,66,67
 830 741 830 741 834.5 710.5 c 128,-1,68
 839 680 839 680 839 679 c 2,69,-1
 839 509 l 2,70,71
 839 505 839 505 843 496 c 128,-1,72
 847 487 847 487 847 484 c 2,73,-1
 847 300 l 2,74,75
 847 284 847 284 883 238 c 0,76,77
 913 199 913 199 923 190 c 1,78,79
 942 204 942 204 961 219 c 0,80,81
 984 235 984 235 1002 238 c 0,82,83
 1006 235 1006 235 1006 222 c 0,0,1
EndSplineSet
EndChar

StartChar: V
Encoding: 86 86 57
Width: 886
GlyphClass: 1
Flags: W
LayerCount: 2
Fore
SplineSet
874 483 m 1,0,1
 874 483 874 483 854 434 c 0,2,3
 808 320 808 320 754 230 c 0,4,5
 739 205 739 205 638 102 c 0,6,7
 522 -16 522 -16 489 -16 c 0,8,9
 481 -16 481 -16 474 -5 c 1,10,11
 458 -16 458 -16 447 -16 c 256,12,13
 436 -16 436 -16 339 52 c 0,14,15
 237 123 237 123 199 161 c 1,16,-1
 199 504 l 2,17,18
 199 506 199 506 202 516 c 128,-1,19
 205 526 205 526 205 533 c 1,20,21
 177 552 177 552 114 598 c 1,22,23
 94 582 94 582 73 566 c 0,24,25
 34 537 34 537 24 537 c 2,26,-1
 13 537 l 1,27,28
 9 541 9 541 9 550 c 0,29,30
 9 590 9 590 121.5 696.5 c 128,-1,31
 234 803 234 803 268 803 c 0,32,33
 273 803 273 803 321 769.5 c 128,-1,34
 369 736 369 736 394 715 c 1,35,36
 396 702 396 702 392 684 c 0,37,38
 387 662 387 662 387 660 c 2,39,-1
 387 346 l 1,40,41
 424 310 424 310 492 263 c 0,42,43
 615 179 615 179 618 177 c 1,44,45
 633 201 633 201 658.5 255 c 128,-1,46
 684 309 684 309 684 314 c 2,47,-1
 684 426 l 2,48,49
 684 433 684 433 673 468 c 0,50,51
 662 508 662 508 651 527 c 0,52,53
 598 618 598 618 564 661 c 0,54,55
 545 685 545 685 545 687 c 0,56,57
 545 721 545 721 627 801 c 128,-1,58
 709 881 709 881 729 871 c 1,59,60
 782 816 782 816 820 750 c 0,61,62
 866 671 866 671 871 608 c 0,63,64
 874 573 874 573 874 483 c 1,0,1
EndSplineSet
EndChar

StartChar: W
Encoding: 87 87 58
Width: 1089
GlyphClass: 1
Flags: W
LayerCount: 2
Fore
SplineSet
1084 562 m 0,0,1
 1084 560 1084 560 1085 528 c 0,2,3
 1086 507 1086 507 1084 492 c 0,4,5
 1081 471 1081 471 1072 449 c 0,6,7
 1030 351 1030 351 920 182 c 0,8,9
 898 150 898 150 827 80 c 0,10,11
 746 0 746 0 721 0 c 2,12,-1
 707 0 l 1,13,14
 706 5 706 5 702 14 c 1,15,16
 693 8 693 8 685 8 c 0,17,18
 668 8 668 8 585 82 c 0,19,20
 523 138 523 138 488 174 c 1,21,22
 425 113 425 113 363 53 c 1,23,24
 300 0 300 0 245 0 c 0,25,26
 151 0 151 0 95 83 c 0,27,28
 50 150 50 150 44 243 c 0,29,30
 41 281 41 281 41 331 c 0,31,32
 41 410 41 410 158 585 c 0,33,34
 156 587 156 587 75 587 c 0,35,36
 70 587 70 587 52 598 c 1,37,38
 54 618 54 618 117 691 c 0,39,40
 186 771 186 771 224 771 c 0,41,42
 227 771 227 771 235.5 767 c 128,-1,43
 244 763 244 763 249 763 c 2,44,-1
 365 759 l 1,45,46
 365 739 365 739 334 700 c 0,47,48
 307 670 307 670 280 638 c 128,-1,49
 253 606 253 606 236 550 c 0,50,51
 220 500 220 500 220 459 c 0,52,53
 220 368 220 368 257 287 c 0,54,55
 307 176 307 176 402 176 c 0,56,57
 431 176 431 176 463 218 c 0,58,59
 492 257 492 257 492 281 c 2,60,-1
 492 406 l 2,61,62
 492 409 492 409 488 415.5 c 128,-1,63
 484 422 484 422 484 425 c 2,64,-1
 484 576 l 1,65,66
 466 590 466 590 448 604 c 0,67,68
 427 624 427 624 427 639 c 0,69,70
 427 678 427 678 506 748 c 0,71,72
 580 812 580 812 600 812 c 1,73,74
 605 796 605 796 623.5 781 c 128,-1,75
 642 766 642 766 660 751 c 1,76,-1
 660 596 l 2,77,78
 660 593 660 593 665.5 568 c 128,-1,79
 671 543 671 543 671 536 c 0,80,81
 671 464 671 464 665.5 427.5 c 128,-1,82
 660 391 660 391 660 380 c 0,83,84
 660 342 660 342 729 282 c 0,85,86
 783 239 783 239 838 195 c 1,87,88
 863 244 863 244 889 293 c 1,89,90
 907 337 907 337 907 399 c 0,91,92
 907 551 907 551 777 655 c 1,93,94
 776 683 776 683 847.5 755.5 c 128,-1,95
 919 828 919 828 951 828 c 0,96,97
 970 828 970 828 1003 779 c 0,98,99
 1065 684 1065 684 1074 661 c 0,100,101
 1084 635 1084 635 1084 562 c 0,0,1
EndSplineSet
EndChar

StartChar: X
Encoding: 88 88 59
Width: 1091
GlyphClass: 1
Flags: W
LayerCount: 2
Fore
SplineSet
1087 796 m 1,0,1
 1054 710 1054 710 966 641.5 c 128,-1,2
 878 573 878 573 800 573 c 0,3,4
 774 573 774 573 768.5 574.5 c 128,-1,5
 763 576 763 576 727 595 c 1,6,-1
 621 457 l 1,7,8
 704 369 704 369 786 281 c 1,9,10
 869 201 869 201 953 201 c 0,11,12
 1012 201 1012 201 1022 211 c 0,13,14
 1041 229 1041 229 1077 239 c 1,15,16
 1080 235 1080 235 1080 228 c 0,17,18
 1080 186 1080 186 981 102 c 0,19,20
 886 21 886 21 849 21 c 1,21,22
 855 21 855 21 838 21 c 0,23,24
 814 22 814 22 737 23 c 0,25,26
 714 24 714 24 680 53 c 0,27,28
 633 94 633 94 633 94 c 1,29,30
 602 112 602 112 567 149 c 0,31,32
 521 200 521 200 475 250 c 1,33,34
 438 184 438 184 360 102 c 0,35,36
 261 -1 261 -1 201 -1 c 1,37,38
 202 -1 202 -1 166 23.5 c 128,-1,39
 130 48 130 48 95 48 c 0,40,41
 81 48 81 48 48 33.5 c 128,-1,42
 15 19 15 19 2 19 c 1,43,44
 28 90 28 90 109.5 158 c 128,-1,45
 191 226 191 226 257 226 c 0,46,47
 288 226 288 226 317 215 c 0,48,49
 343 205 343 205 346 196 c 1,50,51
 370 229 370 229 421 298 c 1,52,53
 348 373 348 373 274 448 c 0,54,55
 187 540 187 540 154 611 c 1,56,57
 149 609 149 609 109 580 c 0,58,59
 79 559 79 559 59 561 c 1,60,61
 78 625 78 625 173 707 c 0,62,63
 262 784 262 784 322 800 c 1,64,65
 348 751 348 751 408 660 c 1,66,67
 471 598 471 598 571 499 c 1,68,69
 605 535 605 535 673 619 c 0,70,71
 738 699 738 699 771 732 c 0,72,73
 826 785 826 785 872 800 c 1,74,75
 877 791 877 791 872 777 c 1,76,77
 904 770 904 770 929 759 c 0,78,79
 945 751 945 751 962 751 c 0,80,81
 987 751 987 751 1018 767 c 0,82,83
 1063 789 1063 789 1087 796 c 1,0,1
EndSplineSet
EndChar

StartChar: Y
Encoding: 89 89 60
Width: 880
GlyphClass: 1
Flags: W
LayerCount: 2
Fore
SplineSet
868 143 m 0,0,1
 868 88 868 88 797 3 c 0,2,3
 733 -72 733 -72 647 -133.5 c 128,-1,4
 561 -195 561 -195 519 -195 c 0,5,6
 517 -195 517 -195 459 -178 c 128,-1,7
 401 -161 401 -161 387 -159 c 0,8,9
 292 -143 292 -143 235 -143 c 0,10,11
 104 -143 104 -143 -3 -195 c 1,12,-1
 -15 -191 l 1,13,14
 91 19 91 19 379 19 c 0,15,16
 419 19 419 19 470 12 c 0,17,18
 499 11 499 11 547 3 c 1,19,20
 645 -34 645 -34 665 -34 c 0,21,22
 678 -34 678 -34 692.5 -23.5 c 128,-1,23
 707 -13 707 -13 707 -3 c 0,24,25
 707 6 707 6 701.5 39 c 128,-1,26
 696 72 696 72 691 81 c 0,27,28
 677 113 677 113 636 136 c 0,29,30
 605 153 605 153 573 171 c 1,31,32
 574 197 574 197 564 220 c 1,33,34
 433 66 433 66 328 66 c 0,35,36
 274 66 274 66 202 101 c 0,37,38
 119 142 119 142 74 203 c 1,39,40
 72 217 72 217 57.5 264 c 128,-1,41
 43 311 43 311 43 322 c 0,42,43
 43 349 43 349 49.5 357.5 c 128,-1,44
 56 366 56 366 57 373 c 0,45,46
 60 398 60 398 62 423 c 0,47,48
 65 457 65 457 76 480 c 0,49,50
 91 509 91 509 120 550 c 0,51,52
 166 614 166 614 168 616 c 1,53,54
 166 618 166 618 87 618 c 0,55,56
 78 620 78 620 59 627 c 1,57,58
 50 646 50 646 119 716 c 128,-1,59
 188 786 188 786 217 786 c 0,60,61
 220 786 220 786 233 782.5 c 128,-1,62
 246 779 246 779 249 779 c 2,63,-1
 373 779 l 2,64,65
 376 776 376 776 376 770 c 0,66,67
 376 749 376 749 317 688 c 0,68,69
 248 615 248 615 238 598 c 128,-1,70
 228 581 228 581 224 552 c 0,71,72
 221 529 221 529 219 507 c 0,73,74
 218 501 218 501 211.5 487 c 128,-1,75
 205 473 205 473 205 468 c 0,76,77
 205 467 205 467 220.5 422 c 128,-1,78
 236 377 236 377 235 361 c 0,79,80
 238 358 238 358 264 327 c 0,81,82
 287 299 287 299 309 287 c 0,83,84
 416 227 416 227 475 227 c 0,85,86
 496 227 496 227 517 240 c 0,87,88
 552 261 552 261 565 266 c 1,89,-1
 565 601 l 1,90,91
 524 633 524 633 468 665 c 1,92,93
 470 684 470 684 528 750 c 0,94,95
 591 824 591 824 626 824 c 0,96,97
 634 824 634 824 670 795.5 c 128,-1,98
 706 767 706 767 724 764 c 1,99,100
 727 754 727 754 727 743 c 0,101,102
 727 731 727 731 723 716 c 128,-1,103
 719 701 719 701 719 699 c 2,104,-1
 719 504 l 2,105,106
 719 501 719 501 723 491 c 128,-1,107
 727 481 727 481 727 477 c 2,108,-1
 727 377 l 2,109,110
 727 376 727 376 731 357.5 c 128,-1,111
 735 339 735 339 735 331 c 1,112,113
 868 284 868 284 868 143 c 0,0,1
EndSplineSet
EndChar

StartChar: Z
Encoding: 90 90 61
Width: 999
GlyphClass: 1
Flags: W
LayerCount: 2
Fore
SplineSet
995 262 m 0,0,1
 995 228 995 228 875 116 c 128,-1,2
 755 4 755 4 713 -7 c 0,3,4
 702 -10 702 -10 678 -24 c 0,5,6
 665 -31 665 -31 620 -31 c 0,7,8
 573 -31 573 -31 447.5 14.5 c 128,-1,9
 322 60 322 60 262 60 c 0,10,11
 211 60 211 60 154 43 c 0,12,13
 114 31 114 31 74 11 c 0,14,15
 38 -6 38 -6 40 -6 c 1,16,-1
 26 -6 l 2,17,18
 22 -3 22 -3 22 6 c 0,19,20
 22 80 22 80 303 342 c 1,21,22
 300 344 300 344 283 344 c 0,23,24
 255 344 255 344 234 334 c 0,25,26
 209 322 209 322 185 311 c 1,27,-1
 165 315 l 1,28,29
 172 362 172 362 265.5 443 c 128,-1,30
 359 524 359 524 410 524 c 2,31,-1
 501 524 l 1,32,-1
 567 581 l 1,33,34
 564 583 564 583 556 580 c 128,-1,35
 548 577 548 577 546 577 c 2,36,-1
 307 577 l 2,37,38
 304 577 304 577 269.5 591 c 128,-1,39
 235 605 235 605 232 605 c 0,40,41
 113 494 113 494 95 494 c 2,42,-1
 78 494 l 1,43,-1
 78 509 l 2,44,45
 78 534 78 534 207.5 667 c 128,-1,46
 337 800 337 800 371 800 c 0,47,48
 375 800 375 800 426 779 c 128,-1,49
 477 758 477 758 496 758 c 2,50,-1
 698 758 l 2,51,52
 710 758 710 758 767 777 c 0,53,54
 819 794 819 794 832 800 c 1,55,-1
 860 796 l 1,56,57
 861 765 861 765 805 710 c 0,58,59
 773 678 773 678 685 606 c 0,60,61
 601 537 601 537 572 507 c 1,62,63
 619 493 619 493 624.5 492 c 128,-1,64
 630 491 630 491 660 491 c 0,65,66
 707 491 707 491 724 501 c 0,67,68
 757 520 757 520 791 530 c 1,69,70
 795 527 795 527 795 520 c 0,71,72
 795 481 795 481 706 407 c 0,73,74
 643 356 643 356 606 335.5 c 128,-1,75
 569 315 569 315 545 311 c 0,76,77
 539 311 539 311 496 311 c 0,78,79
 439 311 439 311 407.5 322 c 128,-1,80
 376 333 376 333 379 333 c 1,81,82
 375 333 375 333 323.5 287 c 128,-1,83
 272 241 272 241 244 212 c 1,84,85
 278 220 278 220 312 228 c 0,86,87
 371 241 371 241 425 241 c 0,88,89
 495 241 495 241 625 195 c 128,-1,90
 755 149 755 149 782 149 c 0,91,92
 833 149 833 149 873 188 c 0,93,94
 932 246 932 246 991 274 c 1,95,96
 995 268 995 268 995 262 c 0,0,1
EndSplineSet
EndChar

StartChar: bracketleft
Encoding: 91 91 62
Width: 439
GlyphClass: 1
Flags: W
LayerCount: 2
Fore
SplineSet
403 783 m 2,0,1
 403 744 403 744 303 677 c 0,2,3
 209 615 209 615 187 617 c 1,4,-1
 187 284 l 2,5,6
 187 281 187 281 184.5 276.5 c 128,-1,7
 182 272 182 272 182 269 c 2,8,-1
 182 187 l 1,9,10
 186 184 186 184 218 157 c 0,11,12
 240 139 240 139 243 139 c 0,13,14
 244 139 244 139 262 151.5 c 128,-1,15
 280 164 280 164 293 162 c 1,16,17
 286 123 286 123 220 55.5 c 128,-1,18
 154 -12 154 -12 121 -10 c 1,19,20
 117 -2 117 -2 88 18 c 128,-1,21
 59 38 59 38 50 52 c 0,22,23
 46 57 46 57 46 105 c 0,24,25
 46 108 46 108 48.5 136 c 128,-1,26
 51 164 51 164 51 168 c 2,27,-1
 51 653 l 2,28,29
 51 684 51 684 120 740 c 0,30,31
 185 793 185 793 210 793 c 1,32,33
 206 793 206 793 239 774.5 c 128,-1,34
 272 756 272 756 301 756 c 0,35,36
 323 756 323 756 355.5 775.5 c 128,-1,37
 388 795 388 795 392 795 c 2,38,-1
 403 795 l 1,39,-1
 403 783 l 2,0,1
EndSplineSet
EndChar

StartChar: backslash
Encoding: 92 92 63
Width: 886
GlyphClass: 1
Flags: W
LayerCount: 2
Fore
SplineSet
825 140 m 1,0,1
 823 107 823 107 754.5 43 c 128,-1,2
 686 -21 686 -21 644 -21 c 0,3,4
 609 -21 609 -21 564 29 c 0,5,6
 527 73 527 73 490 118 c 0,7,8
 392 227 392 227 295 388 c 0,9,10
 181 578 181 578 142 629 c 1,11,12
 131 622 131 622 118.5 614 c 128,-1,13
 106 606 106 606 94 607 c 1,14,-1
 91 622 l 1,15,16
 120 673 120 673 174 728 c 0,17,18
 233 788 233 788 272 799 c 1,19,20
 300 762 300 762 348 693 c 1,21,22
 484 474 484 474 538 394 c 0,23,24
 718 129 718 129 776 129 c 0,25,26
 779 129 779 129 798 135.5 c 128,-1,27
 817 142 817 142 825 140 c 1,0,1
EndSplineSet
EndChar

StartChar: bracketright
Encoding: 93 93 64
Width: 559
GlyphClass: 1
Flags: W
LayerCount: 2
Fore
SplineSet
491 741 m 1,0,1
 491 734 491 734 488.5 718.5 c 128,-1,2
 486 703 486 703 486 700 c 2,3,-1
 486 410 l 2,4,5
 486 407 486 407 483.5 403.5 c 128,-1,6
 481 400 481 400 481 397 c 2,7,-1
 481 237 l 2,8,9
 481 214 481 214 405 106 c 0,10,11
 323 -11 323 -11 281 -11 c 1,12,13
 281 -11 281 -11 235.5 11.5 c 128,-1,14
 190 34 190 34 179 34 c 0,15,16
 171 34 171 34 149 21 c 0,17,18
 132 10 132 10 116 0 c 1,19,-1
 101 0 l 1,20,21
 106 38 106 38 184.5 105 c 128,-1,22
 263 172 263 172 303 172 c 1,23,24
 303 172 303 172 343 156 c 1,25,26
 344 216 344 216 346 281 c 1,27,28
 351 294 351 294 351 294 c 1,29,-1
 351 585 l 2,30,31
 351 589 351 589 353.5 595.5 c 128,-1,32
 356 602 356 602 356 607 c 1,33,34
 350 611 350 611 297.5 633 c 128,-1,35
 245 655 245 655 239 655 c 0,36,37
 236 655 236 655 229 649.5 c 128,-1,38
 222 644 222 644 219 644 c 2,39,-1
 208 644 l 1,40,41
 202 651 202 651 202 652 c 0,42,43
 202 674 202 674 268 739 c 128,-1,44
 334 804 334 804 355 804 c 0,45,46
 361 804 361 804 415 779 c 0,47,48
 473 753 473 753 491 741 c 1,0,1
EndSplineSet
EndChar

StartChar: asciicircum
Encoding: 94 94 65
Width: 736
GlyphClass: 1
Flags: W
LayerCount: 2
Fore
SplineSet
664 677 m 1,0,1
 648 633 648 633 575 569 c 0,2,3
 499 501 499 501 455 501 c 0,4,5
 419 501 419 501 353 548 c 128,-1,6
 287 595 287 595 266 633 c 1,7,8
 223 588 223 588 180 544 c 0,9,10
 126 491 126 491 104 492 c 1,11,-1
 101 505 l 1,12,13
 158 584 158 584 240 670 c 0,14,15
 341 778 341 778 386 789 c 1,16,17
 397 758 397 758 464 701 c 0,18,19
 537 638 537 638 579 638 c 0,20,21
 593 638 593 638 618 658 c 128,-1,22
 643 678 643 678 655 678 c 0,23,24
 660 678 660 678 664 677 c 1,0,1
EndSplineSet
EndChar

StartChar: underscore
Encoding: 95 95 66
Width: 686
GlyphClass: 1
Flags: W
LayerCount: 2
Fore
SplineSet
676 -4 m 2,0,1
 676 -34 676 -34 600 -82 c 0,2,3
 534 -124 534 -124 516 -126 c 0,4,5
 503 -128 503 -128 438 -139 c 0,6,7
 401 -145 401 -145 363 -145 c 0,8,9
 246 -145 246 -145 159 -130 c 0,10,11
 148 -128 148 -128 111.5 -118 c 128,-1,12
 75 -108 75 -108 73 -108 c 1,13,14
 74 -108 74 -108 45 -128.5 c 128,-1,15
 16 -149 16 -149 3 -149 c 0,16,17
 0 -149 0 -149 -2.5 -147.5 c 128,-1,18
 -5 -146 -5 -146 -6 -146 c 1,19,20
 -3 -124 -3 -124 35 -88 c 0,21,22
 69 -56 69 -56 94 -43 c 0,23,24
 107 -32 107 -32 121 -20 c 0,25,26
 144 -1 144 -1 156 -1 c 0,27,28
 157 -1 157 -1 198 -12.5 c 128,-1,29
 239 -24 239 -24 256 -27 c 0,30,31
 342 -39 342 -39 456 -39 c 0,32,33
 513 -39 513 -39 602 -23 c 1,34,35
 627 -9 627 -9 676 7 c 1,36,-1
 676 -4 l 2,0,1
EndSplineSet
EndChar

StartChar: grave
Encoding: 96 96 67
Width: 397
GlyphClass: 1
Flags: W
LayerCount: 2
Fore
SplineSet
289 615 m 5,0,1
 281 586 281 586 243 551 c 132,-1,2
 205 516 205 516 175 516 c 4,3,4
 141 516 141 516 119 557 c 4,5,6
 102 590 102 590 102 620 c 4,7,8
 102 676 102 676 139 720 c 4,9,10
 170 756 170 756 241 799 c 5,11,12
 246 794 246 794 246 793 c 4,13,14
 246 787 246 787 223 759 c 132,-1,15
 200 731 200 731 200 708 c 4,16,17
 200 681 200 681 216 651 c 4,18,19
 235 615 235 615 264 615 c 6,20,21
 264 615 264 615 272 615 c 132,-1,22
 280 615 280 615 289 615 c 5,0,1
EndSplineSet
EndChar

StartChar: a
Encoding: 97 97 68
Width: 676
GlyphClass: 1
Flags: W
LayerCount: 2
Fore
SplineSet
649 138 m 1,0,1
 641 115 641 115 583 50 c 0,2,3
 520 -22 520 -22 491 -22 c 0,4,5
 487 -22 487 -22 443 19 c 0,6,7
 396 62 396 62 394 78 c 1,8,9
 368 44 368 44 303 11 c 128,-1,10
 238 -22 238 -22 201 -22 c 0,11,12
 138 -22 138 -22 95 35 c 0,13,14
 58 84 58 84 58 137 c 0,15,16
 58 267 58 267 175 404 c 0,17,18
 279 526 279 526 372 552 c 0,19,20
 375 553 375 553 386 559 c 128,-1,21
 397 565 397 565 401 565 c 1,22,23
 400 565 400 565 429.5 544.5 c 128,-1,24
 459 524 459 524 494 524 c 0,25,26
 531 524 531 524 547 532 c 0,27,28
 560 539 560 539 577 537 c 1,29,30
 580 513 580 513 531 466 c 1,31,-1
 531 381 l 2,32,33
 531 377 531 377 534 367 c 128,-1,34
 537 357 537 357 537 354 c 2,35,-1
 537 199 l 1,36,37
 563 174 563 174 613 128 c 1,38,39
 640 140 640 140 649 138 c 1,0,1
396 142 m 1,40,-1
 396 215 l 2,41,42
 396 219 396 219 393 229 c 128,-1,43
 390 239 390 239 390 242 c 2,44,-1
 390 379 l 2,45,46
 388 380 388 380 350 380 c 0,47,48
 332 380 332 380 305 399 c 0,49,50
 286 413 286 413 267 427 c 1,51,52
 236 411 236 411 216 354 c 0,53,54
 199 306 199 306 199 265 c 0,55,56
 199 219 199 219 233 173 c 0,57,58
 272 119 272 119 327 119 c 0,59,60
 349 119 349 119 396 142 c 1,40,-1
EndSplineSet
EndChar

StartChar: b
Encoding: 98 98 69
Width: 581
GlyphClass: 1
Flags: W
LayerCount: 2
Fore
SplineSet
568 411 m 0,0,1
 568 380 568 380 566 370 c 128,-1,2
 564 360 564 360 543 306 c 0,3,4
 519 245 519 245 390 115 c 0,5,6
 257 -19 257 -19 212 -19 c 0,7,8
 194 -19 194 -19 120 50 c 1,9,-1
 120 154 l 2,10,11
 120 157 120 157 122.5 159.5 c 128,-1,12
 125 162 125 162 125 165 c 2,13,-1
 125 597 l 1,14,15
 107 613 107 613 88 630 c 0,16,17
 65 650 65 650 57 650 c 0,18,19
 54 650 54 650 34 636 c 128,-1,20
 14 622 14 622 4 620 c 1,21,22
 0 624 0 624 0 631 c 0,23,24
 0 658 0 658 72.5 729 c 128,-1,25
 145 800 145 800 169 800 c 0,26,27
 175 800 175 800 220.5 768 c 128,-1,28
 266 736 266 736 264 725 c 2,29,-1
 266 473 l 1,30,31
 299 507 299 507 342 536 c 0,32,33
 396 571 396 571 431 571 c 0,34,35
 486 571 486 571 529 513 c 0,36,37
 568 460 568 460 568 411 c 0,0,1
430 287 m 0,38,39
 430 329 430 329 393 378 c 0,40,41
 353 433 353 433 306 433 c 0,42,43
 293 433 293 433 285 428 c 0,44,45
 266 417 266 417 264 416 c 2,46,-1
 264 282 l 2,47,48
 264 279 264 279 261 276.5 c 128,-1,49
 258 274 258 274 258 271 c 2,50,-1
 258 183 l 1,51,52
 325 126 325 126 333 126 c 0,53,54
 339 126 339 126 367 153.5 c 128,-1,55
 395 181 395 181 398 186 c 0,56,57
 430 237 430 237 430 287 c 0,38,39
EndSplineSet
EndChar

StartChar: c
Encoding: 99 99 70
Width: 545
GlyphClass: 1
Flags: W
LayerCount: 2
Fore
SplineSet
567 565 m 0,0,1
 567 527 567 527 472 457 c 0,2,3
 387 395 387 395 369 394 c 0,4,5
 363 393 363 393 347 391.5 c 128,-1,6
 331 390 331 390 328 390 c 0,7,8
 272 390 272 390 221 442 c 1,9,10
 198 408 198 408 198 330 c 0,11,12
 198 257 198 257 235 203 c 0,13,14
 281 136 281 136 366 136 c 0,15,16
 395 136 395 136 430 154 c 0,17,18
 483 181 483 181 508 190 c 1,19,20
 493 129 493 129 400 62.5 c 128,-1,21
 307 -4 307 -4 240 -4 c 0,22,23
 152 -4 152 -4 102 60 c 0,24,25
 58 118 58 118 58 205 c 0,26,27
 58 206 58 206 65 277 c 0,28,29
 70 326 70 326 138 425 c 0,30,31
 153 446 153 446 218 511 c 0,32,33
 299 590 299 590 325 590 c 0,34,35
 347 590 347 590 378.5 560 c 128,-1,36
 410 530 410 530 454 530 c 0,37,38
 478 530 478 530 501 543 c 0,39,40
 539 565 539 565 561 573 c 1,41,42
 567 567 567 567 567 565 c 0,0,1
EndSplineSet
EndChar

StartChar: d
Encoding: 100 100 71
Width: 587
GlyphClass: 1
Flags: W
LayerCount: 2
Fore
SplineSet
540 372 m 1,0,1
 540 374 540 374 541.5 352 c 128,-1,2
 543 330 543 330 543 314 c 0,3,4
 542 292 542 292 536 282 c 0,5,6
 476 178 476 178 403 100 c 0,7,8
 298 -13 298 -13 213 -13 c 0,9,10
 138 -13 138 -13 95 61 c 0,11,12
 60 119 60 119 60 184 c 0,13,14
 60 271 60 271 136 379.5 c 128,-1,15
 212 488 212 488 296 527 c 1,16,17
 305 513 305 513 306 512 c 0,18,19
 315 501 315 501 325 501 c 2,20,-1
 394 501 l 1,21,22
 398 507 398 507 396 520 c 0,23,24
 394 540 394 540 394 539 c 1,25,-1
 394 603 l 2,26,27
 394 611 394 611 364 632 c 0,28,29
 330 656 330 656 327 660 c 1,30,31
 317 652 317 652 306 645 c 0,32,33
 292 637 292 637 275 637 c 1,34,35
 275 668 275 668 348 733 c 128,-1,36
 421 798 421 798 445 798 c 0,37,38
 449 798 449 798 489 765.5 c 128,-1,39
 529 733 529 733 529 727 c 2,40,-1
 529 640 l 2,41,42
 529 638 529 638 532 626.5 c 128,-1,43
 535 615 535 615 535 612 c 2,44,-1
 535 478 l 1,45,46
 535 478 535 478 537.5 433 c 128,-1,47
 540 388 540 388 540 372 c 1,0,1
404 266 m 2,48,-1
 398 435 l 1,49,50
 384 424 384 424 347 400 c 0,51,52
 297 368 297 368 285 368 c 2,53,-1
 204 368 l 1,54,55
 203 360 203 360 199 343 c 0,56,57
 196 331 196 331 196 299 c 0,58,59
 196 228 196 228 234 176 c 0,60,61
 280 113 280 113 359 120 c 1,62,63
 394 155 394 155 402 192 c 0,64,65
 404 205 404 205 404 266 c 2,48,-1
EndSplineSet
EndChar

StartChar: e
Encoding: 101 101 72
Width: 543
GlyphClass: 1
Flags: W
LayerCount: 2
Fore
SplineSet
531 183 m 0,0,1
 531 147 531 147 436 76 c 0,2,3
 354 15 354 15 329 8 c 0,4,5
 291 -3 291 -3 266 -3 c 0,6,7
 240 -3 240 -3 179.5 15.5 c 128,-1,8
 119 34 119 34 100 49 c 0,9,10
 40 96 40 96 40 212 c 0,11,12
 40 415 40 415 309 562 c 1,13,14
 316 549 316 549 348.5 536 c 128,-1,15
 381 523 381 523 415 523 c 0,16,17
 434 523 434 523 443 530 c 0,18,19
 456 539 456 539 473 544 c 1,20,21
 477 540 477 540 477 535 c 0,22,23
 477 523 477 523 449 490 c 0,24,25
 365 392 365 392 297 392 c 0,26,27
 278 392 278 392 243 401 c 0,28,29
 205 411 205 411 191 421 c 1,30,31
 184 408 184 408 174 378 c 1,32,-1
 175 310 l 1,33,34
 176 312 176 312 197.5 327.5 c 128,-1,35
 219 343 219 343 226 343 c 0,36,37
 301 328 301 328 307 328 c 0,38,39
 374 328 374 328 405 349 c 0,40,41
 458 385 458 385 481 393 c 1,42,-1
 484 383 l 1,43,44
 437 307 437 307 363 254.5 c 128,-1,45
 289 202 289 202 217 195 c 1,46,47
 227 176 227 176 285 152 c 128,-1,48
 343 128 343 128 384 128 c 0,49,50
 424 128 424 128 456 150 c 0,51,52
 504 183 504 183 527 192 c 1,53,54
 531 188 531 188 531 183 c 0,0,1
EndSplineSet
EndChar

StartChar: f
Encoding: 102 102 73
Width: 469
GlyphClass: 1
Flags: W
LayerCount: 2
Fore
SplineSet
507 568 m 1,0,1
 507 531 507 531 426 462 c 128,-1,2
 345 393 345 393 306 393 c 0,3,4
 241 393 241 393 210 425 c 1,5,6
 201 360 201 360 199 323 c 0,7,8
 192 188 192 188 111 48 c 0,9,10
 26 -99 26 -99 -109 -195 c 1,11,12
 -116 -188 -116 -188 -116 -187 c 0,13,14
 -116 -182 -116 -182 -55 -91 c 0,15,16
 16 17 16 17 30 39 c 0,17,18
 35 47 35 47 52 133 c 0,19,20
 70 227 70 227 70 264 c 2,21,-1
 70 511 l 1,22,23
 70 506 70 506 66 545 c 0,24,25
 63 579 63 579 66 597 c 0,26,27
 68 612 68 612 97 645 c 0,28,29
 123 675 123 675 149 704 c 0,30,31
 233 803 233 803 295 832 c 1,32,-1
 307 832 l 1,33,34
 309 812 309 812 339 798 c 0,35,36
 364 787 364 787 390 787 c 0,37,38
 420 787 420 787 439 794 c 0,39,40
 464 805 464 805 489 816 c 1,41,-1
 501 816 l 1,42,-1
 501 804 l 2,43,44
 501 783 501 783 442 729 c 0,45,46
 388 680 388 680 370 673 c 0,47,48
 309 651 309 651 267 651 c 0,49,50
 234 651 234 651 205 667 c 1,51,52
 203 652 203 652 209 613 c 1,53,-1
 211 505 l 1,54,55
 295 583 295 583 317 582 c 1,56,57
 365 532 365 532 406 532 c 0,58,59
 433 532 433 532 443 537 c 0,60,61
 478 556 478 556 507 568 c 1,0,1
EndSplineSet
EndChar

StartChar: g
Encoding: 103 103 74
Width: 698
GlyphClass: 1
Flags: W
LayerCount: 2
Fore
SplineSet
661 163 m 0,0,1
 661 45 661 45 549 -75 c 0,2,3
 443 -189 443 -189 353 -189 c 0,4,5
 261 -189 261 -189 179 -152.5 c 128,-1,6
 97 -116 97 -116 36 -116 c 0,7,8
 -18 -116 -18 -116 -32 -126 c 128,-1,9
 -46 -136 -46 -136 -61 -147 c 0,10,11
 -82 -161 -82 -161 -95 -163 c 1,12,-1
 -95 -149 l 2,13,14
 -95 -123 -95 -123 -16 -57 c 0,15,16
 58 4 58 4 77 7 c 0,17,18
 127 16 127 16 155 16 c 0,19,20
 213 16 213 16 301.5 -20.5 c 128,-1,21
 390 -57 390 -57 470 -57 c 0,22,23
 512 -57 512 -57 523 -28 c 0,24,25
 529 -12 529 -12 529 44 c 0,26,27
 529 94 529 94 504 128 c 0,28,29
 474 168 474 168 419 168 c 0,30,31
 412 168 412 168 361 158 c 1,32,33
 360 167 360 167 356 187 c 1,34,35
 304 145 304 145 285 138 c 0,36,37
 270 132 270 132 225 132 c 0,38,39
 167 132 167 132 120 162 c 0,40,41
 63 198 63 198 63 263 c 0,42,43
 63 353 63 353 159 461 c 0,44,45
 248 562 248 562 354 608 c 1,46,47
 382 570 382 570 443 570 c 0,48,49
 463 570 463 570 541 598 c 1,50,-1
 552 598 l 1,51,-1
 552 586 l 2,52,53
 552 577 552 577 522 543 c 0,54,55
 496 513 496 513 490 508 c 1,56,-1
 490 300 l 1,57,58
 497 297 497 297 514 299 c 0,59,60
 538 300 538 300 538 300 c 2,61,62
 601 300 601 300 634 254 c 0,63,64
 661 216 661 216 661 163 c 0,0,1
363 437 m 1,65,-1
 287 437 l 2,66,67
 273 438 273 438 229 469 c 1,68,69
 204 423 204 423 203 421 c 0,70,71
 195 404 195 404 195 382 c 0,72,73
 195 346 195 346 233.5 305 c 128,-1,74
 272 264 272 264 305 264 c 2,75,-1
 358 264 l 1,76,-1
 358 416 l 2,77,78
 358 419 358 419 360.5 427 c 128,-1,79
 363 435 363 435 363 437 c 1,65,-1
EndSplineSet
EndChar

StartChar: h
Encoding: 104 104 75
Width: 754
GlyphClass: 1
Flags: W
LayerCount: 2
Fore
SplineSet
740 102 m 0,0,1
 740 74 740 74 677 19 c 0,2,3
 620 -30 620 -30 603 -34 c 1,4,5
 585 5 585 5 530 5 c 0,6,7
 506 5 506 5 457 -6 c 1,8,-1
 418 -2 l 1,9,10
 441 37 441 37 475 81 c 0,11,12
 502 117 502 117 510 134 c 0,13,14
 522 161 522 161 522 203 c 0,15,16
 522 267 522 267 485 336 c 0,17,18
 438 426 438 426 361 426 c 0,19,20
 342 426 342 426 275 360 c 1,21,-1
 275 247 l 2,22,23
 275 244 275 244 272.5 240.5 c 128,-1,24
 270 237 270 237 270 234 c 2,25,-1
 270 145 l 1,26,27
 270 145 270 145 301 122 c 0,28,29
 325 104 325 104 325 97 c 0,30,31
 325 69 325 69 262 14 c 0,32,33
 206 -35 206 -35 187 -39 c 1,34,35
 181 -32 181 -32 128 9 c 1,36,-1
 128 114 l 2,37,38
 128 118 128 118 131 120 c 128,-1,39
 134 122 134 122 134 126 c 2,40,-1
 134 280 l 2,41,42
 134 283 134 283 131 288.5 c 128,-1,43
 128 294 128 294 128 298 c 2,44,-1
 128 593 l 1,45,46
 112 613 112 613 69 650 c 1,47,48
 58 644 58 644 47 637 c 0,49,50
 32 628 32 628 15 626 c 1,51,-1
 15 640 l 2,52,53
 15 664 15 664 96 733 c 0,54,55
 174 800 174 800 191 800 c 0,56,57
 199 800 199 800 234 765.5 c 128,-1,58
 269 731 269 731 270 724 c 2,59,-1
 274 415 l 1,60,61
 428 567 428 567 487 567 c 0,62,63
 571 567 571 567 622 475 c 0,64,65
 663 403 663 403 663 331 c 0,66,67
 663 236 663 236 591 143 c 1,68,69
 604 143 604 143 629 144.5 c 128,-1,70
 654 146 654 146 655 146 c 0,71,72
 679 146 679 146 703 139 c 0,73,74
 740 127 740 127 740 102 c 0,0,1
EndSplineSet
EndChar

StartChar: i
Encoding: 105 105 76
Width: 328
GlyphClass: 1
Flags: W
LayerCount: 2
Fore
SplineSet
288 752 m 1,0,1
 271 704 271 704 209.5 648 c 128,-1,2
 148 592 148 592 113 596 c 1,3,4
 97 617 97 617 66 652 c 1,5,6
 36 629 36 629 24 629 c 1,7,8
 20 633 20 633 20 639 c 0,9,10
 20 668 20 668 92.5 734 c 128,-1,11
 165 800 165 800 188 800 c 0,12,13
 198 800 198 800 221 775 c 0,14,15
 236 758 236 758 251 741 c 1,16,17
 258 744 258 744 273 752 c 1,18,-1
 288 752 l 1,0,1
291 217 m 0,19,20
 291 168 291 168 224 75.5 c 128,-1,21
 157 -17 157 -17 119 -16 c 2,22,-1
 107 -16 l 1,23,24
 114 5 114 5 134 41 c 0,25,26
 149 67 149 67 149 88 c 0,27,28
 149 91 149 91 146 104.5 c 128,-1,29
 143 118 143 118 143 122 c 2,30,-1
 143 275 l 2,31,32
 143 309 143 309 133 343 c 0,33,34
 119 389 119 389 93 389 c 0,35,36
 90 389 90 389 78.5 380.5 c 128,-1,37
 67 372 67 372 63 372 c 2,38,-1
 45 372 l 1,39,40
 58 418 58 418 131 482 c 0,41,42
 199 542 199 542 223 540 c 1,43,44
 242 530 242 530 268 506 c 1,45,46
 286 470 286 470 286 410 c 2,47,-1
 286 258 l 2,48,49
 286 256 286 256 288.5 238.5 c 128,-1,50
 291 221 291 221 291 217 c 0,19,20
EndSplineSet
EndChar

StartChar: j
Encoding: 106 106 77
Width: 392
GlyphClass: 1
Flags: W
LayerCount: 2
Fore
SplineSet
315 796 m 0,0,1
 315 766 315 766 249 707.5 c 128,-1,2
 183 649 183 649 156 649 c 0,3,4
 136 649 136 649 112 683 c 1,5,6
 82 667 82 667 79 667 c 0,7,8
 75 667 75 667 72 668 c 0,9,10
 68 688 68 688 133 760 c 128,-1,11
 198 832 198 832 227 832 c 0,12,13
 231 832 231 832 246 814 c 0,14,15
 266 789 266 789 271 784 c 1,16,17
 285 793 285 793 311 805 c 1,18,19
 315 802 315 802 315 796 c 0,0,1
323 58 m 2,20,21
 323 14 323 14 256 -83 c 0,22,23
 187 -184 187 -184 146 -184 c 0,24,25
 143 -184 143 -184 142.5 -181.5 c 128,-1,26
 142 -179 142 -179 138 -179 c 1,27,28
 140 -179 140 -179 126.5 -187 c 128,-1,29
 113 -195 113 -195 91 -195 c 0,30,31
 65 -195 65 -195 3 -160.5 c 128,-1,32
 -59 -126 -59 -126 -96 -126 c 0,33,34
 -131 -126 -131 -126 -162.5 -155 c 128,-1,35
 -194 -184 -194 -184 -207 -184 c 2,36,-1
 -221 -184 l 1,37,38
 -114 9 -114 9 24 9 c 0,39,40
 72 9 72 9 121.5 -20 c 128,-1,41
 171 -49 171 -49 173 -49 c 2,42,-1
 188 -49 l 1,43,-1
 188 151 l 2,44,45
 187 154 187 154 184.5 156.5 c 128,-1,46
 182 159 182 159 182 162 c 2,47,-1
 182 294 l 2,48,49
 182 297 182 297 179.5 301 c 128,-1,50
 177 305 177 305 177 308 c 2,51,-1
 177 419 l 1,52,53
 152 444 152 444 138 460 c 1,54,55
 128 455 128 455 106 447 c 1,56,57
 103 451 103 451 103 456 c 0,58,59
 103 477 103 477 165.5 543 c 128,-1,60
 228 609 228 609 252 609 c 0,61,62
 256 609 256 609 277 588 c 0,63,64
 304 559 304 559 312 553 c 1,65,-1
 312 435 l 2,66,67
 312 432 312 432 314.5 428.5 c 128,-1,68
 317 425 317 425 317 422 c 2,69,-1
 317 289 l 2,70,71
 317 286 317 286 320 284 c 128,-1,72
 323 282 323 282 323 279 c 2,73,-1
 323 58 l 2,20,21
EndSplineSet
EndChar

StartChar: k
Encoding: 107 107 78
Width: 687
GlyphClass: 1
Flags: W
LayerCount: 2
Fore
SplineSet
691 123 m 0,0,1
 691 102 691 102 631.5 40.5 c 128,-1,2
 572 -21 572 -21 550 -21 c 0,3,4
 548 -21 548 -21 534.5 -11 c 128,-1,5
 521 -1 521 -1 513 -1 c 0,6,7
 488 -1 488 -1 442 -12 c 1,8,9
 438 -8 438 -8 438 -2 c 1,10,11
 438 -8 438 -8 458 47 c 128,-1,12
 478 102 478 102 478 136 c 0,13,14
 478 176 478 176 456 226 c 0,15,16
 428 291 428 291 384 291 c 0,17,18
 344 291 344 291 312 268 c 0,19,20
 302 261 302 261 254 216 c 1,21,-1
 254 176 l 1,22,23
 315 140 315 140 315 120 c 0,24,25
 315 95 315 95 254 38.5 c 128,-1,26
 193 -18 193 -18 173 -18 c 0,27,28
 170 -18 170 -18 146 1 c 0,29,30
 113 28 113 28 107 32 c 1,31,32
 106 44 106 44 103 69.5 c 128,-1,33
 100 95 100 95 100 97 c 2,34,-1
 100 338 l 2,35,36
 100 342 100 342 94 397 c 128,-1,37
 88 452 88 452 88 455 c 2,38,-1
 88 591 l 2,39,40
 88 597 88 597 46 631 c 1,41,42
 33 623 33 623 18 614 c 128,-1,43
 3 605 3 605 -9 608 c 1,44,45
 3 645 3 645 74.5 722 c 128,-1,46
 146 799 146 799 175 797 c 1,47,48
 183 788 183 788 213 758 c 0,49,50
 237 736 237 736 237 732 c 2,51,-1
 237 597 l 2,52,53
 237 594 237 594 242.5 541 c 128,-1,54
 248 488 248 488 248 484 c 2,55,-1
 248 273 l 1,56,-1
 379 452 l 1,57,58
 339 490 339 490 339 496 c 0,59,60
 339 518 339 518 400.5 577.5 c 128,-1,61
 462 637 462 637 481 637 c 0,62,63
 488 637 488 637 512 610.5 c 128,-1,64
 536 584 536 584 536 582 c 0,65,66
 536 572 536 572 484 500 c 0,67,68
 428 423 428 423 425 418 c 1,69,70
 476 439 476 439 516 439 c 0,71,72
 572 439 572 439 603 369 c 0,73,74
 627 319 627 319 627 273 c 0,75,76
 627 220 627 220 595 144 c 1,77,78
 603 142 603 142 624.5 145 c 128,-1,79
 646 148 646 148 646 148 c 2,80,81
 654 148 654 148 670 142 c 0,82,83
 691 134 691 134 691 123 c 0,0,1
EndSplineSet
EndChar

StartChar: l
Encoding: 108 108 79
Width: 395
GlyphClass: 1
Flags: W
LayerCount: 2
Fore
SplineSet
370 173 m 0,0,1
 370 133 370 133 288 55 c 0,2,3
 211 -17 211 -17 189 -20 c 1,4,5
 182 -11 182 -11 144 19 c 0,6,7
 123 36 123 36 123 59 c 2,8,-1
 123 355 l 2,9,10
 123 357 123 357 126 370.5 c 128,-1,11
 129 384 129 384 129 388 c 2,12,-1
 129 604 l 1,13,14
 114 626 114 626 101 638 c 1,15,16
 70 617 70 617 39 603 c 1,17,18
 35 607 35 607 35 616 c 0,19,20
 35 648 35 648 112 724 c 128,-1,21
 189 800 189 800 222 800 c 0,22,23
 231 800 231 800 255 778 c 128,-1,24
 279 756 279 756 279 746 c 2,25,-1
 279 507 l 2,26,27
 279 504 279 504 276 496 c 128,-1,28
 273 488 273 488 273 484 c 2,29,-1
 273 199 l 2,30,31
 273 190 273 190 288 172 c 128,-1,32
 303 154 303 154 313 154 c 0,33,34
 315 154 315 154 334 166.5 c 128,-1,35
 353 179 353 179 366 183 c 1,36,37
 370 179 370 179 370 173 c 0,0,1
EndSplineSet
EndChar

StartChar: m
Encoding: 109 109 80
Width: 896
GlyphClass: 1
Flags: W
LayerCount: 2
Fore
SplineSet
860 147 m 1,0,1
 854 124 854 124 800 63 c 0,2,3
 740 -7 740 -7 706 -7 c 0,4,5
 695 -7 695 -7 596 9 c 1,6,7
 603 25 603 25 661 122 c 0,8,9
 694 177 694 177 694 217 c 256,10,11
 694 257 694 257 681 312 c 0,12,13
 670 363 670 363 660 377 c 0,14,15
 637 410 637 410 565 447 c 0,16,17
 557 451 557 451 541 467 c 1,18,19
 532 464 532 464 524 456 c 1,20,-1
 524 339 l 2,21,22
 524 335 524 335 527 330 c 128,-1,23
 530 325 530 325 530 321 c 2,24,-1
 530 183 l 1,25,26
 570 151 570 151 570 143 c 0,27,28
 570 119 570 119 509 57.5 c 128,-1,29
 448 -4 448 -4 425 -4 c 0,30,31
 422 -4 422 -4 402 11.5 c 128,-1,32
 382 27 382 27 371 30 c 1,33,34
 373 51 373 51 373 119 c 0,35,36
 373 152 373 152 370 180 c 128,-1,37
 367 208 367 208 367 210 c 2,38,-1
 367 368 l 1,39,-1
 218 446 l 1,40,41
 197 406 197 406 193 386 c 0,42,43
 192 380 192 380 192 336 c 0,44,45
 192 284 192 284 215 230 c 0,46,47
 249 153 249 153 310 153 c 0,48,49
 313 153 313 153 329 154.5 c 128,-1,50
 345 156 345 156 352 156 c 1,51,52
 327 97 327 97 275 49 c 0,53,54
 220 -1 220 -1 175 -1 c 0,55,56
 106 -1 106 -1 66 77 c 0,57,58
 35 136 35 136 35 199 c 0,59,60
 35 290 35 290 120.5 414.5 c 128,-1,61
 206 539 206 539 299 577 c 0,62,63
 301 578 301 578 322 593 c 0,64,65
 340 606 340 606 348 606 c 0,66,67
 353 606 353 606 429.5 567 c 128,-1,68
 506 528 506 528 526 513 c 1,69,70
 641 627 641 627 687 630 c 1,71,72
 692 614 692 614 737 589 c 0,73,74
 788 560 788 560 806.5 534 c 128,-1,75
 825 508 825 508 838 448 c 0,76,77
 851 392 851 392 851 354 c 0,78,79
 851 307 851 307 821 254 c 0,80,81
 794 208 794 208 766 161 c 1,82,83
 770 155 770 155 804 152 c 0,84,85
 850 149 850 149 860 147 c 1,0,1
EndSplineSet
EndChar

StartChar: n
Encoding: 110 110 81
Width: 710
GlyphClass: 1
Flags: W
LayerCount: 2
Fore
SplineSet
701 134 m 0,0,1
 701 108 701 108 640.5 51 c 128,-1,2
 580 -6 580 -6 560 -6 c 1,3,4
 561 -6 561 -6 533 4 c 128,-1,5
 505 14 505 14 483 14 c 2,6,7
 483 14 483 14 424 9 c 1,8,9
 417 15 417 15 417 19 c 0,10,11
 511 160 511 160 511 268 c 0,12,13
 511 343 511 343 512 304 c 1,14,15
 511 328 511 328 498 360 c 0,16,17
 492 376 492 376 484.5 392.5 c 128,-1,18
 477 409 477 409 462 419 c 0,19,20
 435 438 435 438 395 455 c 0,21,22
 349 476 349 476 323 476 c 0,23,24
 303 476 303 476 298 472 c 0,25,26
 274 452 274 452 266 447 c 1,27,-1
 266 293 l 2,28,29
 266 256 266 256 254 171 c 1,30,31
 261 165 261 165 298 139 c 0,32,33
 327 119 327 119 327 115 c 0,34,35
 327 93 327 93 265.5 33.5 c 128,-1,36
 204 -26 204 -26 184 -26 c 0,37,38
 167 -26 167 -26 134.5 4.5 c 128,-1,39
 102 35 102 35 102 48 c 0,40,41
 102 51 102 51 108 99 c 128,-1,42
 114 147 114 147 114 151 c 2,43,-1
 114 348 l 2,44,45
 114 353 114 353 120 372 c 1,46,47
 106 381 106 381 39 426 c 1,48,49
 7 403 7 403 -4 403 c 0,50,51
 -7 403 -7 403 -10 404 c 0,52,53
 -11 436 -11 436 59 507 c 128,-1,54
 129 578 129 578 163 578 c 0,55,56
 172 578 172 578 215 552 c 0,57,58
 264 523 264 523 273 505 c 1,59,60
 334 569 334 569 366 592 c 0,61,62
 411 624 411 624 455 624 c 0,63,64
 480 624 480 624 521 611 c 0,65,66
 578 592 578 592 617 557 c 0,67,68
 635 541 635 541 650 487 c 0,69,70
 663 439 663 439 663 406 c 0,71,72
 663 305 663 305 584 165 c 1,73,74
 617 162 617 162 650 159 c 0,75,76
 701 152 701 152 701 134 c 0,0,1
EndSplineSet
EndChar

StartChar: o
Encoding: 111 111 82
Width: 690
GlyphClass: 1
Flags: W
LayerCount: 2
Fore
SplineSet
658 382 m 0,0,1
 658 298 658 298 560 202 c 1,2,3
 462 114 462 114 365 26 c 0,4,5
 354 15 354 15 318 8 c 0,6,7
 286 1 286 1 260 1 c 0,8,9
 190 1 190 1 127 58 c 0,10,11
 61 118 61 118 61 193 c 0,12,13
 61 294 61 294 141 422 c 0,14,15
 224 555 224 555 326 606 c 1,16,17
 327 604 327 604 326 594 c 0,18,19
 326 586 326 586 330 586 c 0,20,21
 340 586 340 586 378.5 596 c 128,-1,22
 417 606 417 606 448 606 c 0,23,24
 538 606 538 606 600 535 c 0,25,26
 658 468 658 468 658 382 c 0,0,1
504 218 m 1,27,-1
 504 292 l 2,28,29
 504 329 504 329 451.5 386 c 128,-1,30
 399 443 399 443 367 449 c 0,31,32
 325 456 325 456 312 456 c 0,33,34
 249 456 249 456 229 423 c 0,35,36
 215 399 215 399 215 330 c 0,37,38
 215 262 215 262 274 207 c 128,-1,39
 333 152 333 152 396 152 c 0,40,41
 431 152 431 152 445 161 c 0,42,43
 455 167 455 167 504 218 c 1,27,-1
EndSplineSet
EndChar

StartChar: p
Encoding: 112 112 83
Width: 560
GlyphClass: 1
Flags: W
LayerCount: 2
Fore
SplineSet
544 365 m 0,0,1
 544 315 544 315 540 301 c 0,2,3
 535 276 535 276 505 220 c 0,4,5
 491 192 491 192 409 113 c 0,6,7
 320 27 320 27 291 27 c 0,8,9
 285 27 285 27 239 64 c 1,10,11
 213 -33 213 -33 190 -75 c 0,12,13
 145 -154 145 -154 61 -190 c 1,14,15
 121 -56 121 -56 121 -1 c 2,16,-1
 121 82 l 1,17,18
 116 84 116 84 97 84 c 0,19,20
 63 84 63 84 31 78 c 0,21,22
 21 76 21 76 3 65 c 0,23,24
 -18 52 -18 52 -27 49 c 0,25,26
 -30 52 -30 52 -30 58 c 0,27,28
 -30 88 -30 88 42 145 c 0,29,30
 97 189 97 189 118 199 c 1,31,32
 117 238 117 238 115 282 c 0,33,34
 111 289 111 289 111 293 c 2,35,-1
 111 381 l 1,36,37
 78 410 78 410 63 425 c 0,38,39
 62 425 62 425 35 406 c 0,40,41
 20 396 20 396 9 399 c 1,42,43
 7 421 7 421 69 493.5 c 128,-1,44
 131 566 131 566 163 566 c 0,45,46
 167 566 167 566 199 538 c 0,47,48
 235 508 235 508 239 494 c 1,49,50
 273 525 273 525 307 555 c 0,51,52
 348 590 348 590 374 590 c 0,53,54
 457 590 457 590 505 509 c 0,55,56
 544 443 544 443 544 365 c 0,0,1
418 252 m 0,57,58
 418 303 418 303 406 336.5 c 128,-1,59
 394 370 394 370 358 421 c 0,60,61
 355 425 355 425 315 444.5 c 128,-1,62
 275 464 275 464 265 464 c 0,63,64
 253 464 253 464 245 449.5 c 128,-1,65
 237 435 237 435 237 427 c 0,66,67
 237 424 237 424 239.5 414 c 128,-1,68
 242 404 242 404 242 401 c 2,69,-1
 242 320 l 2,70,71
 242 317 242 317 244.5 315 c 128,-1,72
 247 313 247 313 247 310 c 2,73,-1
 247 210 l 1,74,75
 336 214 336 214 402 163 c 1,76,77
 418 196 418 196 418 252 c 0,57,58
EndSplineSet
EndChar

StartChar: q
Encoding: 113 113 84
Width: 597
GlyphClass: 1
Flags: W
LayerCount: 2
Fore
SplineSet
599 20 m 1,0,1
 596 -3 596 -3 559 -44 c 0,2,3
 524 -81 524 -81 491 -102 c 0,4,5
 486 -106 486 -106 470 -106.5 c 128,-1,6
 454 -107 454 -107 447 -109 c 2,7,8
 447 -109 447 -109 400.5 -154.5 c 128,-1,9
 354 -200 354 -200 330 -204 c 1,10,-1
 327 81 l 2,11,12
 327 82 327 82 320 149 c 1,13,14
 231 67 231 67 172 67 c 0,15,16
 108 67 108 67 69 117 c 0,17,18
 34 162 34 162 34 222 c 0,19,20
 34 313 34 313 118 421 c 0,21,22
 199 524 199 524 308 584 c 1,23,24
 369 507 369 507 448 507 c 1,25,26
 443 507 443 507 504 527 c 0,27,28
 507 524 507 524 507 518 c 0,29,30
 507 500 507 500 453 446 c 1,31,-1
 453 225 l 2,32,33
 453 224 453 224 459 205 c 1,34,-1
 460 -29 l 1,35,36
 494 4 494 4 560 23 c 1,37,-1
 599 20 l 1,0,1
323 206 m 1,38,-1
 323 375 l 1,39,40
 248 380 248 380 195 440 c 1,41,42
 165 393 165 393 165 340 c 0,43,44
 165 284 165 284 197 243 c 0,45,46
 232 198 232 198 287 198 c 0,47,48
 313 198 313 198 323 206 c 1,38,-1
EndSplineSet
EndChar

StartChar: r
Encoding: 114 114 85
Width: 615
GlyphClass: 1
Flags: W
LayerCount: 2
Fore
SplineSet
621 560 m 1,0,1
 600 500 600 500 530 441 c 128,-1,2
 460 382 460 382 402 382 c 0,3,4
 360 382 360 382 338 391 c 0,5,6
 311 403 311 403 291 436 c 1,7,8
 273 424 273 424 258 408 c 1,9,-1
 258 162 l 1,10,11
 264 158 264 158 284 131.5 c 128,-1,12
 304 105 304 105 304 104 c 0,13,14
 304 71 304 71 238 15 c 0,15,16
 180 -34 180 -34 162 -38 c 1,17,18
 134 0 134 0 111 22 c 1,19,-1
 111 270 l 2,20,21
 111 274 111 274 108.5 278 c 128,-1,22
 106 282 106 282 106 285 c 2,23,-1
 106 391 l 1,24,25
 50 439 50 439 47 439 c 0,26,27
 45 439 45 439 6 416 c 1,28,-1
 -8 420 l 1,29,30
 -1 444 -1 444 62 513 c 0,31,32
 134 592 134 592 172 592 c 0,33,34
 179 592 179 592 210 567 c 0,35,36
 230 550 230 550 251 534 c 1,37,38
 251 512 251 512 254 465 c 1,39,40
 336 550 336 550 424 598 c 1,41,42
 443 557 443 557 470 541 c 0,43,44
 493 529 493 529 535 529 c 0,45,46
 551 529 551 529 566 536 c 0,47,48
 585 548 585 548 605 560 c 1,49,-1
 621 560 l 1,0,1
EndSplineSet
EndChar

StartChar: s
Encoding: 115 115 86
Width: 599
GlyphClass: 1
Flags: W
LayerCount: 2
Fore
SplineSet
598 570 m 1,0,1
 522 404 522 404 349 404 c 0,2,3
 331 404 331 404 238 423 c 1,4,5
 253 383 253 383 334 366 c 0,6,7
 455 339 455 339 471 332 c 0,8,9
 541 301 541 301 541 225 c 0,10,11
 541 179 541 179 434 82 c 0,12,13
 334 -9 334 -9 313 -9 c 1,14,15
 317 -9 317 -9 252 16.5 c 128,-1,16
 187 42 187 42 138 42 c 0,17,18
 101 42 101 42 55 31 c 0,19,20
 32 25 32 25 9 19 c 1,21,22
 62 115 62 115 129 152 c 0,23,24
 181 180 181 180 263 180 c 0,25,26
 285 180 285 180 324 170 c 0,27,28
 370 159 370 159 386 157 c 1,29,30
 345 202 345 202 260 220 c 0,31,32
 148 243 148 243 135 249 c 0,33,34
 79 275 79 275 79 351 c 0,35,36
 79 393 79 393 164.5 494.5 c 128,-1,37
 250 596 250 596 295 596 c 1,38,39
 293 596 293 596 354.5 569 c 128,-1,40
 416 542 416 542 475 542 c 0,41,42
 509 542 509 542 542 553 c 0,43,44
 585 568 585 568 598 570 c 1,0,1
EndSplineSet
EndChar

StartChar: t
Encoding: 116 116 87
Width: 527
GlyphClass: 1
Flags: W
LayerCount: 2
Fore
SplineSet
504 513 m 1,0,1
 499 475 499 475 435.5 419.5 c 128,-1,2
 372 364 372 364 326 353 c 1,3,-1
 326 229 l 2,4,5
 326 216 326 216 314 168 c 0,6,7
 290 70 290 70 265 22 c 0,8,9
 216 -72 216 -72 129 -105 c 1,10,11
 134 -96 134 -96 162 -7 c 0,12,13
 191 89 191 89 191 113 c 2,14,-1
 191 369 l 1,15,16
 165 384 165 384 135 384 c 0,17,18
 109 384 109 384 84 373 c 0,19,20
 78 371 78 371 36 347 c 1,21,-1
 23 351 l 1,22,23
 28 384 28 384 87 437 c 0,24,25
 138 483 138 483 186 508 c 1,26,-1
 186 610 l 2,27,28
 186 614 186 614 163.5 635.5 c 128,-1,29
 141 657 141 657 138 657 c 0,30,31
 136 657 136 657 125 651 c 128,-1,32
 114 645 114 645 102 647 c 1,33,34
 110 671 110 671 165 732 c 0,35,36
 226 800 226 800 256 800 c 0,37,38
 261 800 261 800 320 741 c 1,39,-1
 320 544 l 2,40,41
 320 505 320 505 348 494 c 0,42,43
 362 488 362 488 403 488 c 0,44,45
 432 488 432 488 439 490 c 128,-1,46
 446 492 446 492 491 517 c 1,47,-1
 504 513 l 1,0,1
EndSplineSet
EndChar

StartChar: u
Encoding: 117 117 88
Width: 762
GlyphClass: 1
Flags: W
LayerCount: 2
Fore
SplineSet
762 143 m 1,0,1
 766 113 766 113 692.5 41 c 128,-1,2
 619 -31 619 -31 594 -31 c 0,3,4
 587 -31 587 -31 544 9.5 c 128,-1,5
 501 50 501 50 506 66 c 1,6,-1
 504 135 l 1,7,8
 386 37 386 37 361 21 c 0,9,10
 305 -14 305 -14 236 -14 c 256,11,12
 167 -14 167 -14 116 23 c 0,13,14
 57 65 57 65 57 139 c 0,15,16
 57 266 57 266 197 428 c 1,17,18
 194 431 194 431 186 431 c 0,19,20
 179 431 179 431 163 427 c 128,-1,21
 147 423 147 423 144 423 c 0,22,23
 131 423 131 423 121 433 c 1,24,25
 124 450 124 450 178 511 c 0,26,27
 236 578 236 578 262 578 c 0,28,29
 266 578 266 578 270 575 c 128,-1,30
 274 572 274 572 277 572 c 0,31,32
 281 572 281 572 287.5 575 c 128,-1,33
 294 578 294 578 298 577 c 2,34,-1
 385 577 l 2,35,36
 389 574 389 574 389 567 c 0,37,38
 389 545 389 545 342 502 c 0,39,40
 276 441 276 441 253 411 c 0,41,42
 206 346 206 346 206 273 c 0,43,44
 206 207 206 207 258 169 c 0,45,46
 304 135 304 135 370 135 c 0,47,48
 441 135 441 135 506 198 c 1,49,-1
 506 328 l 2,50,51
 506 331 506 331 503 338 c 128,-1,52
 500 345 500 345 500 349 c 2,53,-1
 500 427 l 1,54,55
 493 431 493 431 424 462 c 1,56,-1
 424 477 l 2,57,58
 424 493 424 493 485.5 553 c 128,-1,59
 547 613 547 613 564 613 c 0,60,61
 573 613 573 613 648 571 c 1,62,-1
 648 488 l 2,63,64
 648 485 648 485 651 480 c 128,-1,65
 654 475 654 475 654 472 c 2,66,-1
 654 189 l 1,67,68
 665 181 665 181 693 153 c 0,69,70
 716 129 716 129 720 129 c 0,71,72
 723 129 723 129 734 135.5 c 128,-1,73
 745 142 745 142 749 143 c 2,74,-1
 762 143 l 1,0,1
EndSplineSet
EndChar

StartChar: v
Encoding: 118 118 89
Width: 723
GlyphClass: 1
Flags: W
LayerCount: 2
Fore
SplineSet
688 519 m 0,0,1
 688 462 688 462 678 416 c 0,2,3
 658 333 658 333 566 207 c 0,4,5
 536 165 536 165 460 88 c 0,6,7
 359 -14 359 -14 322 -14 c 0,8,9
 308 -14 308 -14 220.5 54.5 c 128,-1,10
 133 123 133 123 133 139 c 2,11,-1
 133 292 l 2,12,13
 133 295 133 295 130 305.5 c 128,-1,14
 127 316 127 316 128 320 c 2,15,-1
 128 406 l 1,16,17
 94 414 94 414 34 436 c 1,18,19
 38 460 38 460 92 524 c 0,20,21
 150 593 150 593 179 593 c 0,22,23
 182 593 182 593 191.5 585 c 128,-1,24
 201 577 201 577 205 575 c 0,25,26
 218 568 218 568 243 564 c 0,27,28
 276 558 276 558 284 556 c 1,29,-1
 284 440 l 2,30,31
 284 437 284 437 287 430 c 128,-1,32
 290 423 290 423 290 419 c 2,33,-1
 290 275 l 1,34,35
 294 272 294 272 373 204 c 0,36,37
 430 153 430 153 451 149 c 1,38,39
 508 228 508 228 522 276 c 0,40,41
 532 309 532 309 532 383 c 0,42,43
 532 437 532 437 528 453 c 0,44,45
 517 503 517 503 472 527 c 0,46,47
 463 533 463 533 454 539 c 0,48,49
 442 547 442 547 435 547 c 0,50,51
 422 547 422 547 395 527 c 128,-1,52
 368 507 368 507 358 507 c 0,53,54
 353 507 353 507 349 510 c 1,55,56
 355 552 355 552 441 626.5 c 128,-1,57
 527 701 527 701 572 701 c 0,58,59
 596 701 596 701 646 667 c 0,60,61
 688 637 688 637 688 519 c 0,0,1
EndSplineSet
EndChar

StartChar: w
Encoding: 119 119 90
Width: 1009
GlyphClass: 1
Flags: W
LayerCount: 2
Fore
SplineSet
978 475 m 0,0,1
 978 367 978 367 857 208 c 0,2,3
 733 46 733 46 605 -3 c 1,4,5
 557 33 557 33 467 114 c 1,6,7
 433 77 433 77 381 39 c 0,8,9
 312 -12 312 -12 274 -12 c 0,10,11
 194 -12 194 -12 130 42 c 0,12,13
 60 102 60 102 60 191 c 0,14,15
 60 250 60 250 98 330.5 c 128,-1,16
 136 411 136 411 180 445 c 1,17,18
 156 449 156 449 111 447 c 1,19,20
 104 454 104 454 104 456 c 0,21,22
 104 485 104 485 170 549.5 c 128,-1,23
 236 614 236 614 258 614 c 0,24,25
 260 614 260 614 267 607 c 1,26,-1
 366 607 l 1,27,28
 363 607 363 607 390 597 c 1,29,30
 345 521 345 521 296 477 c 0,31,32
 243 430 243 430 241 427 c 0,33,34
 224 401 224 401 224 335 c 0,35,36
 224 254 224 254 278.5 202.5 c 128,-1,37
 333 151 333 151 419 151 c 0,38,39
 426 151 426 151 439.5 156.5 c 128,-1,40
 453 162 453 162 453 167 c 2,41,-1
 450 429 l 2,42,43
 447 444 447 444 423 454 c 0,44,45
 387 471 387 471 384 473 c 0,46,47
 388 499 388 499 442 563 c 0,48,49
 501 632 501 632 538 632 c 0,50,51
 543 632 543 632 576.5 611.5 c 128,-1,52
 610 591 610 591 614 587 c 1,53,-1
 614 310 l 2,54,55
 614 285 614 285 671 229 c 128,-1,56
 728 173 728 173 750 173 c 0,57,58
 776 173 776 173 798 251 c 0,59,60
 815 312 815 312 815 334 c 0,61,62
 815 487 815 487 680 494 c 1,63,64
 693 542 693 542 751.5 596.5 c 128,-1,65
 810 651 810 651 854 651 c 0,66,67
 918 651 918 651 952 583 c 0,68,69
 978 532 978 532 978 475 c 0,0,1
EndSplineSet
EndChar

StartChar: x
Encoding: 120 120 91
Width: 952
GlyphClass: 1
Flags: W
LayerCount: 2
Fore
SplineSet
962 195 m 1,0,1
 930 116 930 116 844 60 c 0,2,3
 762 6 762 6 689 6 c 0,4,5
 524 6 524 6 369 208 c 1,6,7
 325 157 325 157 280 107 c 0,8,9
 188 9 188 9 162 9 c 1,10,11
 95 43 95 43 90 43 c 0,12,13
 87 43 87 43 61 28 c 0,14,15
 31 10 31 10 21 6 c 1,16,17
 17 10 17 10 17 17 c 0,18,19
 17 63 17 63 109 133 c 0,20,21
 195 198 195 198 228 198 c 0,22,23
 231 198 231 198 256 192 c 128,-1,24
 281 186 281 186 284 186 c 0,25,26
 289 186 289 186 341 246 c 1,27,28
 277 320 277 320 156 461 c 1,29,30
 117 427 117 427 88 421 c 1,31,32
 84 425 84 425 84 432 c 0,33,34
 84 467 84 467 183 548 c 0,35,36
 268 617 268 617 292 626 c 1,37,-1
 477 412 l 1,38,39
 525 469 525 469 574 526 c 0,40,41
 670 632 670 632 707 632 c 0,42,43
 710 632 710 632 722.5 619 c 128,-1,44
 735 606 735 606 743 602 c 0,45,46
 757 595 757 595 777 594 c 0,47,48
 794 594 794 594 798 588 c 1,49,50
 775 539 775 539 724 491 c 0,51,52
 668 440 668 440 629 440 c 0,53,54
 607 440 607 440 602.5 444.5 c 128,-1,55
 598 449 598 449 584 452 c 1,56,-1
 518 368 l 1,57,58
 673 162 673 162 829 162 c 0,59,60
 850 162 850 162 898.5 177.5 c 128,-1,61
 947 193 947 193 962 195 c 1,0,1
EndSplineSet
EndChar

StartChar: y
Encoding: 121 121 92
Width: 770
GlyphClass: 1
Flags: W
LayerCount: 2
Fore
SplineSet
775 155 m 0,0,1
 775 81 775 81 755 49 c 0,2,3
 705 -28 705 -28 621 -108 c 0,4,5
 517 -207 517 -207 454 -207 c 0,6,7
 450 -207 450 -207 322.5 -177.5 c 128,-1,8
 195 -148 195 -148 139 -148 c 0,9,10
 84 -148 84 -148 76 -158 c 0,11,12
 65 -174 65 -174 34 -180 c 0,13,14
 31 -177 31 -177 31 -171 c 0,15,16
 31 -140 31 -140 110 -75 c 0,17,18
 186 -13 186 -13 213 -11 c 0,19,20
 228 -10 228 -10 263 -10 c 0,21,22
 325 -10 325 -10 449 -40 c 128,-1,23
 573 -70 573 -70 580 -70 c 0,24,25
 638 -70 638 -70 638 31 c 0,26,27
 638 73 638 73 618 115 c 0,28,29
 589 176 589 176 535 176 c 0,30,31
 512 176 512 176 489 167.5 c 128,-1,32
 466 159 466 159 465 159 c 0,33,34
 462 159 462 159 460.5 160.5 c 128,-1,35
 459 162 459 162 456 162 c 2,36,37
 456 162 456 162 422 135 c 0,38,39
 382 103 382 103 343 84 c 0,40,41
 287 57 287 57 235 57 c 0,42,43
 61 57 61 57 61 225 c 0,44,45
 61 278 61 278 89 335 c 0,46,47
 108 374 108 374 163 455 c 0,48,49
 162 456 162 456 83 456 c 1,50,51
 80 460 80 460 80 465 c 0,52,53
 80 493 80 493 140 544 c 0,54,55
 192 589 192 589 210 593 c 1,56,-1
 342 590 l 1,57,58
 317 550 317 550 239 462 c 0,59,60
 198 416 198 416 198 354 c 0,61,62
 198 194 198 194 359 194 c 0,63,64
 393 194 393 194 454 221 c 1,65,-1
 454 427 l 2,66,67
 454 429 454 429 451.5 441 c 128,-1,68
 449 453 449 453 449 459 c 1,69,70
 434 464 434 464 395 486 c 1,71,72
 397 506 397 506 446 564 c 0,73,74
 498 626 498 626 527 626 c 1,75,76
 526 626 526 626 585 590 c 1,77,78
 589 550 589 550 589 496 c 2,79,-1
 591 305 l 1,80,81
 659 313 659 313 659 313 c 1,82,83
 720 313 720 313 752 251 c 0,84,85
 775 206 775 206 775 155 c 0,0,1
EndSplineSet
EndChar

StartChar: z
Encoding: 122 122 93
Width: 812
GlyphClass: 1
Flags: W
LayerCount: 2
Fore
SplineSet
778 168 m 1,0,1
 703 54 703 54 632 9 c 0,2,3
 567 -33 567 -33 475 -33 c 0,4,5
 394 -33 394 -33 299.5 -6.5 c 128,-1,6
 205 20 205 20 165 20 c 0,7,8
 117 20 117 20 42 -9 c 1,9,10
 38 -6 38 -6 38 1 c 0,11,12
 38 41 38 41 128 125 c 0,13,14
 184 176 184 176 314 277 c 0,15,16
 436 372 436 372 465 401 c 1,17,18
 452 401 452 401 429 400 c 0,19,20
 403 400 403 400 404 400 c 1,21,22
 320 400 320 400 230 438 c 1,23,24
 176 400 176 400 161 400 c 256,25,26
 146 400 146 400 146 412 c 0,27,28
 146 443 146 443 237 521 c 0,29,30
 325 596 325 596 348 596 c 1,31,32
 340 596 340 596 404.5 572.5 c 128,-1,33
 469 549 469 549 539 549 c 0,34,35
 584 549 584 549 639 565 c 0,36,37
 685 579 685 579 731 592 c 1,38,39
 731 580 731 580 716.5 555 c 128,-1,40
 702 530 702 530 688 517 c 0,41,42
 615 452 615 452 483 346 c 0,43,44
 373 258 373 258 263 170 c 1,45,46
 264 169 264 169 338 169 c 1,47,48
 405 152 405 152 473 135 c 0,49,50
 551 116 551 116 611 116 c 0,51,52
 666 116 666 116 693 129 c 0,53,54
 764 163 764 163 778 168 c 1,0,1
EndSplineSet
EndChar

StartChar: braceleft
Encoding: 123 123 94
Width: 586
GlyphClass: 1
Flags: W
LayerCount: 2
Fore
SplineSet
517 767 m 1,0,1
 499 714 499 714 448 669 c 0,2,3
 394 621 394 621 344 621 c 0,4,5
 320 621 320 621 307 627 c 1,6,7
 303 617 303 617 306 609 c 0,8,9
 310 599 310 599 310 599 c 1,10,-1
 310 522 l 2,11,12
 310 508 310 508 285.5 458 c 128,-1,13
 261 408 261 408 253 401 c 1,14,15
 277 380 277 380 290 303 c 0,16,17
 305 207 305 207 317 180 c 0,18,19
 343 119 343 119 405 119 c 0,20,21
 421 119 421 119 453 146 c 128,-1,22
 485 173 485 173 503 172 c 1,23,24
 500 121 500 121 411 48 c 0,25,26
 326 -22 326 -22 280 -22 c 0,27,28
 209 -22 209 -22 179 51 c 0,29,30
 166 84 166 84 152 186 c 0,31,32
 142 259 142 259 120 259 c 0,33,34
 117 259 117 259 102.5 255 c 128,-1,35
 88 251 88 251 84 251 c 2,36,-1
 67 251 l 1,37,-1
 67 266 l 2,38,39
 67 272 67 272 117.5 329.5 c 128,-1,40
 168 387 168 387 171 404 c 0,41,42
 177 433 177 433 168 479 c 0,43,44
 166 488 166 488 166 500 c 0,45,46
 166 566 166 566 189 610 c 0,47,48
 211 651 211 651 272 718 c 0,49,50
 345 797 345 797 382 797 c 1,51,52
 378 797 378 797 407 779.5 c 128,-1,53
 436 762 436 762 467 762 c 0,54,55
 496 762 496 762 503 770 c 1,56,-1
 517 767 l 1,0,1
EndSplineSet
EndChar

StartChar: bar
Encoding: 124 124 95
Width: 430
GlyphClass: 1
Flags: W
LayerCount: 2
Fore
SplineSet
345 122 m 1,0,1
 342 103 342 103 296 48 c 0,2,3
 244 -13 244 -13 213 -13 c 0,4,5
 194 -13 194 -13 172 14 c 0,6,7
 152 38 152 38 152 48 c 2,8,-1
 152 132 l 2,9,10
 152 135 152 135 149.5 137.5 c 128,-1,11
 147 140 147 140 147 143 c 2,12,-1
 147 316 l 2,13,14
 147 319 147 319 144 324.5 c 128,-1,15
 141 330 141 330 141 333 c 2,16,-1
 141 636 l 1,17,18
 117 659 117 659 117 667 c 0,19,20
 117 688 117 688 174 743 c 128,-1,21
 231 798 231 798 250 798 c 0,22,23
 254 798 254 798 267 784.5 c 128,-1,24
 280 771 280 771 280 767 c 2,25,-1
 280 471 l 2,26,27
 280 468 280 468 282.5 459.5 c 128,-1,28
 285 451 285 451 285 447 c 2,29,-1
 285 278 l 2,30,31
 285 275 285 275 288 269 c 128,-1,32
 291 263 291 263 291 260 c 2,33,-1
 291 180 l 2,34,35
 291 163 291 163 308.5 149 c 128,-1,36
 326 135 326 135 345 122 c 1,0,1
EndSplineSet
EndChar

StartChar: braceright
Encoding: 125 125 96
Width: 546
GlyphClass: 1
Flags: W
LayerCount: 2
Fore
SplineSet
469 483 m 1,0,1
 466 465 466 465 435 427 c 128,-1,2
 404 389 404 389 404 374 c 1,3,4
 404 376 404 376 414 336.5 c 128,-1,5
 424 297 424 297 424 250 c 0,6,7
 424 193 424 193 405 163 c 0,8,9
 373 113 373 113 317 64 c 0,10,11
 230 -11 230 -11 208 -11 c 0,12,13
 206 -11 206 -11 170.5 19.5 c 128,-1,14
 135 50 135 50 111 50 c 0,15,16
 107 50 107 50 96 46.5 c 128,-1,17
 85 43 85 43 81 43 c 2,18,-1
 65 43 l 1,19,20
 82 88 82 88 135 135.5 c 128,-1,21
 188 183 188 183 228 183 c 0,22,23
 254 183 254 183 293 150 c 1,24,25
 294 152 294 152 294 162 c 0,26,27
 294 166 294 166 284 210 c 128,-1,28
 274 254 274 254 274 257 c 0,29,30
 274 278 274 278 284 307 c 0,31,32
 292 328 292 328 299 349 c 1,33,34
 254 382 254 382 254 449 c 0,35,36
 254 462 254 462 255.5 487.5 c 128,-1,37
 257 513 257 513 257 526 c 0,38,39
 257 594 257 594 216 633 c 0,40,41
 203 645 203 645 177 657 c 0,42,43
 155 667 155 667 149 667 c 1,44,45
 152 667 152 667 115 650 c 1,46,-1
 101 650 l 1,47,48
 107 683 107 683 169 740 c 128,-1,49
 231 797 231 797 264 797 c 0,50,51
 296 797 296 797 341 764 c 0,52,53
 389 727 389 727 389 692 c 2,54,-1
 389 620 l 2,55,56
 389 618 389 618 388 600.5 c 128,-1,57
 387 583 387 583 387 570 c 0,58,59
 387 479 387 479 432 479 c 1,60,61
 427 479 427 479 469 483 c 1,0,1
EndSplineSet
EndChar

StartChar: asciitilde
Encoding: 126 126 97
Width: 630
GlyphClass: 1
Flags: W
LayerCount: 2
Fore
SplineSet
565 770 m 0,0,1
 565 740 565 740 486.5 681.5 c 128,-1,2
 408 623 408 623 383 622 c 0,3,4
 378 622 378 622 361.5 621 c 128,-1,5
 345 620 345 620 343 620 c 0,6,7
 318 620 318 620 248.5 641.5 c 128,-1,8
 179 663 179 663 158 663 c 0,9,10
 134 663 134 663 111 644.5 c 128,-1,11
 88 626 88 626 80 626 c 2,12,-1
 70 626 l 1,13,-1
 70 636 l 2,14,15
 70 647 70 647 108 684 c 0,16,17
 189 764 189 764 246 764 c 0,18,19
 264 764 264 764 333.5 742.5 c 128,-1,20
 403 721 403 721 436 721 c 0,21,22
 486 721 486 721 505 738 c 0,23,24
 538 767 538 767 560 776 c 1,25,26
 565 771 565 771 565 770 c 0,0,1
EndSplineSet
EndChar

StartChar: sterling
Encoding: 163 163 98
Width: 959
GlyphClass: 1
Flags: W
LayerCount: 2
Fore
SplineSet
904 204 m 2,0,1
 904 165 904 165 796 83 c 0,2,3
 693 4 693 4 655 1 c 0,4,5
 646 1 646 1 623 -1.5 c 128,-1,6
 600 -4 600 -4 597 -4 c 0,7,8
 541 -4 541 -4 437.5 29 c 128,-1,9
 334 62 334 62 249 62 c 0,10,11
 169 62 169 62 112 19 c 1,12,-1
 99 22 l 1,13,14
 98 44 98 44 138 88 c 0,15,16
 196 152 196 152 204 164 c 0,17,18
 217 182 217 182 235 234 c 0,19,20
 263 314 263 314 267 322 c 1,21,22
 256 334 256 334 219 334 c 0,23,24
 174 334 174 334 147 320 c 0,25,26
 132 312 132 312 114 294 c 0,27,28
 100 280 100 280 88 280 c 2,29,-1
 75 280 l 2,30,31
 72 283 72 283 72 289 c 0,32,33
 72 322 72 322 155 398 c 0,34,35
 220 456 220 456 253 476.5 c 128,-1,36
 286 497 286 497 306 497 c 0,37,38
 310 497 310 497 314 496 c 0,39,40
 318 496 318 496 319 496 c 0,41,42
 324 496 324 496 328 500 c 0,43,44
 344 541 344 541 385 615 c 1,45,46
 415 655 415 655 466 710 c 0,47,48
 549 800 549 800 580 800 c 0,49,50
 584 800 584 800 612 780 c 0,51,52
 646 756 646 756 676 743 c 0,53,54
 721 723 721 723 767 723 c 0,55,56
 826 723 826 723 862 741 c 1,57,-1
 877 737 l 1,58,59
 803 623 803 623 754 588.5 c 128,-1,60
 705 554 705 554 617 554 c 0,61,62
 553 554 553 554 483 592 c 1,63,64
 461 539 461 539 446 489 c 1,65,66
 482 479 482 479 519 469 c 0,67,68
 581 451 581 451 621 451 c 0,69,70
 663 451 663 451 695 465 c 0,71,72
 743 484 743 484 758 487 c 0,73,74
 761 484 761 484 761 478 c 0,75,76
 761 443 761 443 673 372 c 0,77,78
 600 312 600 312 570 301 c 0,79,80
 535 288 535 288 508 286 c 0,81,82
 474 284 474 284 469 282 c 2,83,-1
 375 295 l 1,84,85
 360 272 360 272 325 225 c 1,86,87
 383 231 383 231 400 231 c 0,88,89
 486 231 486 231 593 198 c 128,-1,90
 700 165 700 165 744 165 c 0,91,92
 786 165 786 165 820 179 c 0,93,94
 841 187 841 187 865 204 c 0,95,96
 884 218 884 218 890 218 c 2,97,-1
 904 218 l 1,98,-1
 904 204 l 2,0,1
EndSplineSet
EndChar

StartChar: yen
Encoding: 165 165 99
Width: 1050
GlyphClass: 1
Flags: W
LayerCount: 2
Fore
SplineSet
1026 517 m 1,0,1
 982 429 982 429 912 373 c 0,2,3
 839 316 839 316 764 316 c 0,4,5
 761 316 761 316 754.5 317.5 c 128,-1,6
 748 319 748 319 745 319 c 0,7,8
 588 144 588 144 550 144 c 0,9,10
 547 144 547 144 537.5 149.5 c 128,-1,11
 528 155 528 155 525 156 c 0,12,13
 473 167 473 167 438 167 c 1,14,15
 427 129 427 129 403 55 c 0,16,17
 391 18 391 18 380 0 c 0,18,19
 372 -14 372 -14 321 -67 c 0,20,21
 260 -130 260 -130 238 -130 c 2,22,-1
 228 -130 l 2,23,24
 224 -127 224 -127 224 -121 c 2,25,-1
 274 33 l 1,26,-1
 274 95 l 2,27,28
 274 98 274 98 276.5 103 c 128,-1,29
 279 108 279 108 279 111 c 2,30,-1
 279 299 l 1,31,32
 259 308 259 308 235 326 c 1,33,-1
 164 326 l 2,34,35
 131 326 131 326 94.5 304.5 c 128,-1,36
 58 283 58 283 21 261 c 1,37,38
 15 267 15 267 15 270 c 0,39,40
 15 315 15 315 122 401 c 0,41,42
 226 484 226 484 267 481 c 1,43,44
 269 486 269 486 269 504 c 0,45,46
 269 517 269 517 253 547 c 0,47,48
 233 583 233 583 214 583 c 0,49,50
 212 583 212 583 197 573 c 128,-1,51
 182 563 182 563 178 563 c 2,52,-1
 162 563 l 1,53,-1
 162 576 l 2,54,55
 162 604 162 604 247.5 682 c 128,-1,56
 333 760 333 760 357 760 c 0,57,58
 365 760 365 760 425 693 c 1,59,60
 455 722 455 722 485 752 c 0,61,62
 537 800 537 800 557 800 c 0,63,64
 574 800 574 800 630 774 c 0,65,66
 673 754 673 754 726 704 c 0,67,68
 787 647 787 647 801 599 c 0,69,70
 809 576 809 576 816.5 553 c 128,-1,71
 824 530 824 530 823 517 c 1,72,73
 848 504 848 504 872 490 c 0,74,75
 892 481 892 481 913 481 c 0,76,77
 947 481 947 481 969 494 c 128,-1,78
 991 507 991 507 1013 521 c 1,79,-1
 1026 517 l 1,0,1
658 324 m 1,80,-1
 658 395 l 2,81,82
 658 456 658 456 575 537 c 0,83,84
 496 613 496 613 437 622 c 1,85,86
 437 596 437 596 439 544 c 0,87,88
 441 513 441 513 443 481 c 0,89,90
 445 456 445 456 456 452 c 1,91,92
 455 438 455 438 449.5 430.5 c 128,-1,93
 444 423 444 423 444 422 c 2,94,-1
 444 333 l 2,95,96
 444 325 444 325 439 301 c 1,97,98
 501 331 501 331 567 331 c 0,99,100
 595 331 595 331 658 324 c 1,80,-1
EndSplineSet
EndChar

StartChar: copyright
Encoding: 169 169 100
Width: 937
GlyphClass: 1
Flags: W
LayerCount: 2
Fore
SplineSet
839 470 m 0,0,1
 839 297 839 297 723 152 c 0,2,3
 597 -6 597 -6 413 -6 c 0,4,5
 290 -6 290 -6 186 89 c 0,6,7
 77 187 77 187 77 314 c 0,8,9
 77 506 77 506 216 656 c 0,10,11
 350 800 350 800 506 800 c 0,12,13
 667 800 667 800 753 715.5 c 128,-1,14
 839 631 839 631 839 470 c 0,0,1
736 377 m 0,15,16
 736 534 736 534 653 615.5 c 128,-1,17
 570 697 570 697 413 697 c 0,18,19
 286 697 286 697 226 602 c 0,20,21
 179 528 179 528 179 406 c 0,22,23
 179 280 179 280 287 186 c 0,24,25
 389 96 389 96 508 96 c 0,26,27
 564 96 564 96 586 104 c 0,28,29
 614 110 614 110 653 125 c 1,30,31
 676 143 676 143 687.5 168.5 c 128,-1,32
 699 194 699 194 710 222 c 0,33,34
 740 286 740 286 740 319 c 0,35,36
 740 326 740 326 738 344.5 c 128,-1,37
 736 363 736 363 736 377 c 0,15,16
642 590 m 1,38,39
 620 541 620 541 564.5 503 c 128,-1,40
 509 465 509 465 465 465 c 0,41,42
 439 465 439 465 415 476 c 0,43,44
 369 496 369 496 364 498 c 0,45,46
 362 495 362 495 362 477 c 0,47,48
 362 418 362 418 395 365 c 0,49,50
 434 301 434 301 497 301 c 0,51,52
 518 301 518 301 548 319 c 0,53,54
 573 333 573 333 597 348 c 1,55,56
 586 304 586 304 518 251.5 c 128,-1,57
 450 199 450 199 408 199 c 0,58,59
 338 199 338 199 295 266 c 0,60,61
 260 323 260 323 260 387 c 0,62,63
 260 450 260 450 324.5 536 c 128,-1,64
 389 622 389 622 436 622 c 1,65,66
 431 622 431 622 475 594.5 c 128,-1,67
 519 567 519 567 556 567 c 0,68,69
 577 567 577 567 584 570 c 0,70,71
 605 580 605 580 642 590 c 1,38,39
EndSplineSet
EndChar

StartChar: registered
Encoding: 174 174 101
Width: 914
GlyphClass: 1
Flags: W
LayerCount: 2
Fore
SplineSet
823 503 m 0,0,1
 823 383 823 383 734 250 c 0,2,3
 648 122 648 122 509 24 c 0,4,5
 480 3 480 3 443 -3 c 0,6,7
 425 -5 425 -5 368 -5 c 1,8,9
 374 -5 374 -5 346 -7 c 0,10,11
 323 -8 323 -8 305 -7 c 0,12,13
 281 -5 281 -5 267 1 c 0,14,15
 162 51 162 51 108 138 c 0,16,17
 59 217 59 217 59 312 c 0,18,19
 59 387 59 387 107 479 c 0,20,21
 140 543 140 543 215 644 c 0,22,23
 296 752 296 752 349 779 c 0,24,25
 386 798 386 798 483 798 c 0,26,27
 613 798 613 798 711 726 c 0,28,29
 823 642 823 642 823 503 c 0,0,1
485 465 m 0,30,31
 485 524 485 524 437 524 c 0,32,33
 427 524 427 524 415 518 c 1,34,35
 415 502 415 502 412 472.5 c 128,-1,36
 409 443 409 443 409 438 c 2,37,-1
 409 350 l 1,38,39
 485 419 485 419 485 465 c 0,30,31
720 409 m 0,40,41
 720 540 720 540 613 622 c 0,42,43
 517 695 517 695 391 695 c 0,44,45
 321 695 321 695 306 685 c 0,46,47
 235 638 235 638 195 549 c 0,48,49
 163 475 163 475 163 406 c 0,50,51
 163 210 163 210 362 105 c 0,52,53
 374 99 374 99 398 97 c 0,54,55
 415 96 415 96 438 97 c 0,56,57
 466 98 466 98 461 98 c 1,58,59
 520 98 520 98 540.5 107 c 128,-1,60
 561 116 561 116 591 152 c 0,61,62
 654 231 654 231 680 260 c 1,63,64
 676 256 676 256 652 247 c 0,65,66
 625 236 625 236 612 236 c 0,67,68
 536 236 536 236 424 319 c 1,69,70
 418 315 418 315 413.5 311 c 128,-1,71
 409 307 409 307 409 296 c 0,72,73
 409 284 409 284 415 278 c 0,74,75
 433 261 433 261 434 259 c 0,76,77
 423 240 423 240 393 206 c 0,78,79
 353 163 353 163 333 163 c 0,80,81
 328 163 328 163 317 173 c 0,82,83
 302 188 302 188 300 190 c 0,84,85
 300 192 300 192 302.5 197 c 128,-1,86
 305 202 305 202 305 206 c 2,87,-1
 305 349 l 2,88,89
 305 353 305 353 308 357.5 c 128,-1,90
 311 362 311 362 311 365 c 2,91,-1
 311 467 l 1,92,-1
 279 499 l 1,93,94
 261 487 261 487 255 487 c 0,95,96
 248 487 248 487 249 492 c 0,97,98
 256 511 256 511 294 557 c 0,99,100
 339 611 339 611 363 611 c 0,101,102
 374 611 374 611 387 594 c 0,103,104
 402 574 402 574 413 569 c 1,105,106
 426 581 426 581 462 603 c 0,107,108
 507 630 507 630 531 630 c 0,109,110
 535 630 535 630 541.5 625 c 128,-1,111
 548 620 548 620 550 620 c 0,112,113
 572 616 572 616 579 607 c 0,114,115
 588 595 588 595 588 559 c 0,116,117
 588 521 588 521 574 494 c 0,118,119
 566 479 566 479 524 422 c 1,120,121
 560 391 560 391 615 365 c 128,-1,122
 670 339 670 339 703 339 c 0,123,124
 720 339 720 339 720 409 c 0,40,41
EndSplineSet
EndChar

StartChar: trademark
Encoding: 8482 8482 102
Width: 861
GlyphClass: 1
Flags: W
LayerCount: 2
Fore
SplineSet
755 565 m 0,0,1
 755 555 755 555 726 526 c 128,-1,2
 697 497 697 497 688 497 c 1,3,4
 688 497 688 497 676 506.5 c 128,-1,5
 664 516 664 516 643 516 c 0,6,7
 626 516 626 516 601 503 c 0,8,9
 600 504 600 504 597 508 c 128,-1,10
 594 512 594 512 594 514 c 0,11,12
 594 521 594 521 603 531 c 0,13,14
 623 557 623 557 655 581 c 0,15,16
 671 593 671 593 671 616 c 0,17,18
 671 637 671 637 655 672 c 0,19,20
 635 714 635 714 612 714 c 2,21,-1
 592 714 l 2,22,23
 587 711 587 711 589 703 c 0,24,25
 592 687 592 687 592 673 c 0,26,27
 592 632 592 632 574 595 c 0,28,29
 550 545 550 545 499 520 c 1,30,31
 500 524 500 524 513 557 c 0,32,33
 522 579 522 579 522 609 c 0,34,35
 522 643 522 643 505 673 c 0,36,37
 484 710 484 710 449 710 c 0,38,39
 422 710 422 710 416 693 c 0,40,41
 412 685 412 685 412 653 c 0,42,43
 412 578 412 578 458 578 c 0,44,45
 474 578 474 578 476 580 c 0,46,47
 481 586 481 586 498 591 c 1,48,49
 486 560 486 560 455 533.5 c 128,-1,50
 424 507 424 507 398 507 c 0,51,52
 341 507 341 507 341 591 c 0,53,54
 341 658 341 658 395.5 719.5 c 128,-1,55
 450 781 450 781 512 781 c 0,56,57
 535 781 535 781 549 769 c 0,58,59
 556 764 556 764 576 739 c 1,60,61
 608 767 608 767 620 774 c 0,62,63
 637 785 637 785 661 785 c 0,64,65
 699 785 699 785 722 747 c 0,66,67
 742 716 742 716 742 680 c 0,68,69
 742 656 742 656 730 637 c 0,70,71
 728 633 728 633 694 588 c 1,72,73
 712 585 712 585 730 582 c 0,74,75
 755 576 755 576 755 565 c 0,0,1
347 795 m 1,76,77
 340 774 340 774 317.5 750.5 c 128,-1,78
 295 727 295 727 295 727 c 2,79,80
 295 726 295 726 301 718 c 128,-1,81
 307 710 307 710 308 705 c 0,82,83
 320 663 320 663 320 638 c 0,84,85
 320 600 320 600 278 547.5 c 128,-1,86
 236 495 236 495 192 476 c 1,87,88
 189 483 189 483 170 495 c 0,89,90
 146 511 146 511 129 511 c 0,91,92
 124 511 124 511 112.5 506 c 128,-1,93
 101 501 101 501 92 502 c 1,94,95
 110 535 110 535 139 558 c 128,-1,96
 168 581 168 581 192 581 c 0,97,98
 201 581 201 581 221.5 572.5 c 128,-1,99
 242 564 242 564 248 558 c 1,100,101
 249 562 249 562 249 574 c 0,102,103
 249 603 249 603 237 640 c 0,104,105
 232 655 232 655 222.5 664 c 128,-1,106
 213 673 213 673 187 684 c 0,107,108
 112 714 112 714 114 714 c 0,109,110
 118 714 118 714 86 695 c 1,111,-1
 77 695 l 1,112,113
 78 709 78 709 116 748.5 c 128,-1,114
 154 788 154 788 173 788 c 1,115,116
 172 788 172 788 199.5 773 c 128,-1,117
 227 758 227 758 252 758 c 0,118,119
 275 758 275 758 301 773 c 0,120,121
 320 785 320 785 338 798 c 0,122,123
 342 798 342 798 347 795 c 1,76,77
EndSplineSet
EndChar

StartChar: Ccircumflex
Encoding: 264 264 103
Width: 749
Flags: W
LayerCount: 2
Fore
SplineSet
754 1057 m 5,0,1
 738 1013 738 1013 665 949 c 4,2,3
 589 881 589 881 545 881 c 4,4,5
 509 881 509 881 443 928 c 132,-1,6
 377 975 377 975 356 1013 c 5,7,8
 313 968 313 968 270 924 c 4,9,10
 216 871 216 871 194 872 c 5,11,-1
 191 885 l 5,12,13
 248 964 248 964 330 1050 c 4,14,15
 431 1158 431 1158 476 1169 c 5,16,17
 487 1138 487 1138 554 1081 c 4,18,19
 627 1018 627 1018 669 1018 c 4,20,21
 683 1018 683 1018 708 1038 c 132,-1,22
 733 1058 733 1058 745 1058 c 4,23,24
 750 1058 750 1058 754 1057 c 5,0,1
749 764 m 1,25,26
 697 665 697 665 620.5 607.5 c 128,-1,27
 544 550 544 550 469 550 c 0,28,29
 421 550 421 550 391 563 c 0,30,31
 349 582 349 582 306 638 c 1,32,33
 294 630 294 630 277 613 c 1,34,35
 263 583 263 583 251 510 c 0,36,37
 242 452 242 452 242 429 c 0,38,39
 242 313 242 313 333 240 c 0,40,41
 415 172 415 172 528 172 c 0,42,43
 566 172 566 172 611 190 c 0,44,45
 701 225 701 225 709 228 c 1,46,47
 658 118 658 118 553 50 c 0,48,49
 456 -12 456 -12 360 -12 c 0,50,51
 234 -12 234 -12 150 57 c 0,52,53
 58 133 58 133 58 260 c 0,54,55
 58 457 58 457 200 617 c 0,56,57
 292 721 292 721 477 836 c 1,58,59
 542 734 542 734 636 734 c 0,60,61
 673 734 673 734 688 743 c 0,62,63
 726 766 726 766 732 768 c 2,64,-1
 749 764 l 1,25,26
EndSplineSet
EndChar

StartChar: ccircumflex
Encoding: 265 265 104
Width: 545
Flags: W
LayerCount: 2
Fore
SplineSet
561.400390625 752.400390625 m 5,0,1
 551.799804688 726 551.799804688 726 508 687.599609375 c 4,2,3
 462.400390625 646.799804688 462.400390625 646.799804688 436 646.799804688 c 4,4,5
 414.400390625 646.799804688 414.400390625 646.799804688 374.799804688 675 c 132,-1,6
 335.200195312 703.200195312 335.200195312 703.200195312 322.599609375 726 c 5,7,8
 296.799804688 699 296.799804688 699 271 672.599609375 c 4,9,10
 238.599609375 640.799804688 238.599609375 640.799804688 225.400390625 641.400390625 c 5,11,-1
 223.599609375 649.200195312 l 5,12,13
 257.799804688 696.599609375 257.799804688 696.599609375 307 748.200195312 c 4,14,15
 367.599609375 813 367.599609375 813 394.599609375 819.599609375 c 5,16,17
 401.200195312 801 401.200195312 801 441.400390625 766.799804688 c 4,18,19
 485.200195312 729 485.200195312 729 510.400390625 729 c 4,20,21
 518.799804688 729 518.799804688 729 533.799804688 741 c 132,-1,22
 548.799804688 753 548.799804688 753 556 753 c 4,23,24
 559 753 559 753 561.400390625 752.400390625 c 5,0,1
567 565 m 0,25,26
 567 527 567 527 472 457 c 0,27,28
 387 395 387 395 369 394 c 0,29,30
 363 393 363 393 347 391.5 c 128,-1,31
 331 390 331 390 328 390 c 0,32,33
 272 390 272 390 221 442 c 1,34,35
 198 408 198 408 198 330 c 0,36,37
 198 257 198 257 235 203 c 0,38,39
 281 136 281 136 366 136 c 0,40,41
 395 136 395 136 430 154 c 0,42,43
 483 181 483 181 508 190 c 1,44,45
 493 129 493 129 400 62.5 c 128,-1,46
 307 -4 307 -4 240 -4 c 0,47,48
 152 -4 152 -4 102 60 c 0,49,50
 58 118 58 118 58 205 c 0,51,52
 58 206 58 206 65 277 c 0,53,54
 70 326 70 326 138 425 c 0,55,56
 153 446 153 446 218 511 c 0,57,58
 299 590 299 590 325 590 c 0,59,60
 347 590 347 590 378.5 560 c 128,-1,61
 410 530 410 530 454 530 c 0,62,63
 478 530 478 530 501 543 c 0,64,65
 539 565 539 565 561 573 c 1,66,67
 567 567 567 567 567 565 c 0,25,26
EndSplineSet
EndChar

StartChar: Gcircumflex
Encoding: 284 284 105
Width: 878
Flags: W
LayerCount: 2
Fore
SplineSet
764 1067 m 5,0,1
 748 1023 748 1023 675 959 c 4,2,3
 599 891 599 891 555 891 c 4,4,5
 519 891 519 891 453 938 c 132,-1,6
 387 985 387 985 366 1023 c 5,7,8
 323 978 323 978 280 934 c 4,9,10
 226 881 226 881 204 882 c 5,11,-1
 201 895 l 5,12,13
 258 974 258 974 340 1060 c 4,14,15
 441 1168 441 1168 486 1179 c 5,16,17
 497 1148 497 1148 564 1091 c 4,18,19
 637 1028 637 1028 679 1028 c 4,20,21
 693 1028 693 1028 718 1048 c 132,-1,22
 743 1068 743 1068 755 1068 c 4,23,24
 760 1068 760 1068 764 1067 c 5,0,1
881 561 m 2,25,26
 881 553 881 553 844.5 510 c 128,-1,27
 808 467 808 467 808 465 c 0,28,29
 809 442 809 442 806 397 c 0,30,31
 806 379 806 379 798 346 c 1,32,33
 716 194 716 194 584 94 c 0,34,35
 447 -10 447 -10 316 -10 c 0,36,37
 275 -10 275 -10 272 -10 c 0,38,39
 249 -5 249 -5 226 0 c 0,40,41
 199 6 199 6 184 16 c 0,42,43
 146 40 146 40 103 113 c 0,44,45
 62 182 62 182 62 211 c 2,46,-1
 65 350 l 1,47,48
 87 484 87 484 170 608 c 0,49,50
 270 758 270 758 419 817 c 0,51,52
 420 818 420 818 446 836 c 0,53,54
 467 851 467 851 478 851 c 0,55,56
 479 851 479 851 500 833 c 0,57,58
 526 812 526 812 549 800 c 0,59,60
 583 783 583 783 617 783 c 0,61,62
 669 783 669 783 687 796 c 0,63,64
 723 822 723 822 753 834 c 1,65,66
 757 830 757 830 757 824 c 0,67,68
 757 780 757 780 649 688 c 0,69,70
 546 599 546 599 509 599 c 0,71,72
 463 599 463 599 435 598 c 128,-1,73
 407 597 407 597 412 597 c 1,74,75
 391 597 391 597 306 664 c 1,76,77
 267 598 267 598 256 545 c 0,78,79
 248 509 248 509 248 434 c 0,80,81
 248 326 248 326 312 251 c 0,82,83
 378 173 378 173 485 173 c 0,84,85
 536 173 536 173 573 187 c 0,86,87
 624 206 624 206 624 245 c 2,88,-1
 624 352 l 1,89,90
 626 351 626 351 590 351 c 0,91,92
 586 351 586 351 563.5 362.5 c 128,-1,93
 541 374 541 374 538 374 c 1,94,95
 539 374 539 374 495.5 341.5 c 128,-1,96
 452 309 452 309 432 309 c 0,97,98
 418 309 418 309 418 321 c 0,99,100
 418 359 418 359 541 467 c 0,101,102
 661 571 661 571 690 571 c 0,103,104
 694 571 694 571 721.5 554 c 128,-1,105
 749 537 749 537 765 537 c 0,106,107
 768 537 768 537 781.5 541.5 c 128,-1,108
 795 546 795 546 799 546 c 0,109,110
 802 546 802 546 803.5 543 c 128,-1,111
 805 540 805 540 809 540 c 0,112,113
 812 540 812 540 837 558.5 c 128,-1,114
 862 577 862 577 866 577 c 2,115,-1
 881 577 l 1,116,-1
 881 561 l 2,25,26
EndSplineSet
EndChar

StartChar: gcircumflex
Encoding: 285 285 106
Width: 698
Flags: W
LayerCount: 2
Fore
SplineSet
571.400390625 782.400390625 m 5,0,1
 561.799804688 756 561.799804688 756 518 717.599609375 c 4,2,3
 472.400390625 676.799804688 472.400390625 676.799804688 446 676.799804688 c 4,4,5
 424.400390625 676.799804688 424.400390625 676.799804688 384.799804688 705 c 132,-1,6
 345.200195312 733.200195312 345.200195312 733.200195312 332.599609375 756 c 5,7,8
 306.799804688 729 306.799804688 729 281 702.599609375 c 4,9,10
 248.599609375 670.799804688 248.599609375 670.799804688 235.400390625 671.400390625 c 5,11,-1
 233.599609375 679.200195312 l 5,12,13
 267.799804688 726.599609375 267.799804688 726.599609375 317 778.200195312 c 4,14,15
 377.599609375 843 377.599609375 843 404.599609375 849.599609375 c 5,16,17
 411.200195312 831 411.200195312 831 451.400390625 796.799804688 c 4,18,19
 495.200195312 759 495.200195312 759 520.400390625 759 c 4,20,21
 528.799804688 759 528.799804688 759 543.799804688 771 c 132,-1,22
 558.799804688 783 558.799804688 783 566 783 c 4,23,24
 569 783 569 783 571.400390625 782.400390625 c 5,0,1
661 163 m 0,25,26
 661 45 661 45 549 -75 c 0,27,28
 443 -189 443 -189 353 -189 c 0,29,30
 261 -189 261 -189 179 -152.5 c 128,-1,31
 97 -116 97 -116 36 -116 c 0,32,33
 -18 -116 -18 -116 -32 -126 c 128,-1,34
 -46 -136 -46 -136 -61 -147 c 0,35,36
 -82 -161 -82 -161 -95 -163 c 1,37,-1
 -95 -149 l 2,38,39
 -95 -123 -95 -123 -16 -57 c 0,40,41
 58 4 58 4 77 7 c 0,42,43
 127 16 127 16 155 16 c 0,44,45
 213 16 213 16 301.5 -20.5 c 128,-1,46
 390 -57 390 -57 470 -57 c 0,47,48
 512 -57 512 -57 523 -28 c 0,49,50
 529 -12 529 -12 529 44 c 0,51,52
 529 94 529 94 504 128 c 0,53,54
 474 168 474 168 419 168 c 0,55,56
 412 168 412 168 361 158 c 1,57,58
 360 167 360 167 356 187 c 1,59,60
 304 145 304 145 285 138 c 0,61,62
 270 132 270 132 225 132 c 0,63,64
 167 132 167 132 120 162 c 0,65,66
 63 198 63 198 63 263 c 0,67,68
 63 353 63 353 159 461 c 0,69,70
 248 562 248 562 354 608 c 1,71,72
 382 570 382 570 443 570 c 0,73,74
 463 570 463 570 541 598 c 1,75,-1
 552 598 l 1,76,-1
 552 586 l 2,77,78
 552 577 552 577 522 543 c 0,79,80
 496 513 496 513 490 508 c 1,81,-1
 490 300 l 1,82,83
 497 297 497 297 514 299 c 0,84,85
 538 300 538 300 538 300 c 2,86,87
 601 300 601 300 634 254 c 0,88,89
 661 216 661 216 661 163 c 0,25,26
363 437 m 1,90,-1
 287 437 l 2,91,92
 273 438 273 438 229 469 c 1,93,94
 204 423 204 423 203 421 c 0,95,96
 195 404 195 404 195 382 c 0,97,98
 195 346 195 346 233.5 305 c 128,-1,99
 272 264 272 264 305 264 c 2,100,-1
 358 264 l 1,101,-1
 358 416 l 2,102,103
 358 419 358 419 360.5 427 c 128,-1,104
 363 435 363 435 363 437 c 1,90,-1
EndSplineSet
EndChar

StartChar: Hcircumflex
Encoding: 292 292 107
Width: 939
Flags: W
LayerCount: 2
Fore
SplineSet
654 1037 m 5,0,1
 638 993 638 993 565 929 c 4,2,3
 489 861 489 861 445 861 c 4,4,5
 409 861 409 861 343 908 c 132,-1,6
 277 955 277 955 256 993 c 5,7,8
 213 948 213 948 170 904 c 4,9,10
 116 851 116 851 94 852 c 5,11,-1
 91 865 l 5,12,13
 148 944 148 944 230 1030 c 4,14,15
 331 1138 331 1138 376 1149 c 5,16,17
 387 1118 387 1118 454 1061 c 4,18,19
 527 998 527 998 569 998 c 4,20,21
 583 998 583 998 608 1018 c 132,-1,22
 633 1038 633 1038 645 1038 c 4,23,24
 650 1038 650 1038 654 1037 c 5,0,1
930 168 m 1,25,26
 927 140 927 140 865 68 c 0,27,28
 799 -10 799 -10 762 -10 c 0,29,30
 753 -10 753 -10 732.5 10.5 c 128,-1,31
 712 31 712 31 709 32 c 0,32,33
 676 43 676 43 601 69 c 1,34,35
 600 92 600 92 604 98 c 0,36,37
 643 150 643 150 682 203 c 0,38,39
 689 218 689 218 689 281 c 0,40,41
 689 359 689 359 638.5 408.5 c 128,-1,42
 588 458 588 458 507 458 c 0,43,44
 464 458 464 458 438 438 c 0,45,46
 363 381 363 381 362 380 c 0,47,48
 370 364 370 364 370 359 c 2,49,-1
 370 205 l 1,50,51
 386 184 386 184 435 144 c 1,52,53
 432 116 432 116 370 43 c 0,54,55
 304 -34 304 -34 268 -34 c 0,56,57
 258 -34 258 -34 227 -4 c 0,58,59
 211 14 211 14 195 31 c 1,60,-1
 195 175 l 2,61,62
 195 178 195 178 189.5 200 c 128,-1,63
 184 222 184 222 184 225 c 2,64,-1
 187 478 l 1,65,66
 195 551 195 551 195 539 c 1,67,68
 195 581 195 581 181 593 c 0,69,70
 145 619 145 619 109 644 c 1,71,72
 92 633 92 633 74 621 c 0,73,74
 51 606 51 606 34 608 c 1,75,76
 29 637 29 637 129 736.5 c 128,-1,77
 229 836 229 836 260 836 c 0,78,79
 265 836 265 836 312.5 799.5 c 128,-1,80
 360 763 360 763 370 752 c 1,81,-1
 370 651 l 1,82,83
 370 653 370 653 362 621 c 1,84,-1
 364 447 l 1,85,86
 459 542 459 542 510 578 c 0,87,88
 590 634 590 634 668 634 c 0,89,90
 759 634 759 634 812 583.5 c 128,-1,91
 865 533 865 533 865 437 c 0,92,93
 865 380 865 380 858 347 c 0,94,95
 844 284 844 284 800 235 c 1,96,97
 856 219 856 219 886 205 c 1,98,99
 892 195 892 195 905 180 c 1,100,101
 914 176 914 176 930 168 c 1,25,26
EndSplineSet
EndChar

StartChar: hcircumflex
Encoding: 293 293 108
Width: 754
Flags: W
LayerCount: 2
Fore
SplineSet
430.400390625 952.400390625 m 5,0,1
 420.799804688 926 420.799804688 926 377 887.599609375 c 4,2,3
 331.400390625 846.799804688 331.400390625 846.799804688 305 846.799804688 c 4,4,5
 283.400390625 846.799804688 283.400390625 846.799804688 243.799804688 875 c 132,-1,6
 204.200195312 903.200195312 204.200195312 903.200195312 191.599609375 926 c 5,7,8
 165.799804688 899 165.799804688 899 140 872.599609375 c 4,9,10
 107.599609375 840.799804688 107.599609375 840.799804688 94.400390625 841.400390625 c 5,11,-1
 92.599609375 849.200195312 l 5,12,13
 126.799804688 896.599609375 126.799804688 896.599609375 176 948.200195312 c 4,14,15
 236.599609375 1013 236.599609375 1013 263.599609375 1019.59960938 c 5,16,17
 270.200195312 1001 270.200195312 1001 310.400390625 966.799804688 c 4,18,19
 354.200195312 929 354.200195312 929 379.400390625 929 c 4,20,21
 387.799804688 929 387.799804688 929 402.799804688 941 c 132,-1,22
 417.799804688 953 417.799804688 953 425 953 c 4,23,24
 428 953 428 953 430.400390625 952.400390625 c 5,0,1
740 102 m 0,25,26
 740 74 740 74 677 19 c 0,27,28
 620 -30 620 -30 603 -34 c 1,29,30
 585 5 585 5 530 5 c 0,31,32
 506 5 506 5 457 -6 c 1,33,-1
 418 -2 l 1,34,35
 441 37 441 37 475 81 c 0,36,37
 502 117 502 117 510 134 c 0,38,39
 522 161 522 161 522 203 c 0,40,41
 522 267 522 267 485 336 c 0,42,43
 438 426 438 426 361 426 c 0,44,45
 342 426 342 426 275 360 c 1,46,-1
 275 247 l 2,47,48
 275 244 275 244 272.5 240.5 c 128,-1,49
 270 237 270 237 270 234 c 2,50,-1
 270 145 l 1,51,52
 270 145 270 145 301 122 c 0,53,54
 325 104 325 104 325 97 c 0,55,56
 325 69 325 69 262 14 c 0,57,58
 206 -35 206 -35 187 -39 c 1,59,60
 181 -32 181 -32 128 9 c 1,61,-1
 128 114 l 2,62,63
 128 118 128 118 131 120 c 128,-1,64
 134 122 134 122 134 126 c 2,65,-1
 134 280 l 2,66,67
 134 283 134 283 131 288.5 c 128,-1,68
 128 294 128 294 128 298 c 2,69,-1
 128 593 l 1,70,71
 112 613 112 613 69 650 c 1,72,73
 58 644 58 644 47 637 c 0,74,75
 32 628 32 628 15 626 c 1,76,-1
 15 640 l 2,77,78
 15 664 15 664 96 733 c 0,79,80
 174 800 174 800 191 800 c 0,81,82
 199 800 199 800 234 765.5 c 128,-1,83
 269 731 269 731 270 724 c 2,84,-1
 274 415 l 1,85,86
 428 567 428 567 487 567 c 0,87,88
 571 567 571 567 622 475 c 0,89,90
 663 403 663 403 663 331 c 0,91,92
 663 236 663 236 591 143 c 1,93,94
 604 143 604 143 629 144.5 c 128,-1,95
 654 146 654 146 655 146 c 0,96,97
 679 146 679 146 703 139 c 0,98,99
 740 127 740 127 740 102 c 0,25,26
EndSplineSet
EndChar

StartChar: Jcircumflex
Encoding: 308 308 109
Width: 750
Flags: W
LayerCount: 2
Fore
SplineSet
1004 1017 m 5,0,1
 988 973 988 973 915 909 c 4,2,3
 839 841 839 841 795 841 c 4,4,5
 759 841 759 841 693 888 c 132,-1,6
 627 935 627 935 606 973 c 5,7,8
 563 928 563 928 520 884 c 4,9,10
 466 831 466 831 444 832 c 5,11,-1
 441 845 l 5,12,13
 498 924 498 924 580 1010 c 4,14,15
 681 1118 681 1118 726 1129 c 5,16,17
 737 1098 737 1098 804 1041 c 4,18,19
 877 978 877 978 919 978 c 4,20,21
 933 978 933 978 958 998 c 132,-1,22
 983 1018 983 1018 995 1018 c 4,23,24
 1000 1018 1000 1018 1004 1017 c 5,0,1
712 388 m 0,25,26
 712 343 712 343 708 326.5 c 128,-1,27
 704 310 704 310 704 309 c 2,28,-1
 704 156 l 2,29,30
 704 91 704 91 579 -22 c 1,31,32
 490 -95 490 -95 400 -168 c 0,33,34
 386 -180 386 -180 347 -188 c 0,35,36
 315 -195 315 -195 289 -195 c 0,37,38
 183 -195 183 -195 109 -129 c 0,39,40
 30 -60 30 -60 30 49 c 0,41,42
 30 127 30 127 78.5 192.5 c 128,-1,43
 127 258 127 258 233 326 c 1,44,-1
 249 322 l 1,45,46
 235 288 235 288 210 254 c 0,47,48
 198 237 198 237 198 200 c 0,49,50
 198 110 198 110 276 41 c 0,51,52
 350 -27 350 -27 441 -27 c 0,53,54
 473 -27 473 -27 495 -8 c 0,55,56
 502 -2 502 -2 535 37 c 1,57,-1
 535 169 l 1,58,59
 543 233 543 233 543 233 c 1,60,61
 543 276 543 276 540 293 c 1,62,63
 522 308 522 308 504 323 c 0,64,65
 473 349 473 349 459 349 c 0,66,67
 452 349 452 349 424.5 330 c 128,-1,68
 397 311 397 311 381 314 c 1,69,70
 383 344 383 344 438 402 c 0,71,72
 485 453 485 453 535 489 c 1,73,-1
 535 568 l 1,74,75
 516 588 516 588 472 640 c 1,76,77
 426 606 426 606 417 606 c 2,78,-1
 401 606 l 1,79,-1
 401 620 l 2,80,81
 401 645 401 645 494.5 733 c 128,-1,82
 588 821 588 821 612 821 c 0,83,84
 621 821 621 821 662.5 780 c 128,-1,85
 704 739 704 739 704 734 c 2,86,-1
 704 477 l 1,87,88
 704 483 704 483 708 459 c 128,-1,89
 712 435 712 435 712 388 c 0,25,26
EndSplineSet
EndChar

StartChar: jcircumflex
Encoding: 309 309 110
Width: 392
Flags: W
LayerCount: 2
Fore
SplineSet
471.400390625 772.400390625 m 5,0,1
 461.799804688 746 461.799804688 746 418 707.599609375 c 4,2,3
 372.400390625 666.799804688 372.400390625 666.799804688 346 666.799804688 c 4,4,5
 324.400390625 666.799804688 324.400390625 666.799804688 284.799804688 695 c 132,-1,6
 245.200195312 723.200195312 245.200195312 723.200195312 232.599609375 746 c 5,7,8
 206.799804688 719 206.799804688 719 181 692.599609375 c 4,9,10
 148.599609375 660.799804688 148.599609375 660.799804688 135.400390625 661.400390625 c 5,11,-1
 133.599609375 669.200195312 l 5,12,13
 167.799804688 716.599609375 167.799804688 716.599609375 217 768.200195312 c 4,14,15
 277.599609375 833 277.599609375 833 304.599609375 839.599609375 c 5,16,17
 311.200195312 821 311.200195312 821 351.400390625 786.799804688 c 4,18,19
 395.200195312 749 395.200195312 749 420.400390625 749 c 4,20,21
 428.799804688 749 428.799804688 749 443.799804688 761 c 132,-1,22
 458.799804688 773 458.799804688 773 466 773 c 4,23,24
 469 773 469 773 471.400390625 772.400390625 c 5,0,1
323 58 m 2,25,26
 323 14 323 14 256 -83 c 0,27,28
 187 -184 187 -184 146 -184 c 0,29,30
 143 -184 143 -184 142.5 -181.5 c 128,-1,31
 142 -179 142 -179 138 -179 c 1,32,33
 140 -179 140 -179 126.5 -187 c 128,-1,34
 113 -195 113 -195 91 -195 c 0,35,36
 65 -195 65 -195 3 -160.5 c 128,-1,37
 -59 -126 -59 -126 -96 -126 c 0,38,39
 -131 -126 -131 -126 -162.5 -155 c 128,-1,40
 -194 -184 -194 -184 -207 -184 c 2,41,-1
 -221 -184 l 1,42,43
 -114 9 -114 9 24 9 c 0,44,45
 72 9 72 9 121.5 -20 c 128,-1,46
 171 -49 171 -49 173 -49 c 2,47,-1
 188 -49 l 1,48,-1
 188 151 l 2,49,50
 187 154 187 154 184.5 156.5 c 128,-1,51
 182 159 182 159 182 162 c 2,52,-1
 182 294 l 2,53,54
 182 297 182 297 179.5 301 c 128,-1,55
 177 305 177 305 177 308 c 2,56,-1
 177 419 l 1,57,58
 152 444 152 444 138 460 c 1,59,60
 128 455 128 455 106 447 c 1,61,62
 103 451 103 451 103 456 c 0,63,64
 103 477 103 477 165.5 543 c 128,-1,65
 228 609 228 609 252 609 c 0,66,67
 256 609 256 609 277 588 c 0,68,69
 304 559 304 559 312 553 c 1,70,-1
 312 435 l 2,71,72
 312 432 312 432 314.5 428.5 c 128,-1,73
 317 425 317 425 317 422 c 2,74,-1
 317 289 l 2,75,76
 317 286 317 286 320 284 c 128,-1,77
 323 282 323 282 323 279 c 2,78,-1
 323 58 l 2,25,26
EndSplineSet
EndChar

StartChar: Scircumflex
Encoding: 348 348 111
Width: 800
Flags: W
LayerCount: 2
Fore
SplineSet
734 1017 m 5,0,1
 718 973 718 973 645 909 c 4,2,3
 569 841 569 841 525 841 c 4,4,5
 489 841 489 841 423 888 c 132,-1,6
 357 935 357 935 336 973 c 5,7,8
 293 928 293 928 250 884 c 4,9,10
 196 831 196 831 174 832 c 5,11,-1
 171 845 l 5,12,13
 228 924 228 924 310 1010 c 4,14,15
 411 1118 411 1118 456 1129 c 5,16,17
 467 1098 467 1098 534 1041 c 4,18,19
 607 978 607 978 649 978 c 4,20,21
 663 978 663 978 688 998 c 132,-1,22
 713 1018 713 1018 725 1018 c 4,23,24
 730 1018 730 1018 734 1017 c 5,0,1
788 309 m 0,25,26
 788 234 788 234 681 113 c 0,27,28
 570 -12 570 -12 489 -12 c 0,29,30
 439 -12 439 -12 333.5 26 c 128,-1,31
 228 64 228 64 139 64 c 0,32,33
 92 64 92 64 74 51 c 0,34,35
 50 33 50 33 32 29 c 1,36,37
 26 35 26 35 26 37 c 0,38,39
 26 73 26 73 102 145 c 0,40,41
 173 213 173 213 197 215 c 0,42,43
 203 215 203 215 225 221.5 c 128,-1,44
 247 228 247 228 294 228 c 0,45,46
 378 228 378 228 427 213 c 0,47,48
 561 168 561 168 622 153 c 0,49,50
 623 154 623 154 623 163 c 0,51,52
 623 213 623 213 570.5 263.5 c 128,-1,53
 518 314 518 314 465 314 c 2,54,-1
 387 314 l 2,55,56
 384 314 384 314 378 318 c 128,-1,57
 372 322 372 322 369 322 c 2,58,-1
 296 322 l 2,59,60
 281 322 281 322 212 349 c 0,61,62
 156 371 156 371 141 379 c 0,63,64
 122 388 122 388 101 434 c 0,65,66
 82 477 82 477 82 497 c 0,67,68
 82 560 82 560 132 632 c 0,69,70
 180 699 180 699 257 755 c 0,71,72
 277 773 277 773 298 791 c 0,73,74
 333 821 333 821 349 821 c 0,75,76
 354 821 354 821 357 818 c 0,77,78
 366 809 366 809 416.5 784.5 c 128,-1,79
 467 760 467 760 478 760 c 0,80,81
 481 760 481 760 483 761 c 128,-1,82
 485 762 485 762 488 762 c 0,83,84
 490 762 490 762 505.5 754 c 128,-1,85
 521 746 521 746 528 745 c 0,86,87
 622 729 622 729 664 729 c 0,88,89
 693 729 693 729 696.5 730.5 c 128,-1,90
 700 732 700 732 741 752 c 1,91,-1
 756 748 l 1,92,93
 720 670 720 670 649.5 617.5 c 128,-1,94
 579 565 579 565 514 565 c 0,95,96
 427 565 427 565 360 584 c 0,97,98
 263 612 263 612 256 614 c 1,99,100
 264 595 264 595 272 577 c 0,101,102
 284 553 284 553 299 545 c 0,103,104
 410 487 410 487 487 487 c 0,105,106
 489 487 489 487 499.5 488 c 128,-1,107
 510 489 510 489 513 489 c 256,108,109
 516 489 516 489 536 484 c 128,-1,110
 556 479 556 479 559 479 c 2,111,-1
 632 479 l 2,112,113
 671 479 671 479 722.5 436 c 128,-1,114
 774 393 774 393 779 359 c 0,115,116
 781 348 781 348 784.5 340.5 c 128,-1,117
 788 333 788 333 788 309 c 0,25,26
EndSplineSet
EndChar

StartChar: scircumflex
Encoding: 349 349 112
Width: 599
Flags: W
LayerCount: 2
Fore
SplineSet
511.400390625 752.400390625 m 5,0,1
 501.799804688 726 501.799804688 726 458 687.599609375 c 4,2,3
 412.400390625 646.799804688 412.400390625 646.799804688 386 646.799804688 c 4,4,5
 364.400390625 646.799804688 364.400390625 646.799804688 324.799804688 675 c 132,-1,6
 285.200195312 703.200195312 285.200195312 703.200195312 272.599609375 726 c 5,7,8
 246.799804688 699 246.799804688 699 221 672.599609375 c 4,9,10
 188.599609375 640.799804688 188.599609375 640.799804688 175.400390625 641.400390625 c 5,11,-1
 173.599609375 649.200195312 l 5,12,13
 207.799804688 696.599609375 207.799804688 696.599609375 257 748.200195312 c 4,14,15
 317.599609375 813 317.599609375 813 344.599609375 819.599609375 c 5,16,17
 351.200195312 801 351.200195312 801 391.400390625 766.799804688 c 4,18,19
 435.200195312 729 435.200195312 729 460.400390625 729 c 4,20,21
 468.799804688 729 468.799804688 729 483.799804688 741 c 132,-1,22
 498.799804688 753 498.799804688 753 506 753 c 4,23,24
 509 753 509 753 511.400390625 752.400390625 c 5,0,1
598 570 m 1,25,26
 522 404 522 404 349 404 c 0,27,28
 331 404 331 404 238 423 c 1,29,30
 253 383 253 383 334 366 c 0,31,32
 455 339 455 339 471 332 c 0,33,34
 541 301 541 301 541 225 c 0,35,36
 541 179 541 179 434 82 c 0,37,38
 334 -9 334 -9 313 -9 c 1,39,40
 317 -9 317 -9 252 16.5 c 128,-1,41
 187 42 187 42 138 42 c 0,42,43
 101 42 101 42 55 31 c 0,44,45
 32 25 32 25 9 19 c 1,46,47
 62 115 62 115 129 152 c 0,48,49
 181 180 181 180 263 180 c 0,50,51
 285 180 285 180 324 170 c 0,52,53
 370 159 370 159 386 157 c 1,54,55
 345 202 345 202 260 220 c 0,56,57
 148 243 148 243 135 249 c 0,58,59
 79 275 79 275 79 351 c 0,60,61
 79 393 79 393 164.5 494.5 c 128,-1,62
 250 596 250 596 295 596 c 1,63,64
 293 596 293 596 354.5 569 c 128,-1,65
 416 542 416 542 475 542 c 0,66,67
 509 542 509 542 542 553 c 0,68,69
 585 568 585 568 598 570 c 1,25,26
EndSplineSet
EndChar

StartChar: Ubreve
Encoding: 364 364 113
Width: 1019
Flags: W
LayerCount: 2
Fore
SplineSet
493 1061 m 5,0,1
 464 1053 464 1053 429 1015 c 132,-1,2
 394 977 394 977 394 947 c 4,3,4
 394 913 394 913 435 891 c 4,5,6
 468 874 468 874 498 874 c 4,7,8
 554 874 554 874 598 911 c 4,9,10
 634 942 634 942 677 1013 c 5,11,12
 672 1018 672 1018 671 1018 c 4,13,14
 665 1018 665 1018 637 995 c 132,-1,15
 609 972 609 972 586 972 c 4,16,17
 559 972 559 972 529 988 c 4,18,19
 493 1007 493 1007 493 1036 c 6,20,21
 493 1036 493 1036 493 1044 c 132,-1,22
 493 1052 493 1052 493 1061 c 5,0,1
1006 222 m 0,23,24
 1006 189 1006 189 905 86 c 0,25,26
 802 -21 802 -21 761 -18 c 1,27,28
 730 23 730 23 698 64 c 0,29,30
 662 115 662 115 664 168 c 1,31,32
 542 57 542 57 499 34 c 0,33,34
 446 7 446 7 343 7 c 0,35,36
 261 7 261 7 232 13 c 0,37,38
 171 27 171 27 108 82 c 1,39,40
 95 113 95 113 83 144 c 0,41,42
 62 196 62 196 62 218 c 0,43,44
 62 267 62 267 65 298 c 0,45,46
 67 324 67 324 103 434 c 0,47,48
 125 501 125 501 140 530 c 0,49,50
 154 555 154 555 190 598 c 0,51,52
 189 599 189 599 103 599 c 1,53,54
 87 607 87 607 57 619 c 1,55,56
 55 648 55 648 128.5 722.5 c 128,-1,57
 202 797 202 797 235 797 c 0,58,59
 237 797 237 797 255 788.5 c 128,-1,60
 273 780 273 780 281 780 c 2,61,-1
 436 776 l 1,62,63
 426 739 426 739 359.5 676.5 c 128,-1,64
 293 614 293 614 291 609 c 0,65,66
 246 486 246 486 246 412 c 0,67,68
 246 188 246 188 510 188 c 0,69,70
 571 188 571 188 600 196 c 0,71,72
 666 215 666 215 666 274 c 0,73,74
 666 277 666 277 662 302.5 c 128,-1,75
 658 328 658 328 658 331 c 2,76,-1
 658 483 l 1,77,78
 658 483 658 483 653.5 516 c 128,-1,79
 649 549 649 549 648 575 c 1,80,81
 629 591 629 591 609 607 c 0,82,83
 574 637 574 637 574 649 c 0,84,85
 574 676 574 676 647 749 c 128,-1,86
 720 822 720 822 748 822 c 1,87,88
 821 770 821 770 829 754 c 1,89,90
 830 741 830 741 834.5 710.5 c 128,-1,91
 839 680 839 680 839 679 c 2,92,-1
 839 509 l 2,93,94
 839 505 839 505 843 496 c 128,-1,95
 847 487 847 487 847 484 c 2,96,-1
 847 300 l 2,97,98
 847 284 847 284 883 238 c 0,99,100
 913 199 913 199 923 190 c 1,101,102
 942 204 942 204 961 219 c 0,103,104
 984 235 984 235 1002 238 c 0,105,106
 1006 235 1006 235 1006 222 c 0,23,24
EndSplineSet
EndChar

StartChar: ubreve
Encoding: 365 365 114
Width: 762
Flags: W
LayerCount: 2
Fore
SplineSet
393 861 m 5,0,1
 364 853 364 853 329 815 c 132,-1,2
 294 777 294 777 294 747 c 4,3,4
 294 713 294 713 335 691 c 4,5,6
 368 674 368 674 398 674 c 4,7,8
 454 674 454 674 498 711 c 4,9,10
 534 742 534 742 577 813 c 5,11,12
 572 818 572 818 571 818 c 4,13,14
 565 818 565 818 537 795 c 132,-1,15
 509 772 509 772 486 772 c 4,16,17
 459 772 459 772 429 788 c 4,18,19
 393 807 393 807 393 836 c 6,20,21
 393 836 393 836 393 844 c 132,-1,22
 393 852 393 852 393 861 c 5,0,1
762 143 m 1,23,24
 766 113 766 113 692.5 41 c 128,-1,25
 619 -31 619 -31 594 -31 c 0,26,27
 587 -31 587 -31 544 9.5 c 128,-1,28
 501 50 501 50 506 66 c 1,29,-1
 504 135 l 1,30,31
 386 37 386 37 361 21 c 0,32,33
 305 -14 305 -14 236 -14 c 256,34,35
 167 -14 167 -14 116 23 c 0,36,37
 57 65 57 65 57 139 c 0,38,39
 57 266 57 266 197 428 c 1,40,41
 194 431 194 431 186 431 c 0,42,43
 179 431 179 431 163 427 c 128,-1,44
 147 423 147 423 144 423 c 0,45,46
 131 423 131 423 121 433 c 1,47,48
 124 450 124 450 178 511 c 0,49,50
 236 578 236 578 262 578 c 0,51,52
 266 578 266 578 270 575 c 128,-1,53
 274 572 274 572 277 572 c 0,54,55
 281 572 281 572 287.5 575 c 128,-1,56
 294 578 294 578 298 577 c 2,57,-1
 385 577 l 2,58,59
 389 574 389 574 389 567 c 0,60,61
 389 545 389 545 342 502 c 0,62,63
 276 441 276 441 253 411 c 0,64,65
 206 346 206 346 206 273 c 0,66,67
 206 207 206 207 258 169 c 0,68,69
 304 135 304 135 370 135 c 0,70,71
 441 135 441 135 506 198 c 1,72,-1
 506 328 l 2,73,74
 506 331 506 331 503 338 c 128,-1,75
 500 345 500 345 500 349 c 2,76,-1
 500 427 l 1,77,78
 493 431 493 431 424 462 c 1,79,-1
 424 477 l 2,80,81
 424 493 424 493 485.5 553 c 128,-1,82
 547 613 547 613 564 613 c 0,83,84
 573 613 573 613 648 571 c 1,85,-1
 648 488 l 2,86,87
 648 485 648 485 651 480 c 128,-1,88
 654 475 654 475 654 472 c 2,89,-1
 654 189 l 1,90,91
 665 181 665 181 693 153 c 0,92,93
 716 129 716 129 720 129 c 0,94,95
 723 129 723 129 734 135.5 c 128,-1,96
 745 142 745 142 749 143 c 2,97,-1
 762 143 l 1,23,24
EndSplineSet
EndChar
